<svg version="1.1" viewBox="0.0 0.0 960.0 540.0" fill="none" stroke="none" stroke-linecap="square" stroke-miterlimit="10" xmlns:xlink="http://www.w3.org/1999/xlink" xmlns="http://www.w3.org/2000/svg"><clipPath id="geb21aec3d9_0_206.0"><path d="m0 0l960.0 0l0 540.0l-960.0 0l0 -540.0z" clip-rule="nonzero"/></clipPath><g clip-path="url(#geb21aec3d9_0_206.0)"><path fill="#ffffff" d="m0 0l960.0 0l0 540.0l-960.0 0z" fill-rule="evenodd"/><path fill="#000000" fill-opacity="0.0" d="m28.624672 272.83466l352.0 0" fill-rule="evenodd"/><path stroke="#595959" stroke-width="1.0" stroke-linejoin="round" stroke-linecap="butt" d="m28.624672 272.83466l346.0 0" fill-rule="evenodd"/><path fill="#595959" stroke="#595959" stroke-width="1.0" stroke-linecap="butt" d="m374.62466 274.4864l4.5381165 -1.6517334l-4.5381165 -1.6517334z" fill-rule="evenodd"/><path fill="#000000" fill-opacity="0.0" d="m383.7244 251.82677l47.968506 0l0 42.015762l-47.968506 0z" fill-rule="evenodd"/><path fill="#000000" d="m397.39627 276.5905l0 -3.671875l-3.640625 0l0 -1.515625l3.640625 0l0 -3.640625l1.546875 0l0 3.640625l3.640625 0l0 1.515625l-3.640625 0l0 3.671875l-1.546875 0zm6.5824585 2.15625l0 -1.328125l6.15625 -7.078125q-1.046875 0.0625 -1.84375 0.0625l-3.9375 0l0 -1.328125l7.90625 0l0 1.078125l-5.25 6.140625l-1.0 1.125q1.09375 -0.078125 2.0625 -0.078125l4.46875 0l0 1.40625l-8.5625 0z" fill-rule="nonzero"/><path fill="#000000" fill-opacity="0.0" d="m196.11023 488.94226l0 -425.5118" fill-rule="evenodd"/><path stroke="#595959" stroke-width="1.0" stroke-linejoin="round" stroke-linecap="butt" d="m196.11023 488.94226l0 -419.5118" fill-rule="evenodd"/><path fill="#595959" stroke="#595959" stroke-width="1.0" stroke-linecap="butt" d="m197.76196 69.43044l-1.6517334 -4.5380936l-1.6517181 4.5380936z" fill-rule="evenodd"/><path fill="#000000" fill-opacity="0.0" d="m177.16011 29.394274l54.929123 0l0 42.015747l-54.929123 0z" fill-rule="evenodd"/><path fill="#000000" d="m190.83199 54.15802l0 -3.671875l-3.640625 0l0 -1.515625l3.640625 0l0 -3.640625l1.546875 0l0 3.640625l3.640625 0l0 1.515625l-3.640625 0l0 3.671875l-1.546875 0zm7.3793335 5.875l-0.1875 -1.53125q0.546875 0.140625 0.9375 0.140625q0.546875 0 0.875 -0.1875q0.328125 -0.171875 0.546875 -0.5q0.15625 -0.25 0.5 -1.21875q0.046875 -0.140625 0.140625 -0.40625l-3.671875 -9.6875l1.765625 0l2.015625 5.59375q0.390625 1.078125 0.703125 2.25q0.28125 -1.125 0.671875 -2.203125l2.078125 -5.640625l1.640625 0l-3.6875 9.828125q-0.59375 1.609375 -0.921875 2.203125q-0.4375 0.8125 -1.0 1.1875q-0.5625 0.375 -1.34375 0.375q-0.484375 0 -1.0625 -0.203125z" fill-rule="nonzero"/><path fill="#000000" fill-opacity="0.0" d="m133.06561 153.5748l132.28348 0l0 232.8504l-132.28348 0z" fill-rule="evenodd"/><path stroke="#4a86e8" stroke-width="3.0" stroke-linejoin="round" stroke-linecap="butt" d="m133.06561 153.5748l132.28348 0l0 232.8504l-132.28348 0z" fill-rule="evenodd"/><path fill="#000000" fill-opacity="0.0" d="m526.8478 270.7743l341.85828 0" fill-rule="evenodd"/><path stroke="#595959" stroke-width="1.0" stroke-linejoin="round" stroke-linecap="butt" d="m526.8478 270.7743l335.85828 0" fill-rule="evenodd"/><path fill="#595959" stroke="#595959" stroke-width="1.0" stroke-linecap="butt" d="m862.70605 272.42603l4.538086 -1.6517334l-4.538086 -1.6517334z" fill-rule="evenodd"/><path fill="#000000" fill-opacity="0.0" d="m871.80316 249.7664l47.968506 0l0 42.015762l-47.968506 0z" fill-rule="evenodd"/><path fill="#000000" d="m881.3969 272.67078l0 -1.640625l5.03125 0l0 1.640625l-5.03125 0zm5.9782715 4.015625l0 -1.328125l6.15625 -7.078125q-1.046875 0.0625 -1.84375 0.0625l-3.9375 0l0 -1.328125l7.90625 0l0 1.078125l-5.25 6.140625l-1.0 1.125q1.09375 -0.078125 2.0625 -0.078125l4.46875 0l0 1.40625l-8.5625 0z" fill-rule="nonzero"/><path fill="#000000" fill-opacity="0.0" d="m570.46454 480.43307l0 -425.5118" fill-rule="evenodd"/><path stroke="#595959" stroke-width="1.0" stroke-linejoin="round" stroke-linecap="butt" d="m570.46454 480.43307l0 -419.5118" fill-rule="evenodd"/><path fill="#595959" stroke="#595959" stroke-width="1.0" stroke-linecap="butt" d="m572.1163 60.92126l-1.6517334 -4.5380974l-1.6517334 4.5380974z" fill-rule="evenodd"/><path fill="#000000" fill-opacity="0.0" d="m551.51447 20.885086l54.929077 0l0 42.015747l-54.929077 0z" fill-rule="evenodd"/><path fill="#000000" d="m565.18634 45.648834l0 -3.671875l-3.640625 0l0 -1.515625l3.640625 0l0 -3.640625l1.546875 0l0 3.640625l3.640625 0l0 1.515625l-3.640625 0l0 3.671875l-1.546875 0zm7.3793335 5.875l-0.1875 -1.53125q0.546875 0.140625 0.9375 0.140625q0.546875 0 0.875 -0.1875q0.328125 -0.171875 0.546875 -0.5q0.15625 -0.25 0.5 -1.21875q0.046875 -0.140625 0.140625 -0.40625l-3.671875 -9.6875l1.765625 0l2.015625 5.59375q0.390625 1.078125 0.703125 2.25q0.28125 -1.125 0.671875 -2.203125l2.078125 -5.640625l1.640625 0l-3.6875 9.828125q-0.59375 1.609375 -0.921875 2.203125q-0.4375 0.8125 -1.0 1.1875q-0.5625 0.375 -1.34375 0.375q-0.484375 0 -1.0625 -0.203125z" fill-rule="nonzero"/><path fill="#000000" fill-opacity="0.0" d="m566.71967 257.01578l0 0c5.7963257 3.2606506 9.2247925 8.34552 9.275024 13.756195c0.050231934 5.4106445 -3.2834473 10.5303955 -9.018616 13.850464l-14.322449 -13.730164z" fill-rule="evenodd"/><path fill="#000000" fill-opacity="0.0" d="m566.71967 257.01578l0 0c5.7963257 3.2606506 9.2247925 8.34552 9.275024 13.756195c0.050231934 5.4106445 -3.2834473 10.5303955 -9.018616 13.850464" fill-rule="evenodd"/><path stroke="#0097a7" stroke-width="3.0" stroke-linejoin="round" stroke-linecap="butt" d="m566.71967 257.01578l0 0c5.7963257 3.2606506 9.2247925 8.34552 9.275024 13.756195c0.050231934 5.4106445 -3.2834473 10.5303955 -9.018616 13.850464" fill-rule="evenodd"/><path fill="#000000" fill-opacity="0.0" d="m549.78033 270.55588l26.610168 -22.471619" fill-rule="evenodd"/><path stroke="#0097a7" stroke-width="3.0" stroke-linejoin="round" stroke-linecap="butt" d="m549.78033 270.55588l26.610168 -22.471619" fill-rule="evenodd"/><path fill="#000000" fill-opacity="0.0" d="m549.78033 270.55588l27.498352 22.908417" fill-rule="evenodd"/><path stroke="#0097a7" stroke-width="3.0" stroke-linejoin="round" stroke-linecap="butt" d="m549.78033 270.55588l27.498352 22.908417" fill-rule="evenodd"/><path fill="#000000" d="m566.475 270.7743l0 0c0 -6.209961 2.418396 -11.24411 5.4016113 -11.24411l0 0c1.4325562 0 2.8064575 1.1846313 3.819458 3.293335c1.0130005 2.108673 1.5820923 4.968628 1.5820923 7.950775l0 0c0 6.2099304 -2.418335 11.24408 -5.4015503 11.24408l0 0c-2.9832153 0 -5.4016113 -5.034149 -5.4016113 -11.24408z" fill-rule="evenodd"/><path stroke="#0097a7" stroke-width="3.0" stroke-linejoin="round" stroke-linecap="butt" d="m566.475 270.7743l0 0c0 -6.209961 2.418396 -11.24411 5.4016113 -11.24411l0 0c1.4325562 0 2.8064575 1.1846313 3.819458 3.293335c1.0130005 2.108673 1.5820923 4.968628 1.5820923 7.950775l0 0c0 6.2099304 -2.418335 11.24408 -5.4015503 11.24408l0 0c-2.9832153 0 -5.4016113 -5.034149 -5.4016113 -11.24408z" fill-rule="evenodd"/><path fill="#000000" fill-opacity="0.0" d="m42.55118 40.228348l127.65355 0l0 42.015747l-127.65355 0z" fill-rule="evenodd"/><path fill="#000000" d="m52.45743 60.648346q0 -3.328125 1.78125 -5.203125q1.78125 -1.890625 4.609375 -1.890625q1.84375 0 3.328125 0.890625q1.484375 0.875 2.2656212 2.46875q0.78125 1.578125 0.78125 3.578125q0 2.03125 -0.828125 3.640625q-0.8124962 1.59375 -2.3124962 2.421875q-1.5 0.828125 -3.25 0.828125q-1.875 0 -3.359375 -0.90625q-1.484375 -0.921875 -2.25 -2.5q-0.765625 -1.578125 -0.765625 -3.328125zm1.8125 0.015625q0 2.421875 1.296875 3.8125q1.296875 1.390625 3.265625 1.390625q2.0 0 3.28125 -1.40625q1.28125 -1.40625 1.28125 -3.984375q0 -1.625 -0.546875 -2.84375q-0.546875 -1.21875 -1.609375 -1.875q-1.0625 -0.671875 -2.375 -0.671875q-1.890625 0 -3.25 1.296875q-1.34375 1.28125 -1.34375 4.28125zm13.011425 6.484375l0 -9.671875l1.46875 0l0 1.46875q0.5625 -1.03125 1.03125 -1.359375q0.484375 -0.328125 1.0625 -0.328125q0.828125 0 1.6875 0.53125l-0.5625 1.515625q-0.609375 -0.359375 -1.203125 -0.359375q-0.546875 0 -0.96875 0.328125q-0.421875 0.328125 -0.609375 0.890625q-0.28125 0.875 -0.28125 1.921875l0 5.0625l-1.625 0zm9.806427 -1.46875l0.234375 1.453125q-0.6875 0.140625 -1.234375 0.140625q-0.890625 0 -1.390625 -0.28125q-0.484375 -0.28125 -0.6875 -0.734375q-0.203125 -0.46875 -0.203125 -1.9375l0 -5.578125l-1.203125 0l0 -1.265625l1.203125 0l0 -2.390625l1.625 -0.984375l0 3.375l1.65625 0l0 1.265625l-1.65625 0l0 5.671875q0 0.6875 0.078125 0.890625q0.09375 0.203125 0.28125 0.328125q0.203125 0.109375 0.578125 0.109375q0.265625 0 0.71875 -0.0625zm1.6051788 1.46875l0 -13.359375l1.640625 0l0 4.796875q1.140625 -1.328125 2.890625 -1.328125q1.078125 0 1.859375 0.421875q0.796875 0.421875 1.140625 1.171875q0.34375 0.75 0.34375 2.171875l0 6.125l-1.640625 0l0 -6.125q0 -1.234375 -0.53125 -1.796875q-0.53125 -0.5625 -1.515625 -0.5625q-0.71875 0 -1.359375 0.390625q-0.640625 0.375 -0.921875 1.015625q-0.265625 0.640625 -0.265625 1.78125l0 5.296875l-1.640625 0zm9.766342 -4.84375q0 -2.6875 1.484375 -3.96875q1.25 -1.078125 3.046875 -1.078125q2.0 0 3.265625 1.3125q1.265625 1.296875 1.265625 3.609375q0 1.859375 -0.5625 2.9375q-0.5625 1.0625 -1.640625 1.65625q-1.0625 0.59375 -2.328125 0.59375q-2.03125 0 -3.28125 -1.296875q-1.25 -1.3125 -1.25 -3.765625zm1.6875 0q0 1.859375 0.796875 2.796875q0.8125 0.921875 2.046875 0.921875q1.21875 0 2.03125 -0.921875q0.8125 -0.9375 0.8125 -2.84375q0 -1.796875 -0.8125 -2.71875q-0.8125 -0.921875 -2.03125 -0.921875q-1.234375 0 -2.046875 0.921875q-0.796875 0.90625 -0.796875 2.765625zm8.985092 5.640625l1.59375 0.234375q0.109375 0.75 0.5625 1.078125q0.609375 0.453125 1.671875 0.453125q1.140625 0 1.75 -0.453125q0.625 -0.453125 0.84375 -1.265625q0.125 -0.5 0.109375 -2.109375q-1.0625 1.265625 -2.671875 1.265625q-2.0 0 -3.09375 -1.4375q-1.09375 -1.4375 -1.09375 -3.453125q0 -1.390625 0.5 -2.5625q0.515625 -1.171875 1.453125 -1.796875q0.953125 -0.640625 2.25 -0.640625q1.703125 0 2.8125 1.375l0 -1.15625l1.515625 0l0 8.359375q0 2.265625 -0.46875 3.203125q-0.453125 0.9375 -1.453125 1.484375q-0.984375 0.546875 -2.453125 0.546875q-1.71875 0 -2.796875 -0.78125q-1.0625 -0.765625 -1.03125 -2.34375zm1.359375 -5.8125q0 1.90625 0.75 2.78125q0.765625 0.875 1.90625 0.875q1.125 0 1.890625 -0.859375q0.765625 -0.875 0.765625 -2.734375q0 -1.78125 -0.796875 -2.671875q-0.78125 -0.90625 -1.890625 -0.90625q-1.09375 0 -1.859375 0.890625q-0.765625 0.875 -0.765625 2.625zm8.719467 0.171875q0 -2.6875 1.484375 -3.96875q1.25 -1.078125 3.046875 -1.078125q2.0 0 3.265625 1.3125q1.265625 1.296875 1.265625 3.609375q0 1.859375 -0.5625 2.9375q-0.5625 1.0625 -1.640625 1.65625q-1.0625 0.59375 -2.328125 0.59375q-2.03125 0 -3.28125 -1.296875q-1.25 -1.3125 -1.25 -3.765625zm1.6875 0q0 1.859375 0.796875 2.796875q0.8125 0.921875 2.046875 0.921875q1.21875 0 2.03125 -0.921875q0.8125 -0.9375 0.8125 -2.84375q0 -1.796875 -0.8125 -2.71875q-0.8125 -0.921875 -2.03125 -0.921875q-1.234375 0 -2.046875 0.921875q-0.796875 0.90625 -0.796875 2.765625zm9.297592 4.84375l0 -9.671875l1.46875 0l0 1.375q1.0625 -1.59375 3.078125 -1.59375q0.875 0 1.609375 0.3125q0.734375 0.3125 1.09375 0.828125q0.375 0.5 0.515625 1.203125q0.09375 0.453125 0.09375 1.59375l0 5.953125l-1.640625 0l0 -5.890625q0 -1.0 -0.203125 -1.484375q-0.1875 -0.5 -0.671875 -0.796875q-0.484375 -0.296875 -1.140625 -0.296875q-1.046875 0 -1.8125 0.671875q-0.75 0.65625 -0.75 2.515625l0 5.28125l-1.640625 0zm16.688217 -1.1875q-0.921875 0.765625 -1.765625 1.09375q-0.828125 0.3125 -1.796875 0.3125q-1.59375 0 -2.453125 -0.78125q-0.859375 -0.78125 -0.859375 -1.984375q0 -0.71875 0.328125 -1.296875q0.328125 -0.59375 0.84375 -0.9375q0.53125 -0.359375 1.1875 -0.546875q0.46875 -0.125 1.453125 -0.25q1.984375 -0.234375 2.921875 -0.5625q0.015625 -0.34375 0.015625 -0.421875q0 -1.0 -0.46875 -1.421875q-0.625 -0.546875 -1.875 -0.546875q-1.15625 0 -1.703125 0.40625q-0.546875 0.40625 -0.8125 1.421875l-1.609375 -0.21875q0.21875 -1.015625 0.71875 -1.640625q0.5 -0.640625 1.453125 -0.984375q0.953125 -0.34375 2.1875 -0.34375q1.25 0 2.015625 0.296875q0.78125 0.28125 1.140625 0.734375q0.375 0.4375 0.515625 1.109375q0.078125 0.421875 0.078125 1.515625l0 2.1875q0 2.28125 0.109375 2.890625q0.109375 0.59375 0.40625 1.15625l-1.703125 0q-0.265625 -0.515625 -0.328125 -1.1875zm-0.140625 -3.671875q-0.890625 0.375 -2.671875 0.625q-1.015625 0.140625 -1.4375 0.328125q-0.421875 0.1875 -0.65625 0.53125q-0.21875 0.34375 -0.21875 0.78125q0 0.65625 0.5 1.09375q0.5 0.4375 1.453125 0.4375q0.9375 0 1.671875 -0.40625q0.75 -0.421875 1.09375 -1.140625q0.265625 -0.5625 0.265625 -1.640625l0 -0.609375zm4.156967 4.859375l0 -13.359375l1.640625 0l0 13.359375l-1.640625 0zm4.644821 -7.8125l0 -1.859375l1.859375 0l0 1.859375l-1.859375 0zm0 7.8125l0 -1.875l1.859375 0l0 1.875l-1.859375 0z" fill-rule="nonzero"/><path fill="#000000" fill-opacity="0.0" d="m426.19684 41.002625l127.653564 0l0 42.015747l-127.653564 0z" fill-rule="evenodd"/><path fill="#000000" d="m436.63434 67.92262l0 -13.359375l5.046875 0q1.328125 0 2.03125 0.125q0.96875 0.171875 1.640625 0.640625q0.671875 0.453125 1.078125 1.28125q0.40625 0.828125 0.40625 1.828125q0 1.703125 -1.09375 2.890625q-1.078125 1.171875 -3.921875 1.171875l-3.421875 0l0 5.421875l-1.765625 0zm1.765625 -7.0l3.453125 0q1.71875 0 2.4375 -0.640625q0.71875 -0.640625 0.71875 -1.796875q0 -0.84375 -0.421875 -1.4375q-0.421875 -0.59375 -1.125 -0.78125q-0.4375 -0.125 -1.640625 -0.125l-3.421875 0l0 4.78125zm17.099823 3.890625l1.6875 0.203125q-0.40625 1.484375 -1.484375 2.3125q-1.078125 0.8125 -2.765625 0.8125q-2.125 0 -3.375 -1.296875q-1.234375 -1.3125 -1.234375 -3.671875q0 -2.453125 1.25 -3.796875q1.265625 -1.34375 3.265625 -1.34375q1.9375 0 3.15625 1.328125q1.234375 1.3125 1.234375 3.703125q0 0.15625 0 0.4375l-7.21875 0q0.09375 1.59375 0.90625 2.453125q0.8125 0.84375 2.015625 0.84375q0.90625 0 1.546875 -0.46875q0.640625 -0.484375 1.015625 -1.515625zm-5.390625 -2.65625l5.40625 0q-0.109375 -1.21875 -0.625 -1.828125q-0.78125 -0.953125 -2.03125 -0.953125q-1.125 0 -1.90625 0.765625q-0.765625 0.75 -0.84375 2.015625zm9.125732 5.765625l0 -9.671875l1.46875 0l0 1.46875q0.5625 -1.03125 1.03125 -1.359375q0.484375 -0.328125 1.0625 -0.328125q0.828125 0 1.6875 0.53125l-0.5625 1.515625q-0.609375 -0.359375 -1.203125 -0.359375q-0.546875 0 -0.96875 0.328125q-0.421875 0.328125 -0.609375 0.890625q-0.28125 0.875 -0.28125 1.921875l0 5.0625l-1.625 0zm5.572052 -2.890625l1.625 -0.25q0.125 0.96875 0.75 1.5q0.625 0.515625 1.75 0.515625q1.125 0 1.671875 -0.453125q0.546875 -0.46875 0.546875 -1.09375q0 -0.546875 -0.484375 -0.875q-0.328125 -0.21875 -1.671875 -0.546875q-1.8125 -0.46875 -2.515625 -0.796875q-0.6875 -0.328125 -1.046875 -0.90625q-0.359375 -0.59375 -0.359375 -1.3125q0 -0.640625 0.296875 -1.1875q0.296875 -0.5625 0.8125 -0.921875q0.375 -0.28125 1.03125 -0.46875q0.671875 -0.203125 1.421875 -0.203125q1.140625 0 2.0 0.328125q0.859375 0.328125 1.265625 0.890625q0.421875 0.5625 0.578125 1.5l-1.609375 0.21875q-0.109375 -0.75 -0.640625 -1.171875q-0.515625 -0.421875 -1.46875 -0.421875q-1.140625 0 -1.625 0.375q-0.46875 0.375 -0.46875 0.875q0 0.3125 0.1875 0.578125q0.203125 0.265625 0.640625 0.4375q0.234375 0.09375 1.4375 0.421875q1.75 0.453125 2.4375 0.75q0.6875 0.296875 1.078125 0.859375q0.390625 0.5625 0.390625 1.40625q0 0.828125 -0.484375 1.546875q-0.46875 0.71875 -1.375 1.125q-0.90625 0.390625 -2.046875 0.390625q-1.875 0 -2.875 -0.78125q-0.984375 -0.78125 -1.25 -2.328125zm9.984375 6.59375l0 -13.375l1.484375 0l0 1.25q0.53125 -0.734375 1.1875 -1.09375q0.671875 -0.375 1.625 -0.375q1.234375 0 2.171875 0.640625q0.953125 0.625 1.4375 1.796875q0.484375 1.15625 0.484375 2.546875q0 1.484375 -0.53125 2.671875q-0.53125 1.1875 -1.546875 1.828125q-1.015625 0.625 -2.140625 0.625q-0.8125 0 -1.46875 -0.34375q-0.65625 -0.34375 -1.0625 -0.875l0 4.703125l-1.640625 0zm1.484375 -8.484375q0 1.859375 0.75 2.765625q0.765625 0.890625 1.828125 0.890625q1.09375 0 1.875 -0.921875q0.78125 -0.9375 0.78125 -2.875q0 -1.84375 -0.765625 -2.765625q-0.75 -0.921875 -1.8125 -0.921875q-1.046875 0 -1.859375 0.984375q-0.796875 0.96875 -0.796875 2.84375zm15.516327 1.671875l1.6875 0.203125q-0.40625 1.484375 -1.484375 2.3125q-1.078125 0.8125 -2.765625 0.8125q-2.125 0 -3.375 -1.296875q-1.234375 -1.3125 -1.234375 -3.671875q0 -2.453125 1.25 -3.796875q1.265625 -1.34375 3.265625 -1.34375q1.9375 0 3.15625 1.328125q1.234375 1.3125 1.234375 3.703125q0 0.15625 0 0.4375l-7.21875 0q0.09375 1.59375 0.90625 2.453125q0.8125 0.84375 2.015625 0.84375q0.90625 0 1.546875 -0.46875q0.640625 -0.484375 1.015625 -1.515625zm-5.390625 -2.65625l5.40625 0q-0.109375 -1.21875 -0.625 -1.828125q-0.78125 -0.953125 -2.03125 -0.953125q-1.125 0 -1.90625 0.765625q-0.765625 0.75 -0.84375 2.015625zm15.453857 2.21875l1.609375 0.21875q-0.265625 1.65625 -1.359375 2.609375q-1.078125 0.9375 -2.671875 0.9375q-1.984375 0 -3.1875 -1.296875q-1.203125 -1.296875 -1.203125 -3.71875q0 -1.578125 0.515625 -2.75q0.515625 -1.171875 1.578125 -1.75q1.0625 -0.59375 2.3125 -0.59375q1.578125 0 2.578125 0.796875q1.0 0.796875 1.28125 2.265625l-1.59375 0.234375q-0.234375 -0.96875 -0.8125 -1.453125q-0.578125 -0.5 -1.390625 -0.5q-1.234375 0 -2.015625 0.890625q-0.78125 0.890625 -0.78125 2.8125q0 1.953125 0.75 2.84375q0.75 0.875 1.953125 0.875q0.96875 0 1.609375 -0.59375q0.65625 -0.59375 0.828125 -1.828125zm6.59375 2.078125l0.234375 1.453125q-0.6875 0.140625 -1.234375 0.140625q-0.890625 0 -1.390625 -0.28125q-0.484375 -0.28125 -0.6875 -0.734375q-0.203125 -0.46875 -0.203125 -1.9375l0 -5.578125l-1.203125 0l0 -1.265625l1.203125 0l0 -2.390625l1.625 -0.984375l0 3.375l1.65625 0l0 1.265625l-1.65625 0l0 5.671875q0 0.6875 0.078125 0.890625q0.09375 0.203125 0.28125 0.328125q0.203125 0.109375 0.578125 0.109375q0.265625 0 0.71875 -0.0625zm1.6051636 -10.0l0 -1.890625l1.640625 0l0 1.890625l-1.640625 0zm0 11.46875l0 -9.671875l1.640625 0l0 9.671875l-1.640625 0zm6.832306 0l-3.6875 -9.671875l1.734375 0l2.078125 5.796875q0.328125 0.9375 0.625 1.9375q0.203125 -0.765625 0.609375 -1.828125l2.140625 -5.90625l1.6875 0l-3.65625 9.671875l-1.53125 0zm13.265625 -3.109375l1.6875 0.203125q-0.40625 1.484375 -1.484375 2.3125q-1.078125 0.8125 -2.765625 0.8125q-2.125 0 -3.375 -1.296875q-1.234375 -1.3125 -1.234375 -3.671875q0 -2.453125 1.25 -3.796875q1.265625 -1.34375 3.265625 -1.34375q1.9375 0 3.15625 1.328125q1.234375 1.3125 1.234375 3.703125q0 0.15625 0 0.4375l-7.21875 0q0.09375 1.59375 0.90625 2.453125q0.8125 0.84375 2.015625 0.84375q0.90625 0 1.546875 -0.46875q0.640625 -0.484375 1.015625 -1.515625zm-5.390625 -2.65625l5.40625 0q-0.109375 -1.21875 -0.625 -1.828125q-0.78125 -0.953125 -2.03125 -0.953125q-1.125 0 -1.90625 0.765625q-0.765625 0.75 -0.84375 2.015625zm9.594482 -2.046875l0 -1.859375l1.859375 0l0 1.859375l-1.859375 0zm0 7.8125l0 -1.875l1.859375 0l0 1.875l-1.859375 0z" fill-rule="nonzero"/><path fill="#000000" fill-opacity="0.0" d="m132.2939 125.07087l0 295.52756" fill-rule="evenodd"/><path stroke="#0097a7" stroke-width="3.0" stroke-linejoin="round" stroke-linecap="butt" d="m132.2939 125.07087l0 295.52756" fill-rule="evenodd"/><path fill="#000000" fill-opacity="0.0" d="m257.88452 297.0525l-102.897644 0" fill-rule="evenodd"/><path stroke="#ffff00" stroke-width="1.0" stroke-linejoin="round" stroke-linecap="butt" d="m257.88452 297.0525l-96.897644 0" fill-rule="evenodd"/><path fill="#ffff00" stroke="#ffff00" stroke-width="1.0" stroke-linecap="butt" d="m160.98688 295.40076l-4.538101 1.6517334l4.538101 1.6517334z" fill-rule="evenodd"/><path fill="#000000" fill-opacity="0.0" d="m257.88452 329.29922l-102.897644 0" fill-rule="evenodd"/><path stroke="#ffff00" stroke-width="1.0" stroke-linejoin="round" stroke-linecap="butt" d="m257.88452 329.29922l-96.897644 0" fill-rule="evenodd"/><path fill="#ffff00" stroke="#ffff00" stroke-width="1.0" stroke-linecap="butt" d="m160.98688 327.6475l-4.538101 1.6517334l4.538101 1.6517334z" fill-rule="evenodd"/><path fill="#000000" fill-opacity="0.0" d="m257.88452 356.90027l-102.897644 0" fill-rule="evenodd"/><path stroke="#ffff00" stroke-width="1.0" stroke-linejoin="round" stroke-linecap="butt" d="m257.88452 356.90027l-96.897644 0" fill-rule="evenodd"/><path fill="#ffff00" stroke="#ffff00" stroke-width="1.0" stroke-linecap="butt" d="m160.98688 355.24854l-4.538101 1.6517334l4.538101 1.6517334z" fill-rule="evenodd"/><path fill="#000000" fill-opacity="0.0" d="m258.41202 185.00645l-102.897644 0" fill-rule="evenodd"/><path stroke="#ffff00" stroke-width="1.0" stroke-linejoin="round" stroke-linecap="butt" d="m258.41202 185.00645l-96.89766 0" fill-rule="evenodd"/><path fill="#ffff00" stroke="#ffff00" stroke-width="1.0" stroke-linecap="butt" d="m161.51436 183.35472l-4.538086 1.6517334l4.538086 1.6517334z" fill-rule="evenodd"/><path fill="#000000" fill-opacity="0.0" d="m258.41202 217.25317l-102.897644 0" fill-rule="evenodd"/><path stroke="#ffff00" stroke-width="1.0" stroke-linejoin="round" stroke-linecap="butt" d="m258.41202 217.25317l-96.89766 0" fill-rule="evenodd"/><path fill="#ffff00" stroke="#ffff00" stroke-width="1.0" stroke-linecap="butt" d="m161.51436 215.60144l-4.538086 1.6517334l4.538086 1.6517334z" fill-rule="evenodd"/><path fill="#000000" fill-opacity="0.0" d="m258.41202 244.85423l-102.897644 0" fill-rule="evenodd"/><path stroke="#ffff00" stroke-width="1.0" stroke-linejoin="round" stroke-linecap="butt" d="m258.41202 244.85423l-96.89766 0" fill-rule="evenodd"/><path fill="#ffff00" stroke="#ffff00" stroke-width="1.0" stroke-linecap="butt" d="m161.51436 243.2025l-4.538086 1.6517334l4.538086 1.6517334z" fill-rule="evenodd"/><path fill="#000000" fill-opacity="0.0" d="m802.80835 161.30568l-187.77954 92.44093" fill-rule="evenodd"/><path stroke="#ffff00" stroke-width="1.0" stroke-linejoin="round" stroke-linecap="butt" d="m802.8083 161.30568l-182.39642 89.79094" fill-rule="evenodd"/><path fill="#ffff00" stroke="#ffff00" stroke-width="1.0" stroke-linecap="butt" d="m619.6824 249.61472l-3.34198 3.4862213l4.8009644 -0.5224304z" fill-rule="evenodd"/><path fill="#000000" fill-opacity="0.0" d="m797.6221 205.01312l-181.03937 54.92914" fill-rule="evenodd"/><path stroke="#ffff00" stroke-width="1.0" stroke-linejoin="round" stroke-linecap="butt" d="m797.6221 205.01312l-175.29785 53.187103" fill-rule="evenodd"/><path fill="#ffff00" stroke="#ffff00" stroke-width="1.0" stroke-linecap="butt" d="m621.84467 256.61963l-3.863037 2.8981934l4.8221436 0.26296997z" fill-rule="evenodd"/><path fill="#000000" fill-opacity="0.0" d="m795.3018 247.5643l-173.29132 17.795288" fill-rule="evenodd"/><path stroke="#ffff00" stroke-width="1.0" stroke-linejoin="round" stroke-linecap="butt" d="m795.3018 247.5643l-167.3227 17.182343" fill-rule="evenodd"/><path fill="#ffff00" stroke="#ffff00" stroke-width="1.0" stroke-linecap="butt" d="m627.81036 263.10358l-4.345581 2.106659l4.6830444 1.1795349z" fill-rule="evenodd"/><path fill="#000000" fill-opacity="0.0" d="m800.9921 380.6258l-187.77954 -92.787384" fill-rule="evenodd"/><path stroke="#ffff00" stroke-width="1.0" stroke-linejoin="round" stroke-linecap="butt" d="m800.9921 380.62582l-182.40039 -90.129425" fill-rule="evenodd"/><path fill="#ffff00" stroke="#ffff00" stroke-width="1.0" stroke-linecap="butt" d="m619.3234 289.01556l-4.800171 -0.529541l3.336792 3.4911804z" fill-rule="evenodd"/><path fill="#000000" fill-opacity="0.0" d="m795.80585 336.75687l-181.03937 -55.118103" fill-rule="evenodd"/><path stroke="#ffff00" stroke-width="1.0" stroke-linejoin="round" stroke-linecap="butt" d="m795.80585 336.75687l-175.2995 -53.370575" fill-rule="evenodd"/><path fill="#ffff00" stroke="#ffff00" stroke-width="1.0" stroke-linecap="butt" d="m620.9874 281.80615l-4.8223877 0.25839233l3.8602295 2.9018555z" fill-rule="evenodd"/><path fill="#000000" fill-opacity="0.0" d="m793.48566 294.0485l-173.29138 -17.858276" fill-rule="evenodd"/><path stroke="#ffff00" stroke-width="1.0" stroke-linejoin="round" stroke-linecap="butt" d="m793.48566 294.0485l-167.323 -17.243225" fill-rule="evenodd"/><path fill="#ffff00" stroke="#ffff00" stroke-width="1.0" stroke-linecap="butt" d="m626.33203 275.16226l-4.6835327 1.1778259l4.3449097 2.1082458z" fill-rule="evenodd"/><path fill="#000000" fill-opacity="0.0" d="m811.4934 403.5118l-223.52753 -124.52051l0 -17.982605l223.52753 -124.52051z" fill-rule="evenodd"/><path stroke="#4a86e8" stroke-width="3.0" stroke-linejoin="round" stroke-linecap="butt" d="m811.4934 403.5118l-223.52753 -124.52051l0 -17.982605l223.52753 -124.52051z" fill-rule="evenodd"/></g></svg>