<svg version="1.1" viewBox="0.0 0.0 960.0 540.0" fill="none" stroke="none" stroke-linecap="square" stroke-miterlimit="10" xmlns:xlink="http://www.w3.org/1999/xlink" xmlns="http://www.w3.org/2000/svg"><clipPath id="geb29e0b88b_0_246.0"><path d="m0 0l960.0 0l0 540.0l-960.0 0l0 -540.0z" clip-rule="nonzero"/></clipPath><g clip-path="url(#geb29e0b88b_0_246.0)"><path fill="#ffffff" d="m0 0l960.0 0l0 540.0l-960.0 0z" fill-rule="evenodd"/><path fill="#000000" fill-opacity="0.0" d="m429.25232 422.65387l228.31494 -76.566925" fill-rule="evenodd"/><path stroke="#4a86e8" stroke-width="3.0" stroke-linejoin="round" stroke-linecap="butt" d="m429.25232 422.65387l228.31494 -76.566925" fill-rule="evenodd"/><path fill="#000000" fill-opacity="0.0" d="m484.81628 268.58215l170.39368 76.62991" fill-rule="evenodd"/><path stroke="#4a86e8" stroke-width="3.0" stroke-linejoin="round" stroke-linecap="butt" d="m484.81628 268.58215l170.39368 76.62991" fill-rule="evenodd"/><path fill="#000000" fill-opacity="0.0" d="m261.34628 346.1682l228.31497 -76.566925" fill-rule="evenodd"/><path stroke="#4a86e8" stroke-width="3.0" stroke-linejoin="round" stroke-linecap="butt" d="m261.34628 346.1682l228.31497 -76.566925" fill-rule="evenodd"/><path fill="#000000" fill-opacity="0.0" d="m263.59482 345.452l170.39368 76.62991" fill-rule="evenodd"/><path stroke="#4a86e8" stroke-width="3.0" stroke-linejoin="round" stroke-linecap="butt" d="m263.59482 345.452l170.39368 76.62991" fill-rule="evenodd"/><path fill="#000000" fill-opacity="0.0" d="m352.74182 189.2447l322.07874 -108.062996" fill-rule="evenodd"/><path stroke="#595959" stroke-width="1.0" stroke-linejoin="round" stroke-linecap="butt" d="m352.74185 189.24469l316.39035 -106.15444" fill-rule="evenodd"/><path fill="#595959" stroke="#595959" stroke-width="1.0" stroke-linecap="butt" d="m669.6576 84.6562l3.7770386 -3.0094757l-4.82782 -0.122413635z" fill-rule="evenodd"/><path fill="#000000" fill-opacity="0.0" d="m327.58487 98.93098l374.0472 176.91339" fill-rule="evenodd"/><path stroke="#595959" stroke-width="1.0" stroke-linejoin="round" stroke-linecap="butt" d="m327.58484 98.93098l368.6234 174.34805" fill-rule="evenodd"/><path fill="#595959" stroke="#595959" stroke-width="1.0" stroke-linecap="butt" d="m695.502 274.77216l4.8085938 0.44717407l-3.3961792 -3.4334717z" fill-rule="evenodd"/><path fill="#000000" fill-opacity="0.0" d="m693.11383 268.3681l65.85828 0l0 42.015747l-65.85828 0z" fill-rule="evenodd"/><path fill="#000000" d="m703.2701 299.00684l-0.1875 -1.53125q0.546875 0.140625 0.9375 0.140625q0.546875 0 0.875 -0.1875q0.328125 -0.171875 0.546875 -0.5q0.15625 -0.25 0.5 -1.21875q0.046875 -0.140625 0.140625 -0.40625l-3.671875 -9.6875l1.765625 0l2.015625 5.59375q0.390625 1.078125 0.703125 2.25q0.28125 -1.125 0.671875 -2.203125l2.078125 -5.640625l1.640625 0l-3.6875 9.828125q-0.59375 1.609375 -0.921875 2.203125q-0.4375 0.8125 -1.0 1.1875q-0.5625 0.375 -1.34375 0.375q-0.484375 0 -1.0625 -0.203125z" fill-rule="nonzero"/><path fill="#000000" d="m722.4847 291.0537l0 1.265625l3.5 0l0 1.40625l-3.5 0l0 3.203125l-1.25 0l0 -3.203125l-3.71875 0l0 -1.40625l3.71875 0l0 -1.265625l-1.484375 0l-1.265625 0l0 -6.3125l2.75 0l0 -1.328125l-3.421875 0l0 -1.40625l3.421875 0l0 -2.015625l1.1875 0q0.59375 0.078125 0.0625 0.453125l0 1.5625l3.265625 0l0 1.40625l-3.265625 0l0 1.328125l2.75 0l0 6.3125l-2.75 0zm1.484375 -3.78125l0 -1.34375l-1.484375 0l0 1.34375l1.484375 0zm-2.734375 0l0 -1.34375l-1.484375 0l0 1.34375l1.484375 0zm0 2.59375l0 -1.40625l-1.484375 0l0 1.40625l1.484375 0zm2.734375 0l0 -1.40625l-1.484375 0l0 1.40625l1.484375 0zm6.828125 -9.578125q0.59375 0.078125 0.078125 0.453125l0 3.265625l3.34375 0l0 12.390625l-1.484375 0l0 -0.734375l-4.828125 0l0 0.890625l-1.484375 0l0 -12.546875l3.1875 0l0 -3.71875l1.1875 0zm-1.1875 8.6875l0 -3.5625l-1.703125 0l0 3.5625l1.703125 0zm0 5.265625l0 -3.859375l-1.703125 0l0 3.859375l1.703125 0zm3.125 0l0 -3.859375l-1.859375 0l0 3.859375l1.859375 0zm0 -5.265625l0 -3.5625l-1.859375 0l0 3.5625l1.859375 0z" fill-rule="nonzero"/><path fill="#000000" fill-opacity="0.0" d="m665.0913 46.459957l56.06299 0l0 42.01575l-56.06299 0z" fill-rule="evenodd"/><path fill="#000000" d="m674.23193 73.37995l3.53125 -5.03125l-3.265625 -4.640621l2.046875 0l1.484375 2.2656212q0.421875 0.640625 0.671875 1.078125q0.40625 -0.59375 0.734375 -1.0625l1.640625 -2.2812462l1.953125 0l-3.34375 4.546871l3.59375 5.125l-2.015625 0l-1.984375 -3.0l-0.515625 -0.8125l-2.546875 3.8125l-1.984375 0z" fill-rule="nonzero"/><path fill="#000000" d="m694.4621 69.14558l0 1.265625l3.5 0l0 1.40625l-3.5 0l0 3.203125l-1.25 0l0 -3.203125l-3.71875 0l0 -1.40625l3.71875 0l0 -1.265625l-1.484375 0l-1.265625 0l0 -6.312496l2.75 0l0 -1.328125l-3.421875 0l0 -1.40625l3.421875 0l0 -2.015625l1.1875 0q0.59375 0.078125 0.0625 0.453125l0 1.5625l3.265625 0l0 1.40625l-3.265625 0l0 1.328125l2.75 0l0 6.312496l-2.75 0zm1.484375 -3.78125l0 -1.34375l-1.484375 0l0 1.34375l1.484375 0zm-2.734375 0l0 -1.34375l-1.484375 0l0 1.34375l1.484375 0zm0 2.59375l0 -1.40625l-1.484375 0l0 1.40625l1.484375 0zm2.734375 0l0 -1.40625l-1.484375 0l0 1.40625l1.484375 0zm6.828125 -9.578121q0.59375 0.078125 0.078125 0.453125l0 3.265625l3.34375 0l0 12.390621l-1.484375 0l0 -0.734375l-4.828125 0l0 0.890625l-1.484375 0l0 -12.546871l3.1875 0l0 -3.71875l1.1875 0zm-1.1875 8.687496l0 -3.5624962l-1.703125 0l0 3.5624962l1.703125 0zm0 5.265625l0 -3.859375l-1.703125 0l0 3.859375l1.703125 0zm3.125 0l0 -3.859375l-1.859375 0l0 3.859375l1.859375 0zm0 -5.265625l0 -3.5624962l-1.859375 0l0 3.5624962l1.859375 0z" fill-rule="nonzero"/><path fill="#000000" fill-opacity="0.0" d="m423.43542 37.28279l64.28348 0l0 42.015747l-64.28348 0z" fill-rule="evenodd"/><path fill="#000000" d="m432.7948 64.20279l0 -1.328125l6.15625 -7.078125q-1.046875 0.0625 -1.84375 0.0625l-3.9375 0l0 -1.328125l7.90625 0l0 1.078125l-5.25 6.140625l-1.0 1.125q1.09375 -0.078125 2.0625 -0.078125l4.46875 0l0 1.40625l-8.5625 0z" fill-rule="nonzero"/><path fill="#000000" d="m452.80624 59.968414l0 1.265625l3.5 0l0 1.40625l-3.5 0l0 3.203125l-1.25 0l0 -3.203125l-3.71875 0l0 -1.40625l3.71875 0l0 -1.265625l-1.484375 0l-1.265625 0l0 -6.3125l2.75 0l0 -1.328125l-3.421875 0l0 -1.40625l3.421875 0l0 -2.015625l1.1875 0q0.59375 0.078125 0.0625 0.453125l0 1.5625l3.265625 0l0 1.40625l-3.265625 0l0 1.328125l2.75 0l0 6.3125l-2.75 0zm1.484375 -3.78125l0 -1.34375l-1.484375 0l0 1.34375l1.484375 0zm-2.734375 0l0 -1.34375l-1.484375 0l0 1.34375l1.484375 0zm0 2.59375l0 -1.40625l-1.484375 0l0 1.40625l1.484375 0zm2.734375 0l0 -1.40625l-1.484375 0l0 1.40625l1.484375 0zm6.828125 -9.578125q0.59375 0.078125 0.078125 0.453125l0 3.265625l3.34375 0l0 12.390625l-1.484375 0l0 -0.734375l-4.828125 0l0 0.890625l-1.484375 0l0 -12.546875l3.1875 0l0 -3.71875l1.1875 0zm-1.1875 8.6875l0 -3.5625l-1.703125 0l0 3.5625l1.703125 0zm0 5.265625l0 -3.859375l-1.703125 0l0 3.859375l1.703125 0zm3.125 0l0 -3.859375l-1.859375 0l0 3.859375l1.859375 0zm0 -5.265625l0 -3.5625l-1.859375 0l0 3.5625l1.859375 0z" fill-rule="nonzero"/><path fill="#000000" fill-opacity="0.0" d="m364.3937 326.8704l104.31494 49.07086" fill-rule="evenodd"/><path stroke="#6bde99" stroke-width="4.0" stroke-linejoin="round" stroke-linecap="butt" d="m364.3937 326.8704l104.31494 49.07086" fill-rule="evenodd"/><path fill="#000000" fill-opacity="0.0" d="m489.4832 367.90485l0.12597656 -25.574799" fill-rule="evenodd"/><path stroke="#6bde99" stroke-width="4.0" stroke-linejoin="round" stroke-linecap="butt" d="m489.4832 367.90485l0.12597656 -25.574799" fill-rule="evenodd"/><path fill="#000000" fill-opacity="0.0" d="m364.3937 301.71344l105.165344 50.299225" fill-rule="evenodd"/><path stroke="#6bde99" stroke-width="4.0" stroke-linejoin="round" stroke-linecap="butt" d="m364.3937 301.71344l105.165344 50.299225" fill-rule="evenodd"/><path fill="#000000" fill-opacity="0.0" d="m467.4902 375.945l21.984253 -7.4330444" fill-rule="evenodd"/><path stroke="#6bde99" stroke-width="4.0" stroke-linejoin="round" stroke-linecap="butt" d="m467.4902 375.945l21.984253 -7.4330444" fill-rule="evenodd"/><path fill="#000000" fill-opacity="0.0" d="m468.72073 377.1766l0.12600708 -25.57483" fill-rule="evenodd"/><path stroke="#6bde99" stroke-width="4.0" stroke-linejoin="round" stroke-linecap="butt" d="m468.72073 377.1766l0.12600708 -25.57483" fill-rule="evenodd"/><path fill="#000000" fill-opacity="0.0" d="m418.12268 292.50995l28.031494 -9.102386" fill-rule="evenodd"/><path stroke="#6bde99" stroke-width="4.0" stroke-linejoin="round" stroke-linecap="butt" d="m418.12268 292.50995l28.031494 -9.102386" fill-rule="evenodd"/><path fill="#000000" fill-opacity="0.0" d="m418.12207 292.09338l14.86615 6.582672" fill-rule="evenodd"/><path stroke="#6bde99" stroke-width="4.0" stroke-linejoin="round" stroke-linecap="butt" d="m418.12207 292.09338l14.86615 6.582672" fill-rule="evenodd"/><path fill="#000000" fill-opacity="0.0" d="m446.15976 284.66983l14.86615 6.582672" fill-rule="evenodd"/><path stroke="#6bde99" stroke-width="4.0" stroke-linejoin="round" stroke-linecap="butt" d="m446.15976 284.66983l14.86615 6.582672" fill-rule="evenodd"/><path fill="#000000" fill-opacity="0.0" d="m434.07648 299.93347l28.031494 -9.102356" fill-rule="evenodd"/><path stroke="#6bde99" stroke-width="4.0" stroke-linejoin="round" stroke-linecap="butt" d="m434.07648 299.93347l28.031494 -9.102356" fill-rule="evenodd"/><path fill="#000000" fill-opacity="0.0" d="m363.97458 301.7138l88.25198 -29.259857" fill-rule="evenodd"/><path stroke="#6bde99" stroke-width="4.0" stroke-linejoin="round" stroke-linecap="butt" d="m363.97458 301.7138l88.25198 -29.259857" fill-rule="evenodd"/><path fill="#000000" fill-opacity="0.0" d="m467.4902 351.60794l21.984253 -7.433075" fill-rule="evenodd"/><path stroke="#6bde99" stroke-width="4.0" stroke-linejoin="round" stroke-linecap="butt" d="m467.4902 351.60794l21.984253 -7.433075" fill-rule="evenodd"/><path fill="#000000" fill-opacity="0.0" d="m425.83875 312.4315l65.85828 31.748047" fill-rule="evenodd"/><path stroke="#6bde99" stroke-width="4.0" stroke-linejoin="round" stroke-linecap="butt" d="m425.83875 312.4315l65.85828 31.748047" fill-rule="evenodd"/><path fill="#000000" fill-opacity="0.0" d="m455.53156 327.2772l37.543304 -12.37796" fill-rule="evenodd"/><path stroke="#6bde99" stroke-width="4.0" stroke-linejoin="round" stroke-linecap="butt" d="m455.53156 327.2772l37.543304 -12.37796" fill-rule="evenodd"/><path fill="#000000" fill-opacity="0.0" d="m426.6642 312.84283l65.5748 -23.527588" fill-rule="evenodd"/><path stroke="#6bde99" stroke-width="4.0" stroke-linejoin="round" stroke-linecap="butt" d="m426.6642 312.84283l65.5748 -23.527588" fill-rule="evenodd"/><path fill="#000000" fill-opacity="0.0" d="m491.70212 314.90613l0.12600708 -25.574799" fill-rule="evenodd"/><path stroke="#6bde99" stroke-width="4.0" stroke-linejoin="round" stroke-linecap="butt" d="m491.70212 314.90613l0.12600708 -25.574799" fill-rule="evenodd"/><path fill="#000000" fill-opacity="0.0" d="m452.49976 272.6296l39.338562 17.51181" fill-rule="evenodd"/><path stroke="#6bde99" stroke-width="4.0" stroke-linejoin="round" stroke-linecap="butt" d="m452.49976 272.6296l39.338562 17.51181" fill-rule="evenodd"/><path fill="#000000" fill-opacity="0.0" d="m426.2515 313.25555l65.44882 30.929138" fill-rule="evenodd"/><path stroke="#6bde99" stroke-width="4.0" stroke-linejoin="round" stroke-linecap="butt" d="m426.2515 313.25555l65.44882 30.929138" fill-rule="evenodd"/><path fill="#000000" fill-opacity="0.0" d="m364.11667 327.28278l0.12600708 -25.574799" fill-rule="evenodd"/><path stroke="#6bde99" stroke-width="4.0" stroke-linejoin="round" stroke-linecap="butt" d="m364.11667 327.28278l0.12600708 -25.574799" fill-rule="evenodd"/><path fill="#000000" fill-opacity="0.0" d="m320.84647 461.82153l20.952759 0l0 22.149597l-20.952759 0z" fill-rule="evenodd"/><path fill="#000000" fill-opacity="0.0" d="m341.79922 461.82153l6.984253 -6.984253l0 22.149597l-6.984253 6.984253z" fill-rule="evenodd"/><path fill="#000000" fill-opacity="0.0" d="m320.84647 461.82153l6.984253 -6.984253l20.952759 0l-6.984253 6.984253z" fill-rule="evenodd"/><path fill="#000000" fill-opacity="0.0" d="m320.84647 461.82153l6.984253 -6.984253l20.952759 0l0 22.149597l-6.984253 6.984253l-20.952759 0zm0 0l20.952759 0l6.984253 -6.984253m-6.984253 6.984253l0 22.149597" fill-rule="evenodd"/><path fill="#000000" fill-opacity="0.2" d="m341.79922 461.82153l6.984253 -6.984253l0 22.149597l-6.984253 6.984253z" fill-rule="evenodd"/><path fill="#ffffff" fill-opacity="0.2" d="m320.84647 461.82153l6.984253 -6.984253l20.952759 0l-6.984253 6.984253z" fill-rule="evenodd"/><path stroke="#4a86e8" stroke-width="3.0" stroke-linejoin="round" stroke-linecap="butt" d="m320.84647 461.82153l6.984253 -6.984253l20.952759 0l0 22.149597l-6.984253 6.984253l-20.952759 0zm0 0l20.952759 0l6.984253 -6.984253m-6.984253 6.984253l0 22.149597" fill-rule="evenodd"/><path fill="#000000" fill-opacity="0.0" d="m345.37402 448.39633l136.09448 0l0 42.015747l-136.09448 0z" fill-rule="evenodd"/><path fill="#4a86e8" d="m358.2334 465.84756l2.484375 0l0 2.421875l-2.484375 0l0 -2.421875zm0 6.828125l2.484375 0l0 2.421875l-2.484375 0l0 -2.421875z" fill-rule="nonzero"/><path fill="#4a86e8" d="m365.24902 475.3163l0 -13.359375l9.15625 0l0 2.265625l-6.453125 0l0 3.15625l5.5625 0l0 2.265625l-5.5625 0l0 5.671875l-2.703125 0zm13.817841 0l-2.5625 0l0 -9.671875l2.375 0l0 1.375q0.609375 -0.984375 1.09375 -1.28125q0.484375 -0.3125 1.109375 -0.3125q0.875 0 1.6875 0.484375l-0.796875 2.234375q-0.640625 -0.421875 -1.203125 -0.421875q-0.53125 0 -0.90625 0.296875q-0.375 0.296875 -0.59375 1.078125q-0.203125 0.765625 -0.203125 3.234375l0 2.984375zm11.166534 0l0 -1.453125q-0.53125 0.78125 -1.390625 1.234375q-0.859375 0.4375 -1.8125 0.4375q-0.96875 0 -1.75 -0.421875q-0.765625 -0.4375 -1.125 -1.203125q-0.34375 -0.78125 -0.34375 -2.140625l0 -6.125l2.5625 0l0 4.4375q0 2.046875 0.140625 2.515625q0.140625 0.453125 0.515625 0.71875q0.375 0.265625 0.953125 0.265625q0.65625 0 1.171875 -0.359375q0.515625 -0.359375 0.703125 -0.890625q0.203125 -0.53125 0.203125 -2.609375l0 -4.078125l2.546875 0l0 9.671875l-2.375 0zm4.1303406 -2.765625l2.5625 -0.390625q0.171875 0.75 0.671875 1.140625q0.5 0.390625 1.40625 0.390625q0.984375 0 1.484375 -0.375q0.34375 -0.25 0.34375 -0.671875q0 -0.296875 -0.1875 -0.484375q-0.1875 -0.1875 -0.859375 -0.34375q-3.09375 -0.6875 -3.921875 -1.25q-1.140625 -0.78125 -1.140625 -2.171875q0 -1.265625 0.984375 -2.109375q1.0 -0.859375 3.078125 -0.859375q1.984375 0 2.953125 0.65625q0.96875 0.640625 1.328125 1.90625l-2.40625 0.4375q-0.15625 -0.5625 -0.59375 -0.859375q-0.421875 -0.296875 -1.234375 -0.296875q-1.0 0 -1.4375 0.28125q-0.296875 0.203125 -0.296875 0.515625q0 0.265625 0.25 0.46875q0.34375 0.25 2.390625 0.71875q2.046875 0.453125 2.859375 1.140625q0.796875 0.671875 0.796875 1.890625q0 1.34375 -1.109375 2.296875q-1.109375 0.953125 -3.28125 0.953125q-1.984375 0 -3.140625 -0.796875q-1.140625 -0.8125 -1.5 -2.1875zm15.719482 -6.90625l0 2.03125l-1.75 0l0 3.90625q0 1.1875 0.046875 1.390625q0.046875 0.1875 0.21875 0.3125q0.1875 0.125 0.4375 0.125q0.359375 0 1.03125 -0.25l0.21875 2.0q-0.890625 0.375 -2.015625 0.375q-0.703125 0 -1.265625 -0.234375q-0.546875 -0.234375 -0.8125 -0.59375q-0.25 -0.375 -0.34375 -1.0q-0.09375 -0.453125 -0.09375 -1.8125l0 -4.21875l-1.171875 0l0 -2.03125l1.171875 0l0 -1.921875l2.578125 -1.5l0 3.421875l1.75 0zm8.134552 9.671875l0 -1.453125q-0.53125 0.78125 -1.390625 1.234375q-0.859375 0.4375 -1.8125 0.4375q-0.96875 0 -1.75 -0.421875q-0.765625 -0.4375 -1.125 -1.203125q-0.34375 -0.78125 -0.34375 -2.140625l0 -6.125l2.5625 0l0 4.4375q0 2.046875 0.140625 2.515625q0.140625 0.453125 0.515625 0.71875q0.375 0.265625 0.953125 0.265625q0.65625 0 1.171875 -0.359375q0.515625 -0.359375 0.703125 -0.890625q0.203125 -0.53125 0.203125 -2.609375l0 -4.078125l2.546875 0l0 9.671875l-2.375 0zm4.8334656 -9.671875l2.359375 0l0 1.3125q1.265625 -1.53125 3.015625 -1.53125q0.9375 0 1.609375 0.390625q0.6875 0.375 1.125 1.140625q0.640625 -0.765625 1.375 -1.140625q0.75 -0.390625 1.578125 -0.390625q1.0625 0 1.796875 0.4375q0.75 0.421875 1.109375 1.265625q0.265625 0.625 0.265625 2.0l0 6.1875l-2.5625 0l0 -5.53125q0 -1.4375 -0.265625 -1.859375q-0.34375 -0.546875 -1.09375 -0.546875q-0.53125 0 -1.015625 0.328125q-0.46875 0.328125 -0.671875 0.96875q-0.203125 0.625 -0.203125 2.0l0 4.640625l-2.5625 0l0 -5.296875q0 -1.421875 -0.140625 -1.828125q-0.140625 -0.40625 -0.421875 -0.609375q-0.28125 -0.203125 -0.78125 -0.203125q-0.59375 0 -1.0625 0.328125q-0.46875 0.3125 -0.6875 0.921875q-0.203125 0.59375 -0.203125 1.984375l0 4.703125l-2.5625 0l0 -9.671875z" fill-rule="nonzero"/><path fill="#000000" fill-opacity="0.0" d="m478.30316 461.82153l20.952759 0l0 22.149597l-20.952759 0z" fill-rule="evenodd"/><path fill="#000000" fill-opacity="0.0" d="m499.25592 461.82153l6.9842224 -6.984253l0 22.149597l-6.9842224 6.984253z" fill-rule="evenodd"/><path fill="#000000" fill-opacity="0.0" d="m478.30316 461.82153l6.984253 -6.984253l20.952728 0l-6.9842224 6.984253z" fill-rule="evenodd"/><path fill="#000000" fill-opacity="0.0" d="m478.30316 461.82153l6.984253 -6.984253l20.952728 0l0 22.149597l-6.9842224 6.984253l-20.952759 0zm0 0l20.952759 0l6.9842224 -6.984253m-6.9842224 6.984253l0 22.149597" fill-rule="evenodd"/><path fill="#000000" fill-opacity="0.2" d="m499.25592 461.82153l6.9842224 -6.984253l0 22.149597l-6.9842224 6.984253z" fill-rule="evenodd"/><path fill="#ffffff" fill-opacity="0.2" d="m478.30316 461.82153l6.984253 -6.984253l20.952728 0l-6.9842224 6.984253z" fill-rule="evenodd"/><path stroke="#6bde99" stroke-width="4.0" stroke-linejoin="round" stroke-linecap="butt" d="m478.30316 461.82153l6.984253 -6.984253l20.952728 0l0 22.149597l-6.9842224 6.984253l-20.952759 0zm0 0l20.952759 0l6.9842224 -6.984253m-6.9842224 6.984253l0 22.149597" fill-rule="evenodd"/><path fill="#000000" fill-opacity="0.0" d="m503.05957 448.39633l136.09448 0l0 42.015747l-136.09448 0z" fill-rule="evenodd"/><path fill="#6bde99" d="m515.91895 465.84756l2.484375 0l0 2.421875l-2.484375 0l0 -2.421875zm0 6.828125l2.484375 0l0 2.421875l-2.484375 0l0 -2.421875z" fill-rule="nonzero"/><path fill="#6bde99" d="m522.2627 471.76944l2.46875 -0.296875q0.125 0.953125 0.640625 1.453125q0.53125 0.5 1.265625 0.5q0.78125 0 1.328125 -0.59375q0.546875 -0.609375 0.546875 -1.640625q0 -0.953125 -0.53125 -1.515625q-0.515625 -0.578125 -1.25 -0.578125q-0.5 0 -1.1875 0.203125l0.28125 -2.09375q1.046875 0.03125 1.59375 -0.4375q0.546875 -0.484375 0.546875 -1.28125q0 -0.671875 -0.40625 -1.078125q-0.390625 -0.40625 -1.0625 -0.40625q-0.65625 0 -1.125 0.46875q-0.453125 0.453125 -0.5625 1.328125l-2.359375 -0.40625q0.25 -1.203125 0.734375 -1.921875q0.5 -0.734375 1.390625 -1.140625q0.890625 -0.421875 2.0 -0.421875q1.875 0 3.015625 1.203125q0.9375 0.984375 0.9375 2.21875q0 1.765625 -1.921875 2.8125q1.15625 0.234375 1.84375 1.09375q0.6875 0.859375 0.6875 2.0625q0 1.765625 -1.296875 3.015625q-1.28125 1.234375 -3.1875 1.234375q-1.8125 0 -3.015625 -1.046875q-1.1875 -1.046875 -1.375 -2.734375zm11.016357 -9.8125l4.9375 0q1.65625 0 2.53125 0.265625q1.1875 0.34375 2.015625 1.234375q0.84375 0.875 1.28125 2.15625q0.4375 1.28125 0.4375 3.15625q0 1.640625 -0.40625 2.84375q-0.5 1.453125 -1.4375 2.359375q-0.703125 0.671875 -1.890625 1.0625q-0.890625 0.28125 -2.390625 0.28125l-5.078125 0l0 -13.359375zm2.703125 2.265625l0 8.84375l2.015625 0q1.125 0 1.625 -0.125q0.65625 -0.171875 1.078125 -0.5625q0.4375 -0.390625 0.703125 -1.28125q0.28125 -0.90625 0.28125 -2.453125q0 -1.546875 -0.28125 -2.375q-0.265625 -0.828125 -0.765625 -1.28125q-0.484375 -0.46875 -1.234375 -0.640625q-0.5625 -0.125 -2.21875 -0.125l-1.203125 0z" fill-rule="nonzero"/><path fill="#6bde99" d="m554.5447 462.8788l0.359375 0l0 -3.78125l1.828125 0q1.609375 0.21875 0.4375 1.03125l0 2.75l2.078125 0l0 2.1875l-2.078125 0l0 3.125l1.78125 -0.6875l0.59375 2.0l-2.375 1.015625l0 6.5l-2.265625 0l0 -5.71875l-1.5625 0.5q-0.125 1.078125 -1.0625 0.140625l-0.6875 -2.109375l3.3125 -0.921875l0 -3.84375l-0.53125 0q-0.109375 1.109375 -0.6875 2.859375l-2.15625 -0.78125q1.0 -2.890625 1.0 -6.40625l2.0625 0.3125q0.65625 0.6875 0.03125 1.046875l-0.078125 0.78125zm14.421875 -0.140625l-0.078125 9.515625q0 4.328125 -2.609375 4.328125l-2.484375 0l-0.4375 -2.421875l2.34375 0q0.921875 0.109375 0.921875 -1.90625l0.078125 -7.328125l-0.03125 0q0.0625 6.328125 -6.9375 12.21875l-1.421875 -2.0q5.65625 -4.203125 6.125 -10.21875l-0.40625 0q-0.28125 4.328125 -4.921875 8.171875l-1.5625 -1.875q3.90625 -3.03125 4.28125 -6.296875l-0.484375 0q-0.734375 1.8125 -2.28125 3.53125l-1.890625 -1.328125q2.796875 -3.421875 3.4375 -7.875l2.0625 0.390625q0.9375 0.921875 -0.0625 1.078125q-0.1875 1.015625 -0.484375 2.015625l6.84375 0zm10.859375 -0.53125q-0.03125 0.25 -0.296875 1.34375l1.421875 0l0 -4.078125l1.8125 0q1.625 0.171875 0.453125 1.03125l0 3.046875l3.640625 0l0 2.1875l-3.640625 0l0 2.9375l5.125 0l0 2.1875l-5.125 0l0 6.015625l-2.265625 0l0 -6.015625l-5.5 0l0 -2.1875l5.5 0l0 -2.9375l-2.09375 0q-0.65625 1.8125 -2.015625 3.359375l-1.828125 -1.703125q2.3125 -2.921875 2.546875 -6.828125l2.34375 0.5625q0.921875 0.921875 -0.078125 1.078125zm-4.546875 14.75l-2.265625 0l0.109375 -8.5q0.078125 0.078125 -1.0625 1.421875l-1.703125 -1.9375q2.96875 -3.421875 3.515625 -8.703125l2.0 0.390625q1.5625 0.46875 0.25 1.03125q-0.421875 2.265625 -1.015625 3.671875l0.125 -0.0625q0.640625 0.640625 0.046875 1.0l0 11.6875z" fill-rule="nonzero"/><path fill="#000000" fill-opacity="0.0" d="m403.5627 201.54358l55.18109 -18.456696" fill-rule="evenodd"/><path stroke="#4a86e8" stroke-width="3.0" stroke-linejoin="round" stroke-linecap="butt" d="m403.5627 201.54358l55.18109 -18.456696" fill-rule="evenodd"/><path fill="#000000" fill-opacity="0.0" d="m263.8725 345.47037l186.20474 -188.8819" fill-rule="evenodd"/><path stroke="#4a86e8" stroke-width="1.0" stroke-linejoin="round" stroke-linecap="butt" d="m263.8725 345.47037l186.20474 -188.8819" fill-rule="evenodd"/><path fill="#000000" fill-opacity="0.0" d="m654.8124 346.7922l-204.50397 -188.88188" fill-rule="evenodd"/><path stroke="#4a86e8" stroke-width="1.0" stroke-linejoin="round" stroke-linecap="butt" d="m654.8124 346.7922l-204.50397 -188.88188" fill-rule="evenodd"/><path fill="#000000" fill-opacity="0.0" d="m485.75922 270.18777l-35.653534 -112.220474" fill-rule="evenodd"/><path stroke="#4a86e8" stroke-width="1.0" stroke-linejoin="round" stroke-linecap="butt" d="m485.75922 270.18777l-35.653534 -112.220474" fill-rule="evenodd"/><path fill="#000000" fill-opacity="0.0" d="m457.53665 182.80362l41.13385 18.48819" fill-rule="evenodd"/><path stroke="#4a86e8" stroke-width="3.0" stroke-linejoin="round" stroke-linecap="butt" d="m457.53665 182.80362l41.13385 18.48819" fill-rule="evenodd"/><path fill="#000000" fill-opacity="0.0" d="m404.10577 201.37059l41.13388 18.48819" fill-rule="evenodd"/><path stroke="#4a86e8" stroke-width="3.0" stroke-linejoin="round" stroke-linecap="butt" d="m404.10577 201.37059l41.13388 18.48819" fill-rule="evenodd"/><path fill="#000000" fill-opacity="0.0" d="m265.18988 345.47037l141.35434 -145.29134" fill-rule="evenodd"/><path stroke="#4a86e8" stroke-width="3.0" stroke-linejoin="round" stroke-linecap="butt" d="m265.18988 345.47037l141.35434 -145.29134" fill-rule="evenodd"/><path fill="#000000" fill-opacity="0.0" d="m432.92563 422.0748l11.874023 -202.07874" fill-rule="evenodd"/><path stroke="#4a86e8" stroke-width="3.0" stroke-linejoin="round" stroke-linecap="butt" d="m432.92563 422.0748l11.874023 -202.07874" fill-rule="evenodd"/><path fill="#000000" fill-opacity="0.0" d="m654.8124 345.47037l-155.81107 -143.93701" fill-rule="evenodd"/><path stroke="#4a86e8" stroke-width="3.0" stroke-linejoin="round" stroke-linecap="butt" d="m654.8124 345.47037l-155.81107 -143.93701" fill-rule="evenodd"/><path fill="#000000" fill-opacity="0.0" d="m364.42654 328.0971l82.77164 -163.2441" fill-rule="evenodd"/><path stroke="#ff0000" stroke-width="2.0" stroke-linejoin="round" stroke-linecap="butt" d="m369.8533 317.3943l77.34491 -152.54128" fill-rule="evenodd"/><path fill="#ff0000" stroke="#ff0000" stroke-width="2.0" stroke-linecap="butt" d="m366.90695 315.90036l-1.1581726 9.58902l7.0509033 -6.6011353z" fill-rule="evenodd"/><path fill="#000000" fill-opacity="0.0" d="m201.02943 204.6838l243.08662 0l0 64.62991l-243.08662 0z" fill-rule="evenodd"/><path fill="#ff0000" d="m211.37318 220.61943l0 -2.375l2.5625 0l0 2.375l-2.5625 0zm0 10.984375l0 -9.671875l2.5625 0l0 9.671875l-2.5625 0zm13.980179 0l-2.5625 0l0 -4.9375q0 -1.5625 -0.171875 -2.015625q-0.15625 -0.46875 -0.53125 -0.71875q-0.359375 -0.265625 -0.875 -0.265625q-0.671875 0 -1.203125 0.375q-0.53125 0.359375 -0.734375 0.96875q-0.1875 0.59375 -0.1875 2.21875l0 4.375l-2.546875 0l0 -9.671875l2.375 0l0 1.421875q1.265625 -1.640625 3.1875 -1.640625q0.84375 0 1.546875 0.3125q0.703125 0.296875 1.0625 0.78125q0.359375 0.46875 0.5 1.078125q0.140625 0.59375 0.140625 1.703125l0 6.015625zm5.255356 0l-3.90625 -9.671875l2.6875 0l1.828125 4.9375l0.53125 1.640625q0.203125 -0.625 0.265625 -0.828125q0.125 -0.40625 0.265625 -0.8125l1.84375 -4.9375l2.625 0l-3.84375 9.671875l-2.296875 0zm13.313217 -3.078125l2.546875 0.421875q-0.484375 1.40625 -1.546875 2.140625q-1.0625 0.734375 -2.65625 0.734375q-2.515625 0 -3.734375 -1.65625q-0.953125 -1.3125 -0.953125 -3.328125q0 -2.40625 1.25 -3.765625q1.265625 -1.359375 3.1875 -1.359375q2.15625 0 3.40625 1.421875q1.25 1.421875 1.1875 4.375l-6.40625 0q0.03125 1.140625 0.609375 1.78125q0.59375 0.625 1.484375 0.625q0.59375 0 1.0 -0.328125q0.421875 -0.328125 0.625 -1.0625zm0.15625 -2.59375q-0.03125 -1.109375 -0.578125 -1.6875q-0.546875 -0.578125 -1.328125 -0.578125q-0.84375 0 -1.390625 0.609375q-0.546875 0.609375 -0.53125 1.65625l3.828125 0zm7.078842 5.671875l-2.5625 0l0 -9.671875l2.375 0l0 1.375q0.609375 -0.984375 1.09375 -1.28125q0.484375 -0.3125 1.109375 -0.3125q0.875 0 1.6875 0.484375l-0.796875 2.234375q-0.640625 -0.421875 -1.203125 -0.421875q-0.53125 0 -0.90625 0.296875q-0.375 0.296875 -0.59375 1.078125q-0.203125 0.765625 -0.203125 3.234375l0 2.984375zm3.9008942 -2.765625l2.5625 -0.390625q0.171875 0.75 0.671875 1.140625q0.5 0.390625 1.40625 0.390625q0.984375 0 1.484375 -0.375q0.34375 -0.25 0.34375 -0.671875q0 -0.296875 -0.1875 -0.484375q-0.1875 -0.1875 -0.859375 -0.34375q-3.09375 -0.6875 -3.921875 -1.25q-1.140625 -0.78125 -1.140625 -2.171875q0 -1.265625 0.984375 -2.109375q1.0 -0.859375 3.078125 -0.859375q1.984375 0 2.953125 0.65625q0.96875 0.640625 1.328125 1.90625l-2.40625 0.4375q-0.15625 -0.5625 -0.59375 -0.859375q-0.421875 -0.296875 -1.234375 -0.296875q-1.0 0 -1.4375 0.28125q-0.296875 0.203125 -0.296875 0.515625q0 0.265625 0.25 0.46875q0.34375 0.25 2.390625 0.71875q2.046875 0.453125 2.859375 1.140625q0.796875 0.671875 0.796875 1.890625q0 1.34375 -1.109375 2.296875q-1.109375 0.953125 -3.28125 0.953125q-1.984375 0 -3.140625 -0.796875q-1.140625 -0.8125 -1.5 -2.1875zm16.875702 -0.3125l2.546875 0.421875q-0.484375 1.40625 -1.546875 2.140625q-1.0625 0.734375 -2.65625 0.734375q-2.515625 0 -3.734375 -1.65625q-0.953125 -1.3125 -0.953125 -3.328125q0 -2.40625 1.25 -3.765625q1.265625 -1.359375 3.1875 -1.359375q2.15625 0 3.40625 1.421875q1.25 1.421875 1.1875 4.375l-6.40625 0q0.03125 1.140625 0.609375 1.78125q0.59375 0.625 1.484375 0.625q0.59375 0 1.0 -0.328125q0.421875 -0.328125 0.625 -1.0625zm0.15625 -2.59375q-0.03125 -1.109375 -0.578125 -1.6875q-0.546875 -0.578125 -1.328125 -0.578125q-0.84375 0 -1.390625 0.609375q-0.546875 0.609375 -0.53125 1.65625l3.828125 0zm8.860107 9.59375l-1.75 0q-1.390625 -2.09375 -2.125 -4.359375q-0.734375 -2.28125 -0.734375 -4.40625q0 -2.625 0.90625 -4.96875q0.78125 -2.046875 1.984375 -3.765625l1.75 0q-1.25 2.75 -1.71875 4.6875q-0.46875 1.9375 -0.46875 4.109375q0 1.5 0.28125 3.0625q0.28125 1.5625 0.765625 2.96875q0.3125 0.9375 1.109375 2.671875zm10.415802 -10.734375l-2.53125 0.453125q-0.125 -0.75 -0.578125 -1.125q-0.453125 -0.390625 -1.171875 -0.390625q-0.953125 0 -1.53125 0.65625q-0.5625 0.65625 -0.5625 2.203125q0 1.734375 0.578125 2.4375q0.578125 0.703125 1.546875 0.703125q0.734375 0 1.203125 -0.40625q0.46875 -0.421875 0.65625 -1.421875l2.515625 0.421875q-0.390625 1.734375 -1.515625 2.625q-1.109375 0.875 -2.96875 0.875q-2.125 0 -3.390625 -1.328125q-1.25 -1.34375 -1.25 -3.71875q0 -2.390625 1.265625 -3.71875q1.265625 -1.34375 3.421875 -1.34375q1.765625 0 2.796875 0.765625q1.046875 0.75 1.515625 2.3125zm3.844452 0.09375l-2.328125 -0.421875q0.40625 -1.40625 1.359375 -2.078125q0.953125 -0.671875 2.84375 -0.671875q1.703125 0 2.546875 0.40625q0.84375 0.40625 1.171875 1.03125q0.34375 0.625 0.34375 2.28125l-0.015625 3.0q0 1.265625 0.109375 1.875q0.125 0.609375 0.46875 1.296875l-2.53125 0q-0.109375 -0.25 -0.25 -0.75q-0.0625 -0.234375 -0.09375 -0.3125q-0.65625 0.640625 -1.40625 0.96875q-0.734375 0.3125 -1.59375 0.3125q-1.484375 0 -2.34375 -0.8125q-0.859375 -0.8125 -0.859375 -2.046875q0 -0.828125 0.390625 -1.46875q0.390625 -0.640625 1.09375 -0.96875q0.703125 -0.34375 2.03125 -0.609375q1.796875 -0.328125 2.484375 -0.625l0 -0.25q0 -0.75 -0.359375 -1.0625q-0.359375 -0.3125 -1.375 -0.3125q-0.6875 0 -1.078125 0.28125q-0.375 0.265625 -0.609375 0.9375zm3.421875 2.078125q-0.484375 0.15625 -1.5625 0.390625q-1.0625 0.21875 -1.390625 0.4375q-0.5 0.359375 -0.5 0.90625q0 0.53125 0.40625 0.9375q0.40625 0.390625 1.015625 0.390625q0.703125 0 1.328125 -0.46875q0.46875 -0.34375 0.609375 -0.84375q0.09375 -0.328125 0.09375 -1.25l0 -0.5zm4.8444824 -5.03125l2.359375 0l0 1.3125q1.265625 -1.53125 3.015625 -1.53125q0.9375 0 1.609375 0.390625q0.6875 0.375 1.125 1.140625q0.640625 -0.765625 1.375 -1.140625q0.75 -0.390625 1.578125 -0.390625q1.0625 0 1.796875 0.4375q0.75 0.421875 1.109375 1.265625q0.265625 0.625 0.265625 2.0l0 6.1875l-2.5625 0l0 -5.53125q0 -1.4375 -0.265625 -1.859375q-0.34375 -0.546875 -1.09375 -0.546875q-0.53125 0 -1.015625 0.328125q-0.46875 0.328125 -0.671875 0.96875q-0.203125 0.625 -0.203125 2.0l0 4.640625l-2.5625 0l0 -5.296875q0 -1.421875 -0.140625 -1.828125q-0.140625 -0.40625 -0.421875 -0.609375q-0.28125 -0.203125 -0.78125 -0.203125q-0.59375 0 -1.0625 0.328125q-0.46875 0.3125 -0.6875 0.921875q-0.203125 0.59375 -0.203125 1.984375l0 4.703125l-2.5625 0l0 -9.671875zm22.385254 6.59375l2.546875 0.421875q-0.484375 1.40625 -1.546875 2.140625q-1.0625 0.734375 -2.65625 0.734375q-2.515625 0 -3.734375 -1.65625q-0.953125 -1.3125 -0.953125 -3.328125q0 -2.40625 1.25 -3.765625q1.265625 -1.359375 3.1875 -1.359375q2.15625 0 3.40625 1.421875q1.25 1.421875 1.1875 4.375l-6.40625 0q0.03125 1.140625 0.609375 1.78125q0.59375 0.625 1.484375 0.625q0.59375 0 1.0 -0.328125q0.421875 -0.328125 0.625 -1.0625zm0.15625 -2.59375q-0.03125 -1.109375 -0.578125 -1.6875q-0.546875 -0.578125 -1.328125 -0.578125q-0.84375 0 -1.390625 0.609375q-0.546875 0.609375 -0.53125 1.65625l3.828125 0zm7.0788574 5.671875l-2.5625 0l0 -9.671875l2.375 0l0 1.375q0.609375 -0.984375 1.09375 -1.28125q0.484375 -0.3125 1.109375 -0.3125q0.875 0 1.6875 0.484375l-0.796875 2.234375q-0.640625 -0.421875 -1.203125 -0.421875q-0.53125 0 -0.90625 0.296875q-0.375 0.296875 -0.59375 1.078125q-0.203125 0.765625 -0.203125 3.234375l0 2.984375zm6.713379 -6.71875l-2.328125 -0.421875q0.40625 -1.40625 1.359375 -2.078125q0.953125 -0.671875 2.84375 -0.671875q1.703125 0 2.546875 0.40625q0.84375 0.40625 1.171875 1.03125q0.34375 0.625 0.34375 2.28125l-0.015625 3.0q0 1.265625 0.109375 1.875q0.125 0.609375 0.46875 1.296875l-2.53125 0q-0.109375 -0.25 -0.25 -0.75q-0.0625 -0.234375 -0.09375 -0.3125q-0.65625 0.640625 -1.40625 0.96875q-0.734375 0.3125 -1.59375 0.3125q-1.484375 0 -2.34375 -0.8125q-0.859375 -0.8125 -0.859375 -2.046875q0 -0.828125 0.390625 -1.46875q0.390625 -0.640625 1.09375 -0.96875q0.703125 -0.34375 2.03125 -0.609375q1.796875 -0.328125 2.484375 -0.625l0 -0.25q0 -0.75 -0.359375 -1.0625q-0.359375 -0.3125 -1.375 -0.3125q-0.6875 0 -1.078125 0.28125q-0.375 0.265625 -0.609375 0.9375zm3.421875 2.078125q-0.484375 0.15625 -1.5625 0.390625q-1.0625 0.21875 -1.390625 0.4375q-0.5 0.359375 -0.5 0.90625q0 0.53125 0.40625 0.9375q0.40625 0.390625 1.015625 0.390625q0.703125 0 1.328125 -0.46875q0.46875 -0.34375 0.609375 -0.84375q0.09375 -0.328125 0.09375 -1.25l0 -0.5zm5.0319824 4.640625l0 -13.359375l4.03125 0l2.421875 9.109375l2.390625 -9.109375l4.046875 0l0 13.359375l-2.5 0l0 -10.515625l-2.65625 10.515625l-2.59375 0l-2.640625 -10.515625l0 10.515625l-2.5 0zm17.462677 -6.71875l-2.328125 -0.421875q0.40625 -1.40625 1.359375 -2.078125q0.953125 -0.671875 2.84375 -0.671875q1.703125 0 2.546875 0.40625q0.84375 0.40625 1.171875 1.03125q0.34375 0.625 0.34375 2.28125l-0.015625 3.0q0 1.265625 0.109375 1.875q0.125 0.609375 0.46875 1.296875l-2.53125 0q-0.109375 -0.25 -0.25 -0.75q-0.0625 -0.234375 -0.09375 -0.3125q-0.65625 0.640625 -1.40625 0.96875q-0.734375 0.3125 -1.59375 0.3125q-1.484375 0 -2.34375 -0.8125q-0.859375 -0.8125 -0.859375 -2.046875q0 -0.828125 0.390625 -1.46875q0.390625 -0.640625 1.09375 -0.96875q0.703125 -0.34375 2.03125 -0.609375q1.796875 -0.328125 2.484375 -0.625l0 -0.25q0 -0.75 -0.359375 -1.0625q-0.359375 -0.3125 -1.375 -0.3125q-0.6875 0 -1.078125 0.28125q-0.375 0.265625 -0.609375 0.9375zm3.421875 2.078125q-0.484375 0.15625 -1.5625 0.390625q-1.0625 0.21875 -1.390625 0.4375q-0.5 0.359375 -0.5 0.90625q0 0.53125 0.40625 0.9375q0.40625 0.390625 1.015625 0.390625q0.703125 0 1.328125 -0.46875q0.46875 -0.34375 0.609375 -0.84375q0.09375 -0.328125 0.09375 -1.25l0 -0.5zm9.485077 -5.03125l0 2.03125l-1.75 0l0 3.90625q0 1.1875 0.046875 1.390625q0.046875 0.1875 0.21875 0.3125q0.1875 0.125 0.4375 0.125q0.359375 0 1.03125 -0.25l0.21875 2.0q-0.890625 0.375 -2.015625 0.375q-0.703125 0 -1.265625 -0.234375q-0.546875 -0.234375 -0.8125 -0.59375q-0.25 -0.375 -0.34375 -1.0q-0.09375 -0.453125 -0.09375 -1.8125l0 -4.21875l-1.171875 0l0 -2.03125l1.171875 0l0 -1.921875l2.578125 -1.5l0 3.421875l1.75 0zm4.228302 9.671875l-2.5625 0l0 -9.671875l2.375 0l0 1.375q0.609375 -0.984375 1.09375 -1.28125q0.484375 -0.3125 1.109375 -0.3125q0.875 0 1.6875 0.484375l-0.796875 2.234375q-0.640625 -0.421875 -1.203125 -0.421875q-0.53125 0 -0.90625 0.296875q-0.375 0.296875 -0.59375 1.078125q-0.203125 0.765625 -0.203125 3.234375l0 2.984375zm4.8071594 -10.984375l0 -2.375l2.5625 0l0 2.375l-2.5625 0zm0 10.984375l0 -9.671875l2.5625 0l0 9.671875l-2.5625 0zm3.9489136 0l3.484375 -4.984375l-3.34375 -4.6875l3.125 0l1.71875 2.65625l1.796875 -2.65625l3.015625 0l-3.28125 4.578125l3.578125 5.09375l-3.140625 0l-1.96875 -3.0l-1.984375 3.0l-3.0 0zm10.891357 3.921875q0.765625 -1.609375 1.0625 -2.484375q0.3125 -0.859375 0.578125 -1.984375q0.265625 -1.140625 0.390625 -2.15625q0.125 -1.015625 0.125 -2.078125q0 -2.171875 -0.46875 -4.109375q-0.453125 -1.9375 -1.703125 -4.6875l1.734375 0q1.375 1.953125 2.140625 4.15625q0.765625 2.1875 0.765625 4.453125q0 1.90625 -0.609375 4.078125q-0.671875 2.4375 -2.25 4.8125l-1.765625 0z" fill-rule="nonzero"/><path fill="#ff0000" d="m215.81068 244.33192l0 2.03125l-1.75 0l0 3.90625q0 1.1875 0.046875 1.390625q0.046875 0.1875 0.21875 0.3125q0.1875 0.125 0.4375 0.125q0.359375 0 1.03125 -0.25l0.21875 2.0q-0.890625 0.375 -2.015625 0.375q-0.703125 0 -1.265625 -0.234375q-0.546875 -0.234375 -0.8125 -0.59375q-0.25 -0.375 -0.34375 -1.0q-0.09375 -0.453125 -0.09375 -1.8125l0 -4.21875l-1.171875 0l0 -2.03125l1.171875 0l0 -1.921875l2.578125 -1.5l0 3.421875l1.75 0zm4.228302 9.671875l-2.5625 0l0 -9.671875l2.375 0l0 1.375q0.609375 -0.984375 1.09375 -1.28125q0.484375 -0.3125 1.109375 -0.3125q0.875 0 1.6875 0.484375l-0.796875 2.234375q-0.640625 -0.421875 -1.203125 -0.421875q-0.53125 0 -0.90625 0.296875q-0.375 0.296875 -0.59375 1.078125q-0.203125 0.765625 -0.203125 3.234375l0 2.984375zm6.713394 -6.71875l-2.328125 -0.421875q0.40625 -1.40625 1.359375 -2.078125q0.953125 -0.671875 2.84375 -0.671875q1.703125 0 2.546875 0.40625q0.84375 0.40625 1.171875 1.03125q0.34375 0.625 0.34375 2.28125l-0.015625 3.0q0 1.265625 0.109375 1.875q0.125 0.609375 0.46875 1.296875l-2.53125 0q-0.109375 -0.25 -0.25 -0.75q-0.0625 -0.234375 -0.09375 -0.3125q-0.65625 0.640625 -1.40625 0.96875q-0.734375 0.3125 -1.59375 0.3125q-1.484375 0 -2.34375 -0.8125q-0.859375 -0.8125 -0.859375 -2.046875q0 -0.828125 0.390625 -1.46875q0.390625 -0.640625 1.09375 -0.96875q0.703125 -0.34375 2.03125 -0.609375q1.796875 -0.328125 2.484375 -0.625l0 -0.25q0 -0.75 -0.359375 -1.0625q-0.359375 -0.3125 -1.375 -0.3125q-0.6875 0 -1.078125 0.28125q-0.375 0.265625 -0.609375 0.9375zm3.421875 2.078125q-0.484375 0.15625 -1.5625 0.390625q-1.0625 0.21875 -1.390625 0.4375q-0.5 0.359375 -0.5 0.90625q0 0.53125 0.40625 0.9375q0.40625 0.390625 1.015625 0.390625q0.703125 0 1.328125 -0.46875q0.46875 -0.34375 0.609375 -0.84375q0.09375 -0.328125 0.09375 -1.25l0 -0.5zm13.844467 4.640625l-2.5625 0l0 -4.9375q0 -1.5625 -0.171875 -2.015625q-0.15625 -0.46875 -0.53125 -0.71875q-0.359375 -0.265625 -0.875 -0.265625q-0.671875 0 -1.203125 0.375q-0.53125 0.359375 -0.734375 0.96875q-0.1875 0.59375 -0.1875 2.21875l0 4.375l-2.546875 0l0 -9.671875l2.375 0l0 1.421875q1.265625 -1.640625 3.1875 -1.640625q0.84375 0 1.546875 0.3125q0.703125 0.296875 1.0625 0.78125q0.359375 0.46875 0.5 1.078125q0.140625 0.59375 0.140625 1.703125l0 6.015625zm1.6928558 -2.765625l2.5625 -0.390625q0.171875 0.75 0.671875 1.140625q0.5 0.390625 1.40625 0.390625q0.984375 0 1.484375 -0.375q0.34375 -0.25 0.34375 -0.671875q0 -0.296875 -0.1875 -0.484375q-0.1875 -0.1875 -0.859375 -0.34375q-3.09375 -0.6875 -3.921875 -1.25q-1.140625 -0.78125 -1.140625 -2.171875q0 -1.265625 0.984375 -2.109375q1.0 -0.859375 3.078125 -0.859375q1.984375 0 2.953125 0.65625q0.96875 0.640625 1.328125 1.90625l-2.40625 0.4375q-0.15625 -0.5625 -0.59375 -0.859375q-0.421875 -0.296875 -1.234375 -0.296875q-1.0 0 -1.4375 0.28125q-0.296875 0.203125 -0.296875 0.515625q0 0.265625 0.25 0.46875q0.34375 0.25 2.390625 0.71875q2.046875 0.453125 2.859375 1.140625q0.796875 0.671875 0.796875 1.890625q0 1.34375 -1.109375 2.296875q-1.109375 0.953125 -3.28125 0.953125q-1.984375 0 -3.140625 -0.796875q-1.140625 -0.8125 -1.5 -2.1875zm10.156967 -6.90625l1.4218597 0l0 -0.734375q0 -1.21875 0.25 -1.8125q0.265625 -0.609375 0.953125 -0.984375q0.703125 -0.375 1.78125 -0.375q1.09375 0 2.140625 0.328125l-0.359375 1.78125q-0.609375 -0.140625 -1.171875 -0.140625q-0.546875 0 -0.796875 0.265625q-0.234375 0.25 -0.234375 0.984375l0 0.6875l1.90625 0l0 2.015625l-1.90625 0l0 7.65625l-2.5625 0l0 -7.65625l-1.4218597 0l0 -2.015625zm6.7439117 4.703125q0 -1.28125 0.625 -2.46875q0.625 -1.203125 1.78125 -1.828125q1.15625 -0.625 2.578125 -0.625q2.1875 0 3.59375 1.421875q1.40625 1.421875 1.40625 3.609375q0 2.1875 -1.421875 3.640625q-1.421875 1.4375 -3.5625 1.4375q-1.328125 0 -2.546875 -0.59375q-1.203125 -0.609375 -1.828125 -1.765625q-0.625 -1.171875 -0.625 -2.828125zm2.625 0.125q0 1.453125 0.671875 2.21875q0.6875 0.75 1.6875 0.75q1.0 0 1.671875 -0.75q0.6875 -0.765625 0.6875 -2.234375q0 -1.421875 -0.6875 -2.1875q-0.671875 -0.765625 -1.671875 -0.765625q-1.0 0 -1.6875 0.765625q-0.671875 0.765625 -0.671875 2.203125zm11.817871 4.84375l-2.5625 0l0 -9.671875l2.375 0l0 1.375q0.609375 -0.984375 1.09375 -1.28125q0.484375 -0.3125 1.109375 -0.3125q0.875 0 1.6875 0.484375l-0.796875 2.234375q-0.640625 -0.421875 -1.203125 -0.421875q-0.53125 0 -0.90625 0.296875q-0.375 0.296875 -0.59375 1.078125q-0.203125 0.765625 -0.203125 3.234375l0 2.984375zm4.604004 -9.671875l2.359375 0l0 1.3125q1.265625 -1.53125 3.015625 -1.53125q0.9375 0 1.609375 0.390625q0.6875 0.375 1.125 1.140625q0.640625 -0.765625 1.375 -1.140625q0.75 -0.390625 1.578125 -0.390625q1.0625 0 1.796875 0.4375q0.75 0.421875 1.109375 1.265625q0.265625 0.625 0.265625 2.0l0 6.1875l-2.5625 0l0 -5.53125q0 -1.4375 -0.265625 -1.859375q-0.34375 -0.546875 -1.09375 -0.546875q-0.53125 0 -1.015625 0.328125q-0.46875 0.328125 -0.671875 0.96875q-0.203125 0.625 -0.203125 2.0l0 4.640625l-2.5625 0l0 -5.296875q0 -1.421875 -0.140625 -1.828125q-0.140625 -0.40625 -0.421875 -0.609375q-0.28125 -0.203125 -0.78125 -0.203125q-0.59375 0 -1.0625 0.328125q-0.46875 0.3125 -0.6875 0.921875q-0.203125 0.59375 -0.203125 1.984375l0 4.703125l-2.5625 0l0 -9.671875zm21.381073 4.703125q0 -1.28125 0.625 -2.46875q0.625 -1.203125 1.78125 -1.828125q1.15625 -0.625 2.578125 -0.625q2.1875 0 3.59375 1.421875q1.40625 1.421875 1.40625 3.609375q0 2.1875 -1.421875 3.640625q-1.421875 1.4375 -3.5625 1.4375q-1.328125 0 -2.546875 -0.59375q-1.203125 -0.609375 -1.828125 -1.765625q-0.625 -1.171875 -0.625 -2.828125zm2.625 0.125q0 1.453125 0.671875 2.21875q0.6875 0.75 1.6875 0.75q1.0 0 1.671875 -0.75q0.6875 -0.765625 0.6875 -2.234375q0 -1.421875 -0.6875 -2.1875q-0.671875 -0.765625 -1.671875 -0.765625q-1.0 0 -1.6875 0.765625q-0.671875 0.765625 -0.671875 2.203125zm18.161621 4.84375l-2.5625 0l0 -4.9375q0 -1.5625 -0.171875 -2.015625q-0.15625 -0.46875 -0.53125 -0.71875q-0.359375 -0.265625 -0.875 -0.265625q-0.671875 0 -1.203125 0.375q-0.53125 0.359375 -0.734375 0.96875q-0.1875 0.59375 -0.1875 2.21875l0 4.375l-2.546875 0l0 -9.671875l2.375 0l0 1.421875q1.265625 -1.640625 3.1875 -1.640625q0.84375 0 1.546875 0.3125q0.703125 0.296875 1.0625 0.78125q0.359375 0.46875 0.5 1.078125q0.140625 0.59375 0.140625 1.703125l0 6.015625zm7.1417847 -3.546875l2.46875 -0.296875q0.125 0.953125 0.640625 1.453125q0.53125 0.5 1.265625 0.5q0.78125 0 1.328125 -0.59375q0.546875 -0.609375 0.546875 -1.640625q0 -0.953125 -0.53125 -1.515625q-0.515625 -0.578125 -1.25 -0.578125q-0.5 0 -1.1875 0.203125l0.28125 -2.09375q1.046875 0.03125 1.59375 -0.4375q0.546875 -0.484375 0.546875 -1.28125q0 -0.671875 -0.40625 -1.078125q-0.390625 -0.40625 -1.0625 -0.40625q-0.65625 0 -1.125 0.46875q-0.453125 0.453125 -0.5625 1.328125l-2.359375 -0.40625q0.25 -1.203125 0.734375 -1.921875q0.5 -0.734375 1.390625 -1.140625q0.890625 -0.421875 2.0 -0.421875q1.875 0 3.015625 1.203125q0.9375 0.984375 0.9375 2.21875q0 1.765625 -1.921875 2.8125q1.15625 0.234375 1.84375 1.09375q0.6875 0.859375 0.6875 2.0625q0 1.765625 -1.296875 3.015625q-1.28125 1.234375 -3.1875 1.234375q-1.8125 0 -3.015625 -1.046875q-1.1875 -1.046875 -1.375 -2.734375zm11.016327 -9.8125l4.9375 0q1.65625 0 2.53125 0.265625q1.1875 0.34375 2.015625 1.234375q0.84375 0.875 1.28125 2.15625q0.4375 1.28125 0.4375 3.15625q0 1.640625 -0.40625 2.84375q-0.5 1.453125 -1.4375 2.359375q-0.703125 0.671875 -1.890625 1.0625q-0.890625 0.28125 -2.390625 0.28125l-5.078125 0l0 -13.359375zm2.703125 2.265625l0 8.84375l2.015625 0q1.125 0 1.625 -0.125q0.65625 -0.171875 1.078125 -0.5625q0.4375 -0.390625 0.703125 -1.28125q0.28125 -0.90625 0.28125 -2.453125q0 -1.546875 -0.28125 -2.375q-0.265625 -0.828125 -0.765625 -1.28125q-0.484375 -0.46875 -1.234375 -0.640625q-0.5625 -0.125 -2.21875 -0.125l-1.203125 0z" fill-rule="nonzero"/><path fill="#ff0000" d="m363.25076 241.5663l0.359375 0l0 -3.78125l1.828125 0q1.609375 0.21875 0.4375 1.03125l0 2.75l2.078125 0l0 2.1875l-2.078125 0l0 3.125l1.78125 -0.6875l0.59375 2.0l-2.375 1.015625l0 6.5l-2.265625 0l0 -5.71875l-1.5625 0.5q-0.125 1.078125 -1.0625 0.140625l-0.6875 -2.109375l3.3125 -0.921875l0 -3.84375l-0.53125 0q-0.109375 1.109375 -0.6875 2.859375l-2.15625 -0.78125q1.0 -2.890625 1.0 -6.40625l2.0625 0.3125q0.65625 0.6875 0.03125 1.046875l-0.078125 0.78125zm14.421875 -0.140625l-0.078125 9.515625q0 4.328125 -2.609375 4.328125l-2.484375 0l-0.4375 -2.421875l2.34375 0q0.921875 0.109375 0.921875 -1.90625l0.078125 -7.328125l-0.03125 0q0.0625 6.328125 -6.9375 12.21875l-1.421875 -2.0q5.65625 -4.203125 6.125 -10.21875l-0.40625 0q-0.28125 4.328125 -4.921875 8.171875l-1.5625 -1.875q3.90625 -3.03125 4.28125 -6.296875l-0.484375 0q-0.734375 1.8125 -2.28125 3.53125l-1.890625 -1.328125q2.796875 -3.421875 3.4375 -7.875l2.0625 0.390625q0.9375 0.921875 -0.0625 1.078125q-0.1875 1.015625 -0.484375 2.015625l6.84375 0zm10.859375 -0.53125q-0.03125 0.25 -0.296875 1.34375l1.421875 0l0 -4.078125l1.8125 0q1.625 0.171875 0.453125 1.03125l0 3.046875l3.640625 0l0 2.1875l-3.640625 0l0 2.9375l5.125 0l0 2.1875l-5.125 0l0 6.015625l-2.265625 0l0 -6.015625l-5.5 0l0 -2.1875l5.5 0l0 -2.9375l-2.09375 0q-0.65625 1.8125 -2.015625 3.359375l-1.828125 -1.703125q2.3125 -2.921875 2.546875 -6.828125l2.34375 0.5625q0.921875 0.921875 -0.078125 1.078125zm-4.546875 14.75l-2.265625 0l0.109375 -8.5q0.078125 0.078125 -1.0625 1.421875l-1.703125 -1.9375q2.96875 -3.421875 3.515625 -8.703125l2.0 0.390625q1.5625 0.46875 0.25 1.03125q-0.421875 2.265625 -1.015625 3.671875l0.125 -0.0625q0.640625 0.640625 0.046875 1.0l0 11.6875z" fill-rule="nonzero"/><path fill="#000000" fill-opacity="0.0" d="m450.06503 273.783l-0.4409485 -199.18109" fill-rule="evenodd"/><path stroke="#595959" stroke-width="1.0" stroke-linejoin="round" stroke-linecap="butt" d="m450.06503 273.783l-0.42764282 -193.18112" fill-rule="evenodd"/><path fill="#595959" stroke="#595959" stroke-width="1.0" stroke-linecap="butt" d="m451.28912 80.59822l-1.6618042 -4.5344315l-1.6416626 4.5417404z" fill-rule="evenodd"/><path fill="#000000" fill-opacity="0.0" d="m487.0766 272.827l-27.685059 -88.50394" fill-rule="evenodd"/><path stroke="#4a86e8" stroke-width="3.0" stroke-linejoin="round" stroke-linecap="butt" d="m487.0766 272.827l-27.685059 -88.50394" fill-rule="evenodd"/><path fill="#000000" fill-opacity="0.0" d="m444.1165 220.01775l55.18109 -18.45668" fill-rule="evenodd"/><path stroke="#4a86e8" stroke-width="3.0" stroke-linejoin="round" stroke-linecap="butt" d="m444.1165 220.01775l55.18109 -18.45668" fill-rule="evenodd"/><path fill="#000000" fill-opacity="0.0" d="m431.60828 422.0748l18.48819 -265.4488" fill-rule="evenodd"/><path stroke="#4a86e8" stroke-width="1.0" stroke-linejoin="round" stroke-linecap="butt" d="m431.60828 422.0748l18.48819 -265.4488" fill-rule="evenodd"/></g></svg>