<svg version="1.1" viewBox="0.0 0.0 960.0 540.0" fill="none" stroke="none" stroke-linecap="square" stroke-miterlimit="10" xmlns:xlink="http://www.w3.org/1999/xlink" xmlns="http://www.w3.org/2000/svg"><clipPath id="geb21aec3d9_0_5.0"><path d="m0 0l960.0 0l0 540.0l-960.0 0l0 -540.0z" clip-rule="nonzero"/></clipPath><g clip-path="url(#geb21aec3d9_0_5.0)"><path fill="#ffffff" d="m0 0l960.0 0l0 540.0l-960.0 0z" fill-rule="evenodd"/><path fill="#000000" fill-opacity="0.0" d="m740.96545 294.7526l0.12597656 -25.448822" fill-rule="evenodd"/><path stroke="#d7f9e5" stroke-width="4.0" stroke-linejoin="round" stroke-linecap="butt" d="m740.96545 294.7526l0.12597656 -25.448822" fill-rule="evenodd"/><path fill="#000000" fill-opacity="0.0" d="m284.7036 294.12848l0.12597656 -25.574799" fill-rule="evenodd"/><path stroke="#6bde99" stroke-width="4.0" stroke-linejoin="round" stroke-linecap="butt" d="m284.7036 294.12848l0.12597656 -25.574799" fill-rule="evenodd"/><path fill="#000000" fill-opacity="0.0" d="m318.3782 350.13736l136.09451 -42.48819" fill-rule="evenodd"/><path stroke="#4a86e8" stroke-width="3.0" stroke-linejoin="round" stroke-linecap="butt" d="m318.3782 350.13736l136.09451 -42.48819" fill-rule="evenodd"/><path fill="#000000" fill-opacity="0.0" d="m159.59947 275.35214l135.68504 -42.89763" fill-rule="evenodd"/><path stroke="#4a86e8" stroke-width="3.0" stroke-linejoin="round" stroke-linecap="butt" d="m159.59947 275.35214l135.68504 -42.89763" fill-rule="evenodd"/><path fill="#000000" fill-opacity="0.0" d="m37.133957 170.59702l374.04724 176.91339" fill-rule="evenodd"/><path stroke="#595959" stroke-width="1.0" stroke-linejoin="round" stroke-linecap="butt" d="m37.133957 170.59702l368.6233 174.34799" fill-rule="evenodd"/><path fill="#595959" stroke="#595959" stroke-width="1.0" stroke-linecap="butt" d="m405.05106 346.43817l4.8085938 0.44714355l-3.3961792 -3.4334412z" fill-rule="evenodd"/><path fill="#000000" fill-opacity="0.0" d="m62.29092 260.91074l322.07874 -108.063" fill-rule="evenodd"/><path stroke="#595959" stroke-width="1.0" stroke-linejoin="round" stroke-linecap="butt" d="m62.290916 260.9107l316.39038 -106.15442" fill-rule="evenodd"/><path fill="#595959" stroke="#595959" stroke-width="1.0" stroke-linecap="butt" d="m379.2067 156.32222l3.777008 -3.0094604l-4.8277893 -0.122421265z" fill-rule="evenodd"/><path fill="#000000" fill-opacity="0.0" d="m159.61414 345.44904l-0.4409485 -199.18112" fill-rule="evenodd"/><path stroke="#595959" stroke-width="1.0" stroke-linejoin="round" stroke-linecap="butt" d="m159.61414 345.44904l-0.42765808 -193.18112" fill-rule="evenodd"/><path fill="#595959" stroke="#595959" stroke-width="1.0" stroke-linecap="butt" d="m160.83821 152.26425l-1.6617737 -4.534424l-1.6416779 4.541733z" fill-rule="evenodd"/><path fill="#000000" fill-opacity="0.0" d="m402.66293 340.03412l65.85828 0l0 42.015747l-65.85828 0z" fill-rule="evenodd"/><path fill="#000000" d="m416.3348 364.79788l0 -3.671875l-3.640625 0l0 -1.515625l3.640625 0l0 -3.640625l1.546875 0l0 3.640625l3.640625 0l0 1.515625l-3.640625 0l0 3.671875l-1.546875 0zm7.3793335 5.875l-0.1875 -1.53125q0.546875 0.140625 0.9375 0.140625q0.546875 0 0.875 -0.1875q0.328125 -0.171875 0.546875 -0.5q0.15625 -0.25 0.5 -1.21875q0.046875 -0.140625 0.140625 -0.40625l-3.671875 -9.6875l1.765625 0l2.015625 5.59375q0.390625 1.078125 0.703125 2.25q0.28125 -1.125 0.671875 -2.203125l2.078125 -5.640625l1.640625 0l-3.6875 9.828125q-0.59375 1.609375 -0.921875 2.203125q-0.4375 0.8125 -1.0 1.1875q-0.5625 0.375 -1.34375 0.375q-0.484375 0 -1.0625 -0.203125z" fill-rule="nonzero"/><path fill="#000000" fill-opacity="0.0" d="m374.64038 118.125984l56.06299 0l0 42.015755l-56.06299 0z" fill-rule="evenodd"/><path fill="#000000" d="m388.31226 142.88974l0 -3.671875l-3.640625 0l0 -1.515625l3.640625 0l0 -3.640625l1.546875 0l0 3.640625l3.640625 0l0 1.515625l-3.640625 0l0 3.671875l-1.546875 0zm6.3637085 2.15625l3.53125 -5.03125l-3.265625 -4.640625l2.046875 0l1.484375 2.265625q0.421875 0.640625 0.671875 1.078125q0.40625 -0.59375 0.734375 -1.0625l1.640625 -2.28125l1.953125 0l-3.34375 4.546875l3.59375 5.125l-2.015625 0l-1.984375 -3.0l-0.515625 -0.8125l-2.546875 3.8125l-1.984375 0z" fill-rule="nonzero"/><path fill="#000000" fill-opacity="0.0" d="m142.48846 108.94751l64.28346 0l0 42.015747l-64.28346 0z" fill-rule="evenodd"/><path fill="#000000" d="m152.08221 131.85188l0 -1.640625l5.03125 0l0 1.640625l-5.03125 0zm5.978302 4.015625l0 -1.328125l6.15625 -7.078125q-1.046875 0.0625 -1.84375 0.0625l-3.9375 0l0 -1.328125l7.90625 0l0 1.078125l-5.25 6.140625l-1.0 1.125q1.09375 -0.078125 2.0625 -0.078125l4.46875 0l0 1.40625l-8.5625 0z" fill-rule="nonzero"/><path fill="#000000" fill-opacity="0.0" d="m159.61414 253.09402l104.31497 49.07086" fill-rule="evenodd"/><path stroke="#6bde99" stroke-width="4.0" stroke-linejoin="round" stroke-linecap="butt" d="m159.61414 253.09402l104.31497 49.07086" fill-rule="evenodd"/><path fill="#000000" fill-opacity="0.0" d="m159.61414 227.93707l105.165344 50.299225" fill-rule="evenodd"/><path stroke="#6bde99" stroke-width="4.0" stroke-linejoin="round" stroke-linecap="butt" d="m159.61414 227.93707l105.165344 50.299225" fill-rule="evenodd"/><path fill="#000000" fill-opacity="0.0" d="m262.71063 302.16867l21.984253 -7.433075" fill-rule="evenodd"/><path stroke="#6bde99" stroke-width="4.0" stroke-linejoin="round" stroke-linecap="butt" d="m262.71063 302.16867l21.984253 -7.433075" fill-rule="evenodd"/><path fill="#000000" fill-opacity="0.0" d="m263.9412 303.40024l0.12597656 -25.57483" fill-rule="evenodd"/><path stroke="#6bde99" stroke-width="4.0" stroke-linejoin="round" stroke-linecap="butt" d="m263.9412 303.40024l0.12597656 -25.57483" fill-rule="evenodd"/><path fill="#000000" fill-opacity="0.0" d="m213.34312 218.73358l28.03151 -9.102371" fill-rule="evenodd"/><path stroke="#6bde99" stroke-width="4.0" stroke-linejoin="round" stroke-linecap="butt" d="m213.34312 218.73358l28.03151 -9.102371" fill-rule="evenodd"/><path fill="#000000" fill-opacity="0.0" d="m213.34251 218.317l14.86615 6.5826874" fill-rule="evenodd"/><path stroke="#6bde99" stroke-width="4.0" stroke-linejoin="round" stroke-linecap="butt" d="m213.34251 218.317l14.86615 6.5826874" fill-rule="evenodd"/><path fill="#000000" fill-opacity="0.0" d="m241.3802 210.89346l14.866135 6.582672" fill-rule="evenodd"/><path stroke="#6bde99" stroke-width="4.0" stroke-linejoin="round" stroke-linecap="butt" d="m241.3802 210.89346l14.866135 6.582672" fill-rule="evenodd"/><path fill="#000000" fill-opacity="0.0" d="m229.2969 226.15712l28.031494 -9.102371" fill-rule="evenodd"/><path stroke="#6bde99" stroke-width="4.0" stroke-linejoin="round" stroke-linecap="butt" d="m229.2969 226.15712l28.031494 -9.102371" fill-rule="evenodd"/><path fill="#000000" fill-opacity="0.0" d="m159.19502 227.93744l88.25197 -29.259842" fill-rule="evenodd"/><path stroke="#6bde99" stroke-width="4.0" stroke-linejoin="round" stroke-linecap="butt" d="m159.19502 227.93744l88.25197 -29.259842" fill-rule="evenodd"/><path fill="#000000" fill-opacity="0.0" d="m262.71063 277.83157l21.984253 -7.433075" fill-rule="evenodd"/><path stroke="#6bde99" stroke-width="4.0" stroke-linejoin="round" stroke-linecap="butt" d="m262.71063 277.83157l21.984253 -7.433075" fill-rule="evenodd"/><path fill="#000000" fill-opacity="0.0" d="m250.752 253.50081l37.54332 -12.377945" fill-rule="evenodd"/><path stroke="#6bde99" stroke-width="4.0" stroke-linejoin="round" stroke-linecap="butt" d="m250.752 253.50081l37.54332 -12.377945" fill-rule="evenodd"/><path fill="#000000" fill-opacity="0.0" d="m221.88466 239.06645l65.574814 -23.527557" fill-rule="evenodd"/><path stroke="#6bde99" stroke-width="4.0" stroke-linejoin="round" stroke-linecap="butt" d="m221.88466 239.06645l65.574814 -23.527557" fill-rule="evenodd"/><path fill="#000000" fill-opacity="0.0" d="m286.92258 241.12976l0.12597656 -25.574799" fill-rule="evenodd"/><path stroke="#6bde99" stroke-width="4.0" stroke-linejoin="round" stroke-linecap="butt" d="m286.92258 241.12976l0.12597656 -25.574799" fill-rule="evenodd"/><path fill="#000000" fill-opacity="0.0" d="m247.72018 198.85324l39.338593 17.51181" fill-rule="evenodd"/><path stroke="#6bde99" stroke-width="4.0" stroke-linejoin="round" stroke-linecap="butt" d="m247.72018 198.85324l39.338593 17.51181" fill-rule="evenodd"/><path fill="#000000" fill-opacity="0.0" d="m221.47192 239.47919l65.44882 30.929138" fill-rule="evenodd"/><path stroke="#6bde99" stroke-width="4.0" stroke-linejoin="round" stroke-linecap="butt" d="m221.47192 239.47919l65.44882 30.929138" fill-rule="evenodd"/><path fill="#000000" fill-opacity="0.0" d="m159.60646 275.48538l159.59056 75.08661" fill-rule="evenodd"/><path stroke="#4a86e8" stroke-width="3.0" stroke-linejoin="round" stroke-linecap="butt" d="m159.60646 275.48538l159.59056 75.08661" fill-rule="evenodd"/><path fill="#000000" fill-opacity="0.0" d="m159.6152 276.72238l0 -96.50392" fill-rule="evenodd"/><path stroke="#4a86e8" stroke-width="3.0" stroke-linejoin="round" stroke-linecap="butt" d="m159.6152 276.72238l0 -96.50392" fill-rule="evenodd"/><path fill="#000000" fill-opacity="0.0" d="m158.78168 180.76135l159.59055 75.086624" fill-rule="evenodd"/><path stroke="#4a86e8" stroke-width="3.0" stroke-linejoin="round" stroke-linecap="butt" d="m158.78168 180.76135l159.59055 75.086624" fill-rule="evenodd"/><path fill="#000000" fill-opacity="0.0" d="m158.77469 180.9141l134.86615 -43.307083" fill-rule="evenodd"/><path stroke="#4a86e8" stroke-width="3.0" stroke-linejoin="round" stroke-linecap="butt" d="m158.77469 180.9141l134.86615 -43.307083" fill-rule="evenodd"/><path fill="#000000" fill-opacity="0.0" d="m292.8645 137.59775l159.59055 75.08661" fill-rule="evenodd"/><path stroke="#4a86e8" stroke-width="3.0" stroke-linejoin="round" stroke-linecap="butt" d="m292.8645 137.59775l159.59055 75.08661" fill-rule="evenodd"/><path fill="#000000" fill-opacity="0.0" d="m318.3782 255.54861l134.01578 -43.3071" fill-rule="evenodd"/><path stroke="#4a86e8" stroke-width="3.0" stroke-linejoin="round" stroke-linecap="butt" d="m318.3782 255.54861l134.01578 -43.3071" fill-rule="evenodd"/><path fill="#000000" fill-opacity="0.0" d="m294.46365 232.45134l159.59055 75.08659" fill-rule="evenodd"/><path stroke="#4a86e8" stroke-width="3.0" stroke-linejoin="round" stroke-linecap="butt" d="m294.46365 232.45134l159.59055 75.08659" fill-rule="evenodd"/><path fill="#000000" fill-opacity="0.0" d="m159.33711 253.50641l0.12599182 -25.574799" fill-rule="evenodd"/><path stroke="#6bde99" stroke-width="4.0" stroke-linejoin="round" stroke-linecap="butt" d="m159.33711 253.50641l0.12599182 -25.574799" fill-rule="evenodd"/><path fill="#000000" fill-opacity="0.0" d="m318.79095 351.50415l0 -96.50394" fill-rule="evenodd"/><path stroke="#4a86e8" stroke-width="3.0" stroke-linejoin="round" stroke-linecap="butt" d="m318.79095 351.50415l0 -96.50394" fill-rule="evenodd"/><path fill="#000000" fill-opacity="0.0" d="m452.8734 308.54703l0 -96.50394" fill-rule="evenodd"/><path stroke="#4a86e8" stroke-width="3.0" stroke-linejoin="round" stroke-linecap="butt" d="m452.8734 308.54703l0 -96.50394" fill-rule="evenodd"/><path fill="#000000" fill-opacity="0.0" d="m294.05304 233.27696l0 -96.50395" fill-rule="evenodd"/><path stroke="#4a86e8" stroke-width="3.0" stroke-linejoin="round" stroke-linecap="butt" d="m294.05304 233.27696l0 -96.50395" fill-rule="evenodd"/><path fill="#000000" fill-opacity="0.0" d="m774.4808 349.60638l135.46454 -42.299225" fill-rule="evenodd"/><path stroke="#bed2f2" stroke-width="3.0" stroke-linejoin="round" stroke-linecap="butt" d="m774.4808 349.60638l135.46454 -42.299225" fill-rule="evenodd"/><path fill="#000000" fill-opacity="0.0" d="m616.4531 275.17438l135.05511 -42.70868" fill-rule="evenodd"/><path stroke="#bed2f2" stroke-width="3.0" stroke-linejoin="round" stroke-linecap="butt" d="m616.4531 275.17438l135.05511 -42.70868" fill-rule="evenodd"/><path fill="#000000" fill-opacity="0.0" d="m494.567 170.91394l372.28348 176.09448" fill-rule="evenodd"/><path stroke="#595959" stroke-width="1.0" stroke-linejoin="round" stroke-linecap="butt" d="m494.56696 170.91394l366.85974 173.52896" fill-rule="evenodd"/><path fill="#595959" stroke="#595959" stroke-width="1.0" stroke-linecap="butt" d="m860.7204 345.93604l4.8085327 0.44732666l-3.3960571 -3.4335632z" fill-rule="evenodd"/><path fill="#000000" fill-opacity="0.0" d="m519.6049 260.80115l320.56696 -107.52757" fill-rule="evenodd"/><path stroke="#595959" stroke-width="1.0" stroke-linejoin="round" stroke-linecap="butt" d="m519.6049 260.80115l314.87842 -105.61948" fill-rule="evenodd"/><path fill="#595959" stroke="#595959" stroke-width="1.0" stroke-linecap="butt" d="m835.0086 156.74767l3.7772217 -3.0091705l-4.827759 -0.122802734z" fill-rule="evenodd"/><path fill="#000000" fill-opacity="0.0" d="m616.4677 344.9402l-0.40942383 -198.26772" fill-rule="evenodd"/><path stroke="#595959" stroke-width="1.0" stroke-linejoin="round" stroke-linecap="butt" d="m616.4677 344.94022l-0.3970337 -192.26776" fill-rule="evenodd"/><path fill="#595959" stroke="#595959" stroke-width="1.0" stroke-linecap="butt" d="m617.7224 152.66905l-1.6611328 -4.534683l-1.642334 4.541504z" fill-rule="evenodd"/><path fill="#000000" fill-opacity="0.0" d="m616.4677 253.91191l103.84253 48.850388" fill-rule="evenodd"/><path stroke="#d7f9e5" stroke-width="4.0" stroke-linejoin="round" stroke-linecap="butt" d="m616.4677 253.91191l103.84253 48.850388" fill-rule="evenodd"/><path fill="#000000" fill-opacity="0.0" d="m616.4677 228.87376l104.66144 50.07875" fill-rule="evenodd"/><path stroke="#d7f9e5" stroke-width="4.0" stroke-linejoin="round" stroke-linecap="butt" d="m616.4677 228.87376l104.66144 50.07875" fill-rule="evenodd"/><path fill="#000000" fill-opacity="0.0" d="m719.07654 302.7548l21.88971 -7.3700867" fill-rule="evenodd"/><path stroke="#d7f9e5" stroke-width="4.0" stroke-linejoin="round" stroke-linecap="butt" d="m719.07654 302.7548l21.88971 -7.3700867" fill-rule="evenodd"/><path fill="#000000" fill-opacity="0.0" d="m720.3013 303.98053l0.12597656 -25.448822" fill-rule="evenodd"/><path stroke="#d7f9e5" stroke-width="4.0" stroke-linejoin="round" stroke-linecap="butt" d="m720.3013 303.98053l0.12597656 -25.448822" fill-rule="evenodd"/><path fill="#000000" fill-opacity="0.0" d="m669.94257 219.71373l27.937012 -9.039368" fill-rule="evenodd"/><path stroke="#d7f9e5" stroke-width="4.0" stroke-linejoin="round" stroke-linecap="butt" d="m669.94257 219.71373l27.937012 -9.039368" fill-rule="evenodd"/><path fill="#000000" fill-opacity="0.0" d="m669.94196 219.29913l14.7716675 6.551178" fill-rule="evenodd"/><path stroke="#d7f9e5" stroke-width="4.0" stroke-linejoin="round" stroke-linecap="butt" d="m669.94196 219.29913l14.7716675 6.551178" fill-rule="evenodd"/><path fill="#000000" fill-opacity="0.0" d="m697.847 211.91064l14.7716675 6.551178" fill-rule="evenodd"/><path stroke="#d7f9e5" stroke-width="4.0" stroke-linejoin="round" stroke-linecap="butt" d="m697.847 211.91064l14.7716675 6.551178" fill-rule="evenodd"/><path fill="#000000" fill-opacity="0.0" d="m685.82086 227.10222l27.937012 -9.039368" fill-rule="evenodd"/><path stroke="#d7f9e5" stroke-width="4.0" stroke-linejoin="round" stroke-linecap="butt" d="m685.82086 227.10222l27.937012 -9.039368" fill-rule="evenodd"/><path fill="#000000" fill-opacity="0.0" d="m616.0506 228.87413l87.84253 -29.133865" fill-rule="evenodd"/><path stroke="#d7f9e5" stroke-width="4.0" stroke-linejoin="round" stroke-linecap="butt" d="m616.0506 228.87413l87.84253 -29.133865" fill-rule="evenodd"/><path fill="#000000" fill-opacity="0.0" d="m719.07654 278.53262l21.88971 -7.370056" fill-rule="evenodd"/><path stroke="#d7f9e5" stroke-width="4.0" stroke-linejoin="round" stroke-linecap="butt" d="m719.07654 278.53262l21.88971 -7.370056" fill-rule="evenodd"/><path fill="#000000" fill-opacity="0.0" d="m707.17444 254.31677l37.35437 -12.314957" fill-rule="evenodd"/><path stroke="#d7f9e5" stroke-width="4.0" stroke-linejoin="round" stroke-linecap="butt" d="m707.17444 254.31677l37.35437 -12.314957" fill-rule="evenodd"/><path fill="#000000" fill-opacity="0.0" d="m678.44366 239.95059l65.25983 -23.40158" fill-rule="evenodd"/><path stroke="#d7f9e5" stroke-width="4.0" stroke-linejoin="round" stroke-linecap="butt" d="m678.44366 239.95059l65.25983 -23.40158" fill-rule="evenodd"/><path fill="#000000" fill-opacity="0.0" d="m743.1739 242.00415l0.12597656 -25.448822" fill-rule="evenodd"/><path stroke="#d7f9e5" stroke-width="4.0" stroke-linejoin="round" stroke-linecap="butt" d="m743.1739 242.00415l0.12597656 -25.448822" fill-rule="evenodd"/><path fill="#000000" fill-opacity="0.0" d="m704.157 199.92729l39.149597 17.448822" fill-rule="evenodd"/><path stroke="#d7f9e5" stroke-width="4.0" stroke-linejoin="round" stroke-linecap="butt" d="m704.157 199.92729l39.149597 17.448822" fill-rule="evenodd"/><path fill="#000000" fill-opacity="0.0" d="m678.0329 240.36137l65.13385 30.803146" fill-rule="evenodd"/><path stroke="#d7f9e5" stroke-width="4.0" stroke-linejoin="round" stroke-linecap="butt" d="m678.0329 240.36137l65.13385 30.803146" fill-rule="evenodd"/><path fill="#000000" fill-opacity="0.0" d="m616.4601 275.30695l158.83466 74.70868" fill-rule="evenodd"/><path stroke="#bed2f2" stroke-width="3.0" stroke-linejoin="round" stroke-linecap="butt" d="m616.4601 275.30695l158.83466 74.70868" fill-rule="evenodd"/><path fill="#000000" fill-opacity="0.0" d="m616.4688 276.53815l0 -96.03151" fill-rule="evenodd"/><path stroke="#bed2f2" stroke-width="3.0" stroke-linejoin="round" stroke-linecap="butt" d="m616.4688 276.53815l0 -96.03151" fill-rule="evenodd"/><path fill="#000000" fill-opacity="0.0" d="m615.63226 181.1823l134.2362 -43.08661" fill-rule="evenodd"/><path stroke="#4a86e8" stroke-width="3.0" stroke-linejoin="round" stroke-linecap="butt" d="m615.63226 181.1823l134.2362 -43.08661" fill-rule="evenodd"/><path fill="#000000" fill-opacity="0.0" d="m750.6793 232.47615l158.83466 74.708664" fill-rule="evenodd"/><path stroke="#bed2f2" stroke-width="3.0" stroke-linejoin="round" stroke-linecap="butt" d="m750.6793 232.47615l158.83466 74.708664" fill-rule="evenodd"/><path fill="#000000" fill-opacity="0.0" d="m616.192 254.32234l0.12597656 -25.448822" fill-rule="evenodd"/><path stroke="#d7f9e5" stroke-width="4.0" stroke-linejoin="round" stroke-linecap="butt" d="m616.192 254.32234l0.12597656 -25.448822" fill-rule="evenodd"/><path fill="#000000" fill-opacity="0.0" d="m774.89154 350.96674l0 -96.03151" fill-rule="evenodd"/><path stroke="#bed2f2" stroke-width="3.0" stroke-linejoin="round" stroke-linecap="butt" d="m774.89154 350.96674l0 -96.03151" fill-rule="evenodd"/><path fill="#000000" fill-opacity="0.0" d="m908.33966 308.21246l0 -96.03148" fill-rule="evenodd"/><path stroke="#bed2f2" stroke-width="3.0" stroke-linejoin="round" stroke-linecap="butt" d="m908.33966 308.21246l0 -96.03148" fill-rule="evenodd"/><path fill="#000000" fill-opacity="0.0" d="m750.2706 233.29787l0 -96.031494" fill-rule="evenodd"/><path stroke="#bed2f2" stroke-width="3.0" stroke-linejoin="round" stroke-linecap="butt" d="m750.2706 233.29787l0 -96.031494" fill-rule="evenodd"/><path fill="#000000" fill-opacity="0.0" d="m615.6392 181.03029l158.83466 74.708664" fill-rule="evenodd"/><path stroke="#4a86e8" stroke-width="3.0" stroke-linejoin="round" stroke-linecap="butt" d="m615.6392 181.03029l158.83466 74.708664" fill-rule="evenodd"/><path fill="#000000" fill-opacity="0.0" d="m617.8211 181.47768l104.66144 50.078735" fill-rule="evenodd"/><path stroke="#6bde99" stroke-width="4.0" stroke-linejoin="round" stroke-linecap="butt" d="m617.8211 181.47768l104.66144 50.078735" fill-rule="evenodd"/><path fill="#000000" fill-opacity="0.0" d="m720.4299 231.13654l21.88977 -7.3700714" fill-rule="evenodd"/><path stroke="#6bde99" stroke-width="4.0" stroke-linejoin="round" stroke-linecap="butt" d="m720.4299 231.13654l21.88977 -7.3700714" fill-rule="evenodd"/><path fill="#000000" fill-opacity="0.0" d="m671.29596 172.31764l27.93695 -9.039368" fill-rule="evenodd"/><path stroke="#6bde99" stroke-width="4.0" stroke-linejoin="round" stroke-linecap="butt" d="m671.29596 172.31764l27.93695 -9.039368" fill-rule="evenodd"/><path fill="#000000" fill-opacity="0.0" d="m671.29535 171.90303l14.771606 6.551193" fill-rule="evenodd"/><path stroke="#6bde99" stroke-width="4.0" stroke-linejoin="round" stroke-linecap="butt" d="m671.29535 171.90303l14.771606 6.551193" fill-rule="evenodd"/><path fill="#000000" fill-opacity="0.0" d="m699.2004 164.51456l14.7716675 6.551178" fill-rule="evenodd"/><path stroke="#6bde99" stroke-width="4.0" stroke-linejoin="round" stroke-linecap="butt" d="m699.2004 164.51456l14.7716675 6.551178" fill-rule="evenodd"/><path fill="#000000" fill-opacity="0.0" d="m687.17426 179.70612l27.937012 -9.039368" fill-rule="evenodd"/><path stroke="#6bde99" stroke-width="4.0" stroke-linejoin="round" stroke-linecap="butt" d="m687.17426 179.70612l27.937012 -9.039368" fill-rule="evenodd"/><path fill="#000000" fill-opacity="0.0" d="m617.404 181.47803l87.84253 -29.13385" fill-rule="evenodd"/><path stroke="#6bde99" stroke-width="4.0" stroke-linejoin="round" stroke-linecap="butt" d="m617.404 181.47803l87.84253 -29.13385" fill-rule="evenodd"/><path fill="#000000" fill-opacity="0.0" d="m679.79706 192.55449l65.25983 -23.401566" fill-rule="evenodd"/><path stroke="#6bde99" stroke-width="4.0" stroke-linejoin="round" stroke-linecap="butt" d="m679.79706 192.55449l65.25983 -23.401566" fill-rule="evenodd"/><path fill="#000000" fill-opacity="0.0" d="m705.5104 152.53119l39.149597 17.448822" fill-rule="evenodd"/><path stroke="#6bde99" stroke-width="4.0" stroke-linejoin="round" stroke-linecap="butt" d="m705.5104 152.53119l39.149597 17.448822" fill-rule="evenodd"/><path fill="#000000" fill-opacity="0.0" d="m679.3863 192.96527l65.13385 30.803146" fill-rule="evenodd"/><path stroke="#6bde99" stroke-width="4.0" stroke-linejoin="round" stroke-linecap="butt" d="m679.3863 192.96527l65.13385 30.803146" fill-rule="evenodd"/><path fill="#000000" fill-opacity="0.0" d="m54.929134 37.136482l125.32283 0l0 42.015747l-125.32283 0z" fill-rule="evenodd"/><path fill="#000000" d="m77.14788 50.61898l-2.90625 0l0 1.484375q0 3.046875 -2.671875 4.3125l-0.8125 -1.34375q2.0 -0.96875 2.0 -3.1875l0 -2.671875l5.875 0l0 4.375q0 0.59375 0.515625 0.59375l0.96875 0q0.296875 0 0.296875 -0.296875l0 -1.484375l1.484375 0.375l0 1.484375q0 1.328125 -1.5625 1.328125l-1.859375 0q-1.328125 0 -1.328125 -1.25l0 -3.71875zm0.4375 11.578125q1.5625 0.96875 4.453125 1.78125l-0.59375 1.484375q-3.046875 -0.953125 -4.890625 -2.21875q-2.234375 1.703125 -5.34375 2.515625l-0.59375 -1.484375q3.03125 -0.734375 4.8125 -1.921875q-1.625 -1.640625 -2.515625 -3.9375l-1.109375 0l0 -1.40625l7.046875 0l0.296875 -0.296875l1.109375 0.953125q0.515625 0.375 -0.140625 0.453125q-0.828125 2.375 -2.53125 4.078125zm-3.34375 -3.78125q0.96875 1.703125 2.234375 2.96875q1.265625 -1.265625 1.921875 -2.96875l-4.15625 0zm-5.046875 -9.578125q0.59375 0.078125 0.078125 0.453125l0 2.8125l2.296875 0l0 1.40625l-2.296875 0l0 3.859375l1.484375 -0.59375l0.515625 1.34375l-2.0 0.8125l0 5.640625q0 1.1875 -1.1875 1.1875l-1.484375 0l-0.21875 -1.40625l1.109375 0q0.296875 0 0.296875 -0.296875l0 -4.609375l-1.625 0.671875q-0.078125 0.515625 -0.375 0.21875l-0.59375 -1.703125l2.59375 -0.8125l0 -4.3125l-2.59375 0l0 -1.40625l2.59375 0l0 -3.265625l1.40625 0zm24.125 15.375q4.609375 -2.15625 6.6875 -5.0625l1.25 1.265625q0.078125 0.375 -0.4375 0.21875q-2.15625 2.828125 -6.53125 4.984375l-0.96875 -1.40625zm-9.28125 -0.234375q1.484375 -1.03125 2.3125 -2.453125l1.328125 0.890625q0.21875 0.234375 -0.4375 0.453125q-0.671875 1.109375 -2.15625 2.234375l-1.046875 -1.125zm1.125 -2.8125l0 -3.5625l7.9375 0l0 3.5625l-3.125 0l0 3.40625q0 1.1875 -1.1875 1.1875l-1.40625 0l-0.21875 -1.40625l1.03125 0q0.296875 0 0.296875 -0.296875l0 -2.890625l-1.703125 0l-1.625 0zm0.0625 -6.828125l0 -5.046875l7.796875 0l0 5.046875l-3.109375 0l0 1.1875l4.375 0l0 1.1875l-10.3125 0l0 -1.1875l4.453125 0l0 -1.1875l-1.640625 0l-1.5625 0zm8.390625 -1.5625q2.890625 -1.265625 4.96875 -3.640625l1.265625 1.265625q0.15625 0.375 -0.515625 0.21875q-1.859375 2.0 -4.75 3.484375l-0.96875 -1.328125zm-2.078125 8.828125q1.109375 0.671875 1.78125 1.40625l-0.890625 1.265625q-0.59375 -0.890625 -1.703125 -1.625l0.8125 -1.046875zm-4.890625 -1.625l4.96875 0l0 -1.1875l-4.96875 0l0 1.1875zm0.0625 -7.71875l0 1.1875l4.828125 0l0 -1.1875l-4.828125 0zm13.890625 2.96875q0.0625 0.359375 -0.453125 0.21875q-1.625 2.0 -5.265625 3.859375l-0.96875 -1.34375q3.78125 -1.84375 5.5 -3.921875l1.1875 1.1875zm-13.890625 -5.046875l0 1.1875l4.828125 0l0 -1.1875l-4.828125 0zm22.5 6.671875l0 -1.484375l-3.265625 0l0 1.484375l3.265625 0zm0 1.40625l-3.265625 0l0 1.5625l3.265625 0l0 -1.5625zm-0.234375 5.875q0.234375 0 0.234375 -0.234375l0 -2.671875l-3.265625 0l0 4.46875l-1.484375 0l0 -11.734375l6.234375 0l0 10.3125q0 1.265625 -1.1875 1.265625l-1.484375 0l-0.375 -1.40625l1.328125 0zm3.859375 -9.796875l1.484375 0l0 8.53125l-1.484375 0l0 -8.53125zm3.796875 9.71875q0.21875 0 0.21875 -0.21875l0 -10.09375l1.40625 0q0.75 0.140625 0.078125 0.59375l0 9.875q0 1.25 -1.1875 1.25l-1.640625 0l-0.296875 -1.40625l1.421875 0zm-1.265625 -14.46875q-0.453125 0.8125 -1.109375 1.84375l5.640625 0l0 1.421875l-17.078125 0l0 -1.421875l5.046875 0q-0.4375 -1.03125 -1.03125 -1.78125l1.328125 -0.734375q0.8125 0.8125 1.640625 2.515625l2.734375 0q0.828125 -1.40625 1.34375 -2.8125l1.703125 0.59375q0.296875 0.296875 -0.21875 0.375zm9.421875 5.78125l1.703125 0l0 1.640625l-1.703125 0l0 -1.640625zm0 6.828125l1.703125 0l0 1.640625l-1.703125 0l0 -1.640625z" fill-rule="nonzero"/><path fill="#000000" fill-opacity="0.0" d="m485.59842 37.136482l125.322845 0l0 42.015747l-125.322845 0z" fill-rule="evenodd"/><path fill="#000000" d="m507.81717 50.61898l-2.90625 0l0 1.484375q0 3.046875 -2.671875 4.3125l-0.8125 -1.34375q2.0 -0.96875 2.0 -3.1875l0 -2.671875l5.875 0l0 4.375q0 0.59375 0.515625 0.59375l0.96875 0q0.296875 0 0.296875 -0.296875l0 -1.484375l1.4844055 0.375l0 1.484375q0 1.328125 -1.5625305 1.328125l-1.859375 0q-1.328125 0 -1.328125 -1.25l0 -3.71875zm0.4375 11.578125q1.5625 0.96875 4.4531555 1.78125l-0.59375 1.484375q-3.0469055 -0.953125 -4.8906555 -2.21875q-2.234375 1.703125 -5.34375 2.515625l-0.59375 -1.484375q3.03125 -0.734375 4.8125 -1.921875q-1.625 -1.640625 -2.515625 -3.9375l-1.109375 0l0 -1.40625l7.046875 0l0.296875 -0.296875l1.109375 0.953125q0.515625 0.375 -0.140625 0.453125q-0.828125 2.375 -2.53125 4.078125zm-3.34375 -3.78125q0.96875 1.703125 2.234375 2.96875q1.265625 -1.265625 1.921875 -2.96875l-4.15625 0zm-5.046875 -9.578125q0.59375 0.078125 0.078125 0.453125l0 2.8125l2.296875 0l0 1.40625l-2.296875 0l0 3.859375l1.484375 -0.59375l0.515625 1.34375l-2.0 0.8125l0 5.640625q0 1.1875 -1.1875 1.1875l-1.484375 0l-0.21875 -1.40625l1.109375 0q0.296875 0 0.296875 -0.296875l0 -4.609375l-1.625 0.671875q-0.078125 0.515625 -0.375 0.21875l-0.59375 -1.703125l2.59375 -0.8125l0 -4.3125l-2.59375 0l0 -1.40625l2.59375 0l0 -3.265625l1.40625 0zm24.12503 15.375q4.609375 -2.15625 6.6875 -5.0625l1.25 1.265625q0.078125 0.375 -0.4375 0.21875q-2.15625 2.828125 -6.53125 4.984375l-0.96875 -1.40625zm-9.28125 -0.234375q1.484375 -1.03125 2.3125 -2.453125l1.328125 0.890625q0.21875 0.234375 -0.4375 0.453125q-0.671875 1.109375 -2.15625 2.234375l-1.046875 -1.125zm1.125 -2.8125l0 -3.5625l7.9375 0l0 3.5625l-3.125 0l0 3.40625q0 1.1875 -1.1875 1.1875l-1.40625 0l-0.21875 -1.40625l1.03125 0q0.296875 0 0.296875 -0.296875l0 -2.890625l-1.703125 0l-1.625 0zm0.0625 -6.828125l0 -5.046875l7.796875 0l0 5.046875l-3.109375 0l0 1.1875l4.375 0l0 1.1875l-10.3125 0l0 -1.1875l4.453125 0l0 -1.1875l-1.640625 0l-1.5625 0zm8.390625 -1.5625q2.890625 -1.265625 4.96875 -3.640625l1.265625 1.265625q0.15625 0.375 -0.515625 0.21875q-1.859375 2.0 -4.75 3.484375l-0.96875 -1.328125zm-2.078125 8.828125q1.109375 0.671875 1.78125 1.40625l-0.890625 1.265625q-0.59375 -0.890625 -1.703125 -1.625l0.8125 -1.046875zm-4.890625 -1.625l4.96875 0l0 -1.1875l-4.96875 0l0 1.1875zm0.0625 -7.71875l0 1.1875l4.828125 0l0 -1.1875l-4.828125 0zm13.890625 2.96875q0.0625 0.359375 -0.453125 0.21875q-1.625 2.0 -5.265625 3.859375l-0.96875 -1.34375q3.78125 -1.84375 5.5 -3.921875l1.1875 1.1875zm-13.890625 -5.046875l0 1.1875l4.828125 0l0 -1.1875l-4.828125 0zm27.171875 13.0625q-2.296875 1.625 -6.15625 2.375l-0.53125 -1.5625q3.5625 -0.453125 5.578125 -1.859375q-0.828125 -0.96875 -1.421875 -2.15625q-1.03125 1.484375 -2.890625 2.671875l-0.890625 -1.1875q2.890625 -1.84375 3.78125 -4.375l-2.8125 0.15625q-0.078125 0.515625 -0.375 0.21875l-0.515625 -1.703125l2.96875 -0.078125l1.40625 -1.1875q-1.703125 -1.1875 -3.109375 -1.859375l0.8125 -1.265625l0.734375 0.375q1.265625 -1.5625 2.234375 -3.40625l1.265625 0.734375q0.65625 0.375 -0.078125 0.515625q-0.96875 1.34375 -2.296875 2.90625q0.734375 0.4375 1.40625 0.890625q1.328125 -1.265625 2.75 -3.265625l1.328125 0.8125q0.296875 0.296875 -0.21875 0.375q-1.40625 1.921875 -4.3125 4.375l4.453125 -0.296875q-0.59375 -0.671875 -1.1875 -1.265625l1.046875 -0.890625q1.703125 1.265625 2.8125 3.34375l-1.25 0.96875l-0.59375 -1.046875l-4.828125 0.453125l-0.59375 1.25l3.703125 0l0.234375 -0.359375l1.25 0.734375q0.53125 0.21875 -0.296875 0.453125q-1.03125 1.921875 -2.296875 3.109375q1.9375 1.1875 4.828125 1.640625l-0.59375 1.703125q-2.96875 -0.671875 -5.34375 -2.296875zm0 -1.859375q0.8125 -0.8125 1.5625 -1.9375l-2.90625 0q0.453125 1.046875 1.34375 1.9375zm-7.203125 4.234375l-1.484375 0l0 -7.65625q-0.671875 0.671875 -1.5625 1.421875l-0.65625 -1.484375q2.4375 -1.9375 4.0 -4.984375l1.34375 0.890625q0.296875 0.296875 -0.234375 0.375q-0.515625 0.890625 -1.40625 2.078125l0 9.359375zm1.34375 -15.375q-1.34375 1.9375 -3.9375 3.71875l-0.8125 -1.484375q2.21875 -1.484375 3.859375 -3.5625l1.328125 1.03125q0.078125 0.375 -0.4375 0.296875zm16.765625 5.125l1.703125 0l0 1.640625l-1.703125 0l0 -1.640625zm0 6.828125l1.703125 0l0 1.640625l-1.703125 0l0 -1.640625z" fill-rule="nonzero"/><path fill="#000000" fill-opacity="0.0" d="m861.3923 340.3924l65.85828 0l0 42.015747l-65.85828 0z" fill-rule="evenodd"/><path fill="#000000" d="m875.06415 365.15613l0 -3.671875l-3.640625 0l0 -1.515625l3.640625 0l0 -3.640625l1.546875 0l0 3.640625l3.640625 0l0 1.515625l-3.640625 0l0 3.671875l-1.546875 0zm7.3793335 5.875l-0.1875 -1.53125q0.546875 0.140625 0.9375 0.140625q0.546875 0 0.875 -0.1875q0.328125 -0.171875 0.546875 -0.5q0.15625 -0.25 0.5 -1.21875q0.046875 -0.140625 0.140625 -0.40625l-3.671875 -9.6875l1.765625 0l2.015625 5.59375q0.390625 1.078125 0.703125 2.25q0.28125 -1.125 0.671875 -2.203125l2.078125 -5.640625l1.640625 0l-3.6875 9.828125q-0.59375 1.609375 -0.921875 2.203125q-0.4375 0.8125 -1.0 1.1875q-0.5625 0.375 -1.34375 0.375q-0.484375 0 -1.0625 -0.203125z" fill-rule="nonzero"/><path fill="#000000" fill-opacity="0.0" d="m833.36975 118.48425l56.06299 0l0 42.015747l-56.06299 0z" fill-rule="evenodd"/><path fill="#000000" d="m847.0416 143.248l0 -3.671875l-3.640625 0l0 -1.515625l3.640625 0l0 -3.640625l1.546875 0l0 3.640625l3.640625 0l0 1.515625l-3.640625 0l0 3.671875l-1.546875 0zm6.3637085 2.15625l3.53125 -5.03125l-3.265625 -4.640625l2.046875 0l1.484375 2.265625q0.421875 0.640625 0.671875 1.078125q0.40625 -0.59375 0.734375 -1.0625l1.640625 -2.28125l1.953125 0l-3.34375 4.546875l3.59375 5.125l-2.015625 0l-1.984375 -3.0l-0.515625 -0.8125l-2.546875 3.8125l-1.984375 0z" fill-rule="nonzero"/><path fill="#000000" fill-opacity="0.0" d="m599.89496 109.63911l64.28351 0l0 42.015755l-64.28351 0z" fill-rule="evenodd"/><path fill="#000000" d="m609.4887 132.54349l0 -1.640625l5.03125 0l0 1.640625l-5.03125 0zm5.9783325 4.015625l0 -1.328125l6.15625 -7.078125q-1.046875 0.0625 -1.84375 0.0625l-3.9375 0l0 -1.3281326l7.90625 0l0 1.078125l-5.25 6.1406326l-1.0 1.125q1.09375 -0.078125 2.0625 -0.078125l4.46875 0l0 1.40625l-8.5625 0z" fill-rule="nonzero"/><path fill="#000000" fill-opacity="0.0" d="m774.4808 255.46434l133.3858 -43.08661" fill-rule="evenodd"/><path stroke="#4a86e8" stroke-width="3.0" stroke-linejoin="round" stroke-linecap="butt" d="m774.4808 255.46434l133.3858 -43.08661" fill-rule="evenodd"/><path fill="#000000" fill-opacity="0.0" d="m749.0877 138.07053l158.83466 74.708664" fill-rule="evenodd"/><path stroke="#4a86e8" stroke-width="3.0" stroke-linejoin="round" stroke-linecap="butt" d="m749.0877 138.07053l158.83466 74.708664" fill-rule="evenodd"/><path fill="#000000" fill-opacity="0.0" d="m114.549866 419.06824l20.952759 0l0 22.149597l-20.952759 0z" fill-rule="evenodd"/><path fill="#000000" fill-opacity="0.0" d="m135.50262 419.06824l6.984253 -6.984253l0 22.149597l-6.984253 6.984253z" fill-rule="evenodd"/><path fill="#000000" fill-opacity="0.0" d="m114.549866 419.06824l6.984253 -6.984253l20.952759 0l-6.984253 6.984253z" fill-rule="evenodd"/><path fill="#000000" fill-opacity="0.0" d="m114.549866 419.06824l6.984253 -6.984253l20.952759 0l0 22.149597l-6.984253 6.984253l-20.952759 0zm0 0l20.952759 0l6.984253 -6.984253m-6.984253 6.984253l0 22.149597" fill-rule="evenodd"/><path fill="#000000" fill-opacity="0.2" d="m135.50262 419.06824l6.984253 -6.984253l0 22.149597l-6.984253 6.984253z" fill-rule="evenodd"/><path fill="#ffffff" fill-opacity="0.2" d="m114.549866 419.06824l6.984253 -6.984253l20.952759 0l-6.984253 6.984253z" fill-rule="evenodd"/><path stroke="#4a86e8" stroke-width="3.0" stroke-linejoin="round" stroke-linecap="butt" d="m114.549866 419.06824l6.984253 -6.984253l20.952759 0l0 22.149597l-6.984253 6.984253l-20.952759 0zm0 0l20.952759 0l6.984253 -6.984253m-6.984253 6.984253l0 22.149597" fill-rule="evenodd"/><path fill="#000000" fill-opacity="0.0" d="m139.07742 405.64304l136.09448 0l0 42.015747l-136.09448 0z" fill-rule="evenodd"/><path fill="#4a86e8" d="m151.9368 423.0943l2.484375 0l0 2.421875l-2.484375 0l0 -2.421875zm0 6.828125l2.484375 0l0 2.421875l-2.484375 0l0 -2.421875zm18.859375 -10.796875l-2.125 0l0 1.09375q0 3.296875 -3.21875 4.8125l-1.21875 -2.015625q2.171875 -1.046875 2.171875 -3.015625l0 -3.0625l6.65625 0l0 4.765625q0 0.203125 0.125 0.203125l0.96875 0q0 0.09375 -0.09375 0.09375l0 -1.984375l2.265625 0.578125l0 1.78125q0 1.71875 -1.953125 1.71875l-1.859375 0q-1.71875 0 -1.71875 -1.640625l0 -3.328125zm1.453125 11.109375q1.09375 0.6875 4.359375 1.59375l-0.890625 2.234375q-3.453125 -1.078125 -5.109375 -2.21875q-2.078125 1.578125 -5.59375 2.5l-0.890625 -2.234375q3.40625 -0.8125 4.734375 -1.703125q-1.34375 -1.359375 -2.171875 -3.484375l-1.234375 0l0 -2.1875l7.28125 0l0.4375 -0.4375l1.375 1.171875q1.296875 0.953125 -0.109375 1.125q-0.765625 2.234375 -2.1875 3.640625zm-3.296875 -3.3125q0.609375 1.078125 1.5625 2.03125q0.9375 -0.9375 1.359375 -2.03125l-2.921875 0zm-5.6875 -10.359375q1.578125 0.203125 0.4375 1.046875l0 2.21875l2.296875 0l0 2.1875l-2.296875 0l0 2.890625l1.3125 -0.53125l0.796875 2.078125l-2.109375 0.859375l0 5.375q0 1.578125 -1.578125 1.578125l-1.8125 0l-0.34375 -2.1875l1.5625 0q0 0.09375 -0.09375 0.09375l0 -4.03125l-0.875 0.375q-0.171875 1.0625 -1.078125 0.15625l-0.75 -2.171875l2.703125 -0.84375l0 -3.640625l-2.59375 0l0 -2.1875l2.59375 0l0 -3.265625l1.828125 0zm23.515625 15.609375q4.921875 -2.3125 7.21875 -5.515625l1.65625 1.6875q0.234375 1.125 -0.65625 0.859375q-2.046875 2.6875 -6.796875 5.03125l-1.421875 -2.0625zm-9.296875 -0.140625q1.78125 -1.234375 2.78125 -2.953125l1.703125 1.15625q0.671875 0.703125 -0.421875 1.078125q-0.640625 1.046875 -2.46875 2.4375l-1.59375 -1.71875zm1.328125 -2.359375l0 -4.34375l8.71875 0l0 4.34375l-3.125 0l0 3.015625q0 1.578125 -1.578125 1.578125l-1.734375 0l-0.34375 -2.1875l1.484375 0q0 0.09375 -0.09375 0.09375l0 -2.5l-1.3125 0l-2.015625 0zm0.0625 -6.828125l0 -5.828125l8.578125 0l0 5.828125l-3.109375 0l0 0.40625l4.375 0l0 1.96875l-11.09375 0l0 -1.96875l4.453125 0l0 -0.40625l-1.25 0l-1.953125 0zm8.171875 -2.109375q3.265625 -1.4375 5.5625 -4.0625l1.609375 1.625q0.484375 1.140625 -0.71875 0.875q-1.75 1.875 -5.0 3.546875l-1.453125 -1.984375zm-1.5625 8.46875q1.453125 0.875 2.375 1.890625l-1.40625 1.984375q-0.859375 -1.296875 -2.25 -2.21875l1.28125 -1.65625zm-4.40625 -1.5l4.1875 0l0 -0.40625l-4.1875 0l0 0.40625zm0.0625 -6.9375l0 0.40625l4.046875 0l0 -0.40625l-4.046875 0zm13.859375 2.390625q0.1875 1.078125 -0.671875 0.84375q-1.515625 1.875 -5.53125 3.921875l-1.4375 -1.984375q4.125 -2.015625 6.0625 -4.359375l1.578125 1.578125zm-13.859375 -4.46875l0 0.40625l4.046875 0l0 -0.40625l-4.046875 0zm18.859375 12.34375l14.25 0l0 2.203125l-14.25 0l0 0.734375l-2.265625 0l0 -16.4375l16.734375 0l0 2.1875l-14.46875 0l0 11.3125zm10.46875 -6.1875l-7.765625 0l0 -4.796875l7.765625 0l0 4.796875zm-2.265625 -1.96875l0 -0.859375l-3.234375 0l0 0.859375l3.234375 0zm4.640625 7.75l-2.046875 0l0 -0.59375l-1.75 0l0 0.828125l-2.03125 0l0 -5.765625l5.828125 0l0 5.53125zm-2.046875 -2.5625l0 -1.0l-1.75 0l0 1.0l1.75 0zm-6.453125 2.640625l0 -0.671875l-1.75 0l0 0.890625l-2.046875 0l0 -5.828125l5.828125 0l0 5.609375l-2.03125 0zm0 -2.640625l0 -1.0l-1.75 0l0 1.0l1.75 0zm23.1875 0.5625q-0.625 -3.171875 -0.625 -6.671875l-5.15625 0l0 1.25l-2.015625 0l0 4.65625q0.234375 -0.078125 1.71875 -0.59375l0.25 2.109375q-2.828125 1.171875 -4.90625 1.78125q-0.515625 0.921875 -1.140625 0.078125l-0.484375 -2.171875q1.484375 -0.390625 2.296875 -0.609375l0 -5.25l-1.78125 0l0 -2.1875l1.78125 0l0 -3.9375l1.84375 0q1.609375 0.21875 0.421875 1.046875l0 2.890625l1.234375 0l0 -1.265625l5.9375 0l0 -3.03125l1.8125 0q1.625 0.171875 0.453125 1.03125l0 2.0l0.765625 0q-0.5 -0.828125 -1.15625 -1.3125l1.875 -1.40625q0.796875 0.78125 1.84375 2.3125l-0.546875 0.40625l1.0 0l0 2.203125l-3.78125 0q0 2.6875 0.140625 3.859375q0.140625 -0.25 1.0625 -3.296875l1.84375 0.8125q0.65625 0.890625 -0.09375 1.015625q-0.765625 2.640625 -1.96875 4.625q0.3125 1.21875 0.890625 1.8125q-0.078125 0.09375 -0.21875 0.0625l0.390625 -2.125l2.171875 1.0l-0.609375 2.390625q-0.453125 1.90625 -1.984375 1.40625q-1.65625 -0.578125 -2.390625 -2.546875q-1.46875 1.609375 -5.640625 3.359375l-0.875 -2.296875q3.921875 -1.59375 5.640625 -3.40625zm-7.09375 0.484375q3.328125 -0.578125 6.6875 -1.875l0.125 2.234375q-2.953125 1.140625 -5.375 1.78125q-0.640625 0.828125 -0.96875 -0.078125l-0.46875 -2.0625zm3.0 -1.46875l0.015625 0.390625l-2.046875 0l0 -5.375l5.390625 0l0 5.0l-3.359375 -0.015625zm1.3125 -1.953125l0 -1.0625l-1.296875 0l0 1.0625l1.296875 0z" fill-rule="nonzero"/><path fill="#000000" fill-opacity="0.0" d="m272.00656 419.06824l20.952759 0l0 22.149597l-20.952759 0z" fill-rule="evenodd"/><path fill="#000000" fill-opacity="0.0" d="m292.95932 419.06824l6.984253 -6.984253l0 22.149597l-6.984253 6.984253z" fill-rule="evenodd"/><path fill="#000000" fill-opacity="0.0" d="m272.00656 419.06824l6.984253 -6.984253l20.952759 0l-6.984253 6.984253z" fill-rule="evenodd"/><path fill="#000000" fill-opacity="0.0" d="m272.00656 419.06824l6.984253 -6.984253l20.952759 0l0 22.149597l-6.984253 6.984253l-20.952759 0zm0 0l20.952759 0l6.984253 -6.984253m-6.984253 6.984253l0 22.149597" fill-rule="evenodd"/><path fill="#000000" fill-opacity="0.2" d="m292.95932 419.06824l6.984253 -6.984253l0 22.149597l-6.984253 6.984253z" fill-rule="evenodd"/><path fill="#ffffff" fill-opacity="0.2" d="m272.00656 419.06824l6.984253 -6.984253l20.952759 0l-6.984253 6.984253z" fill-rule="evenodd"/><path stroke="#6bde99" stroke-width="4.0" stroke-linejoin="round" stroke-linecap="butt" d="m272.00656 419.06824l6.984253 -6.984253l20.952759 0l0 22.149597l-6.984253 6.984253l-20.952759 0zm0 0l20.952759 0l6.984253 -6.984253m-6.984253 6.984253l0 22.149597" fill-rule="evenodd"/><path fill="#000000" fill-opacity="0.0" d="m296.76297 405.64304l136.09448 0l0 42.015747l-136.09448 0z" fill-rule="evenodd"/><path fill="#6bde99" d="m309.62234 423.0943l2.484375 0l0 2.421875l-2.484375 0l0 -2.421875zm0 6.828125l2.484375 0l0 2.421875l-2.484375 0l0 -2.421875z" fill-rule="nonzero"/><path fill="#6bde99" d="m315.9661 429.01617l2.46875 -0.296875q0.125 0.953125 0.640625 1.453125q0.53125 0.5 1.265625 0.5q0.78125 0 1.328125 -0.59375q0.546875 -0.609375 0.546875 -1.640625q0 -0.953125 -0.53125 -1.515625q-0.515625 -0.578125 -1.25 -0.578125q-0.5 0 -1.1875 0.203125l0.28125 -2.09375q1.046875 0.03125 1.59375 -0.4375q0.546875 -0.484375 0.546875 -1.28125q0 -0.671875 -0.40625 -1.078125q-0.390625 -0.40625 -1.0625 -0.40625q-0.65625 0 -1.125 0.46875q-0.453125 0.453125 -0.5625 1.328125l-2.359375 -0.40625q0.25 -1.203125 0.734375 -1.921875q0.5 -0.734375 1.390625 -1.140625q0.890625 -0.421875 2.0 -0.421875q1.875 0 3.015625 1.203125q0.9375 0.984375 0.9375 2.21875q0 1.765625 -1.921875 2.8125q1.15625 0.234375 1.84375 1.09375q0.6875 0.859375 0.6875 2.0625q0 1.765625 -1.296875 3.015625q-1.28125 1.234375 -3.1875 1.234375q-1.8125 0 -3.015625 -1.046875q-1.1875 -1.046875 -1.375 -2.734375zm11.016357 -9.8125l4.9375 0q1.65625 0 2.53125 0.265625q1.1875 0.34375 2.015625 1.234375q0.84375 0.875 1.28125 2.15625q0.4375 1.28125 0.4375 3.15625q0 1.640625 -0.40625 2.84375q-0.5 1.453125 -1.4375 2.359375q-0.703125 0.671875 -1.890625 1.0625q-0.890625 0.28125 -2.390625 0.28125l-5.078125 0l0 -13.359375zm2.703125 2.265625l0 8.84375l2.015625 0q1.125 0 1.625 -0.125q0.65625 -0.171875 1.078125 -0.5625q0.4375 -0.390625 0.703125 -1.28125q0.28125 -0.90625 0.28125 -2.453125q0 -1.546875 -0.28125 -2.375q-0.265625 -0.828125 -0.765625 -1.28125q-0.484375 -0.46875 -1.234375 -0.640625q-0.5625 -0.125 -2.21875 -0.125l-1.203125 0z" fill-rule="nonzero"/><path fill="#6bde99" d="m348.24808 420.12555l0.359375 0l0 -3.78125l1.828125 0q1.609375 0.21875 0.4375 1.03125l0 2.75l2.078125 0l0 2.1875l-2.078125 0l0 3.125l1.78125 -0.6875l0.59375 2.0l-2.375 1.015625l0 6.5l-2.265625 0l0 -5.71875l-1.5625 0.5q-0.125 1.078125 -1.0625 0.140625l-0.6875 -2.109375l3.3125 -0.921875l0 -3.84375l-0.53125 0q-0.109375 1.109375 -0.6875 2.859375l-2.15625 -0.78125q1.0 -2.890625 1.0 -6.40625l2.0625 0.3125q0.65625 0.6875 0.03125 1.046875l-0.078125 0.78125zm14.421875 -0.140625l-0.078125 9.515625q0 4.328125 -2.609375 4.328125l-2.484375 0l-0.4375 -2.421875l2.34375 0q0.921875 0.109375 0.921875 -1.90625l0.078125 -7.328125l-0.03125 0q0.0625 6.328125 -6.9375 12.21875l-1.421875 -2.0q5.65625 -4.203125 6.125 -10.21875l-0.40625 0q-0.28125 4.328125 -4.921875 8.171875l-1.5625 -1.875q3.90625 -3.03125 4.28125 -6.296875l-0.484375 0q-0.734375 1.8125 -2.28125 3.53125l-1.890625 -1.328125q2.796875 -3.421875 3.4375 -7.875l2.0625 0.390625q0.9375 0.921875 -0.0625 1.078125q-0.1875 1.015625 -0.484375 2.015625l6.84375 0zm10.859375 -0.53125q-0.03125 0.25 -0.296875 1.34375l1.421875 0l0 -4.078125l1.8125 0q1.625 0.171875 0.453125 1.03125l0 3.046875l3.640625 0l0 2.1875l-3.640625 0l0 2.9375l5.125 0l0 2.1875l-5.125 0l0 6.015625l-2.265625 0l0 -6.015625l-5.5 0l0 -2.1875l5.5 0l0 -2.9375l-2.09375 0q-0.65625 1.8125 -2.015625 3.359375l-1.828125 -1.703125q2.3125 -2.921875 2.546875 -6.828125l2.34375 0.5625q0.921875 0.921875 -0.078125 1.078125zm-4.546875 14.75l-2.265625 0l0.109375 -8.5q0.078125 0.078125 -1.0625 1.421875l-1.703125 -1.9375q2.96875 -3.421875 3.515625 -8.703125l2.0 0.390625q1.5625 0.46875 0.25 1.03125q-0.421875 2.265625 -1.015625 3.671875l0.125 -0.0625q0.640625 0.640625 0.046875 1.0l0 11.6875z" fill-rule="nonzero"/><path fill="#000000" fill-opacity="0.0" d="m573.78784 436.18875l25.007874 -8.37796" fill-rule="evenodd"/><path stroke="#4a86e8" stroke-width="3.0" stroke-linejoin="round" stroke-linecap="butt" d="m573.78784 436.18875l25.007874 -8.37796" fill-rule="evenodd"/><path fill="#000000" fill-opacity="0.0" d="m574.5598 435.7974l22.677185 9.039368" fill-rule="evenodd"/><path stroke="#4a86e8" stroke-width="3.0" stroke-linejoin="round" stroke-linecap="butt" d="m574.5598 435.7974l22.677185 9.039368" fill-rule="evenodd"/><path fill="#000000" fill-opacity="0.0" d="m597.237 427.47983l22.677185 9.039368" fill-rule="evenodd"/><path stroke="#4a86e8" stroke-width="3.0" stroke-linejoin="round" stroke-linecap="butt" d="m597.237 427.47983l22.677185 9.039368" fill-rule="evenodd"/><path fill="#000000" fill-opacity="0.0" d="m595.29767 444.50635l25.007874 -8.37796" fill-rule="evenodd"/><path stroke="#4a86e8" stroke-width="3.0" stroke-linejoin="round" stroke-linecap="butt" d="m595.29767 444.50635l25.007874 -8.37796" fill-rule="evenodd"/><path fill="#000000" fill-opacity="0.0" d="m611.29126 414.66724l136.09448 0l0 42.015747l-136.09448 0z" fill-rule="evenodd"/><path fill="#4a86e8" d="m624.15063 432.1185l2.484375 0l0 2.421875l-2.484375 0l0 -2.421875zm0 6.828125l2.484375 0l0 2.421875l-2.484375 0l0 -2.421875zm21.859375 -7.078125l-5.34375 0l0 -0.046875l5.421875 0l0 1.671875l-5.421875 0l0 0.03125l7.875 0l0 1.96875l-17.78125 0l0 -1.96875l7.640625 0l0 -0.03125l-5.421875 0l0 -1.671875l5.421875 0l0 0.046875l-5.125 0l0 -1.671875l5.125 0l0 -0.109375l-7.5 0l0 -1.671875l7.5 0l0 -0.046875l-5.125 0l0 -1.671875l5.125 0l0 -1.1875l1.828125 0q1.578125 0.203125 0.4375 1.046875l0 0.140625l5.34375 0l0 1.71875l2.234375 0l0 1.671875l-2.234375 0l0 1.78125zm0 9.046875l-12.734375 0l0 -5.453125l12.734375 0l0 5.453125zm-2.265625 -3.59375l0 -0.1875l-3.078125 0l0 0.1875l3.078125 0zm-5.34375 0l0 -0.1875l-2.859375 0l0 0.1875l2.859375 0zm5.34375 1.921875l0 -0.25l-3.078125 0l0 0.25l3.078125 0zm-12.90625 1.640625l17.703125 0l0 1.96875l-17.703125 0l0 -1.96875zm7.5625 -1.640625l0 -0.25l-2.859375 0l0 0.25l2.859375 0zm5.34375 -9.046875l0 -0.109375l-3.078125 0l0 0.109375l3.078125 0zm0 -1.78125l0 -0.046875l-3.078125 0l0 0.046875l3.078125 0zm12.375 -0.296875q0.40625 -1.078125 0.96875 -3.0l2.09375 0.59375q0.921875 0.90625 -0.140625 1.078125q-0.375 0.890625 -0.53125 1.328125l9.09375 0l0 2.1875l-10.015625 0q-1.09375 2.125 -1.21875 2.265625l2.078125 0l0 -2.375l1.8125 0q1.625 0.171875 0.453125 1.03125l0 1.34375l4.96875 0l0 7.578125q0 1.59375 -1.578125 1.59375l-1.734375 0l-0.359375 -2.203125l1.5 0q0 0.09375 -0.09375 0.09375l0 -4.875l-2.703125 0l0 8.46875l-2.265625 0l0 -8.46875l-2.5625 0l0 6.90625l-2.265625 0l0 -5.8125q-0.703125 0.734375 -2.53125 1.9375l-1.5 -2.046875q3.75 -2.328125 5.46875 -5.4375l-4.625 0l0 -2.1875l5.6875 0z" fill-rule="nonzero"/><path fill="#4a86e8" d="m667.76 441.82162l3.3125 -13.8125l1.921875 0l-3.34375 13.8125l-1.890625 0z" fill-rule="nonzero"/><path fill="#4a86e8" d="m687.3339 426.556q0 1.25 -0.21875 2.015625q1.34375 0.53125 3.46875 1.703125l-1.125 2.21875q-2.109375 -1.5 -3.1875 -1.953125q-0.875 1.28125 -3.359375 1.921875l-0.78125 -2.25q2.9375 -0.609375 2.9375 -2.890625l0 -1.890625l1.84375 0.078125q1.609375 0.21875 0.421875 1.046875zm-8.9375 -0.984375l1.828125 0.09375q1.609375 0.21875 0.4375 1.03125q0 0.890625 -0.234375 1.9375q1.21875 0.484375 2.625 1.4375l-1.03125 2.390625q-1.390625 -1.421875 -2.359375 -1.953125q-0.9375 1.46875 -3.78125 1.921875l-0.9375 -2.015625q3.453125 -0.46875 3.453125 -3.25l0 -1.59375zm-4.015625 6.109375l16.890625 0l0 4.046875l-2.265625 0l0 -1.859375l-5.078125 0l0 0.484375l4.75 0l0 4.9375l-0.515625 0q0.703125 0.390625 3.40625 2.3125l-1.78125 1.765625q-0.9375 -0.828125 -1.40625 -1.171875l-12.046875 0.71875q-0.765625 1.21875 -1.109375 -0.296875l-0.390625 -2.03125l6.828125 -0.078125l0 -1.21875l-2.484375 0l0 0.734375l-2.265625 0l0 -5.671875l4.75 0l0 -0.484375l-5.015625 0l0 2.15625l-2.265625 0l0 -4.34375zm12.5 -3.140625q0.859375 -1.078125 1.6875 -2.578125l1.546875 0.875q1.234375 0.796875 -0.1875 1.125q-0.34375 0.53125 -1.15625 1.65625l-1.890625 -1.078125zm-4.453125 0.171875q0.59375 -1.09375 0.984375 -2.5625l2.0 0.6875q-0.40625 1.59375 -1.234375 2.9375l-1.75 -1.0625zm1.5 8.609375l2.484375 0l0 -1.0l-2.484375 0l0 1.0zm-4.75 0l2.484375 0l0 -1.0l-2.484375 0l0 1.0zm6.171875 1.96875l-1.421875 0l0 1.125l2.34375 0.03125q-0.0625 0.109375 -1.40625 -0.796875l0.484375 -0.359375zm-2.3125 -12.359375q0.875 0.875 -0.21875 1.046875q-0.28125 0.578125 -1.03125 1.65625l-1.796875 -1.09375q0.90625 -1.203125 1.515625 -2.53125l1.53125 0.921875zm-7.859375 1.734375q0.96875 -1.234375 1.453125 -2.75l1.890625 1.078125q-0.578125 1.546875 -1.59375 2.859375l-1.75 -1.1875zm29.875 9.25q-0.078125 0.03125 -1.1875 -1.0l-4.1875 0q-0.59375 0.703125 -0.890625 0.921875l1.875 0l0 -1.1875l1.828125 0q1.609375 0.21875 0.4375 1.03125l0 0.15625l2.125 0.078125zm5.25 2.484375q-2.15625 -0.546875 -2.546875 -0.828125l0 1.625q0 1.578125 -1.578125 1.578125l-1.5 0l-0.46875 -2.1875l1.375 0q0 0.09375 -0.09375 0.09375l0 -0.875l-2.5625 0l0 3.5625l-2.265625 0l0 -3.5625l-2.046875 0l0 2.828125l-2.265625 0l0 -3.125q-0.53125 0.390625 -2.640625 1.125l-0.8125 -1.96875q2.984375 -1.078125 3.765625 -1.75l-3.203125 0l0 -1.96875l5.09375 0l0.125 -0.1875l-2.84375 0l0 -5.53125l2.15625 0l0 -0.1875l-4.53125 0l0 -1.96875l4.53125 0l0 -1.40625l1.609375 0q1.609375 0.21875 0.4375 1.03125l0 0.375l3.375 0l0 -1.40625l1.609375 0q1.640625 0.21875 0.421875 1.03125l0 0.375l4.6875 0l0 1.96875l-4.6875 0l0 0.1875l2.375 0l0 5.53125l-6.71875 0l-0.125 0.1875l9.21875 0l0 1.96875l-3.03125 0q0.515625 0.359375 3.796875 1.34375l-0.65625 2.140625zm-10.265625 -11.359375l0 0.1875l3.375 0l0 -0.1875l-3.375 0zm-2.15625 1.859375l0 0.25l7.90625 0l0 -0.25l-7.90625 0zm0 1.921875l0 0.265625l7.90625 0l0 -0.265625l-7.90625 0z" fill-rule="nonzero"/><path fill="#000000" fill-opacity="0.0" d="m745.83514 436.11264l25.007874 -8.37796" fill-rule="evenodd"/><path stroke="#6bde99" stroke-width="4.0" stroke-linejoin="round" stroke-linecap="butt" d="m745.83514 436.11264l25.007874 -8.37796" fill-rule="evenodd"/><path fill="#000000" fill-opacity="0.0" d="m746.6072 435.72128l22.677124 9.039368" fill-rule="evenodd"/><path stroke="#6bde99" stroke-width="4.0" stroke-linejoin="round" stroke-linecap="butt" d="m746.6072 435.72128l22.677124 9.039368" fill-rule="evenodd"/><path fill="#000000" fill-opacity="0.0" d="m769.2843 427.4037l22.677185 9.039398" fill-rule="evenodd"/><path stroke="#6bde99" stroke-width="4.0" stroke-linejoin="round" stroke-linecap="butt" d="m769.2843 427.4037l22.677185 9.039398" fill-rule="evenodd"/><path fill="#000000" fill-opacity="0.0" d="m767.345 444.43024l25.007874 -8.37796" fill-rule="evenodd"/><path stroke="#6bde99" stroke-width="4.0" stroke-linejoin="round" stroke-linecap="butt" d="m767.345 444.43024l25.007874 -8.37796" fill-rule="evenodd"/><path fill="#000000" fill-opacity="0.0" d="m783.33856 414.59055l151.21265 0l0 42.015747l-151.21265 0z" fill-rule="evenodd"/><path fill="#6bde99" d="m796.19794 432.0418l2.484375 0l0 2.421875l-2.484375 0l0 -2.421875zm0 6.828125l2.484375 0l0 2.421875l-2.484375 0l0 -2.421875z" fill-rule="nonzero"/><path fill="#6bde99" d="m802.5417 437.96368l2.46875 -0.296875q0.125 0.953125 0.640625 1.453125q0.53125 0.5 1.265625 0.5q0.78125 0 1.328125 -0.59375q0.546875 -0.609375 0.546875 -1.640625q0 -0.953125 -0.53125 -1.515625q-0.515625 -0.578125 -1.25 -0.578125q-0.5 0 -1.1875 0.203125l0.28125 -2.09375q1.046875 0.03125 1.59375 -0.4375q0.546875 -0.484375 0.546875 -1.28125q0 -0.671875 -0.40625 -1.078125q-0.390625 -0.40625 -1.0625 -0.40625q-0.65625 0 -1.125 0.46875q-0.453125 0.453125 -0.5625 1.328125l-2.359375 -0.40625q0.25 -1.203125 0.734375 -1.921875q0.5 -0.734375 1.390625 -1.140625q0.890625 -0.421875 2.0 -0.421875q1.875 0 3.015625 1.203125q0.9375 0.984375 0.9375 2.21875q0 1.765625 -1.921875 2.8125q1.15625 0.234375 1.84375 1.09375q0.6875 0.859375 0.6875 2.0625q0 1.765625 -1.296875 3.015625q-1.28125 1.234375 -3.1875 1.234375q-1.8125 0 -3.015625 -1.046875q-1.1875 -1.046875 -1.375 -2.734375zm11.016357 -9.8125l4.9375 0q1.65625 0 2.53125 0.265625q1.1875 0.34375 2.015625 1.234375q0.84375 0.875 1.28125 2.15625q0.4375 1.28125 0.4375 3.15625q0 1.640625 -0.40625 2.84375q-0.5 1.453125 -1.4375 2.359375q-0.703125 0.671875 -1.890625 1.0625q-0.890625 0.28125 -2.390625 0.28125l-5.078125 0l0 -13.359375zm2.703125 2.265625l0 8.84375l2.015625 0q1.125 0 1.625 -0.125q0.65625 -0.171875 1.078125 -0.5625q0.4375 -0.390625 0.703125 -1.28125q0.28125 -0.90625 0.28125 -2.453125q0 -1.546875 -0.28125 -2.375q-0.265625 -0.828125 -0.765625 -1.28125q-0.484375 -0.46875 -1.234375 -0.640625q-0.5625 -0.125 -2.21875 -0.125l-1.203125 0z" fill-rule="nonzero"/><path fill="#6bde99" d="m834.82367 429.07306l0.359375 0l0 -3.78125l1.828125 0q1.609375 0.21875 0.4375 1.03125l0 2.75l2.078125 0l0 2.1875l-2.078125 0l0 3.125l1.78125 -0.6875l0.59375 2.0l-2.375 1.015625l0 6.5l-2.265625 0l0 -5.71875l-1.5625 0.5q-0.125 1.078125 -1.0625 0.140625l-0.6875 -2.109375l3.3125 -0.921875l0 -3.84375l-0.53125 0q-0.109375 1.109375 -0.6875 2.859375l-2.15625 -0.78125q1.0 -2.890625 1.0 -6.40625l2.0625 0.3125q0.65625 0.6875 0.03125 1.046875l-0.078125 0.78125zm14.421875 -0.140625l-0.078125 9.515625q0 4.328125 -2.609375 4.328125l-2.484375 0l-0.4375 -2.421875l2.34375 0q0.921875 0.109375 0.921875 -1.90625l0.078125 -7.328125l-0.03125 0q0.0625 6.328125 -6.9375 12.21875l-1.421875 -2.0q5.65625 -4.203125 6.125 -10.21875l-0.40625 0q-0.28125 4.328125 -4.921875 8.171875l-1.5625 -1.875q3.90625 -3.03125 4.28125 -6.296875l-0.484375 0q-0.734375 1.8125 -2.28125 3.53125l-1.890625 -1.328125q2.796875 -3.421875 3.4375 -7.875l2.0625 0.390625q0.9375 0.921875 -0.0625 1.078125q-0.1875 1.015625 -0.484375 2.015625l6.84375 0zm10.859375 -0.53125q-0.03125 0.25 -0.296875 1.34375l1.421875 0l0 -4.078125l1.8125 0q1.625 0.171875 0.453125 1.03125l0 3.046875l3.640625 0l0 2.1875l-3.640625 0l0 2.9375l5.125 0l0 2.1875l-5.125 0l0 6.015625l-2.265625 0l0 -6.015625l-5.5 0l0 -2.1875l5.5 0l0 -2.9375l-2.09375 0q-0.65625 1.8125 -2.015625 3.359375l-1.828125 -1.703125q2.3125 -2.921875 2.546875 -6.828125l2.34375 0.5625q0.921875 0.921875 -0.078125 1.078125zm-4.546875 14.75l-2.265625 0l0.109375 -8.5q0.078125 0.078125 -1.0625 1.421875l-1.703125 -1.9375q2.96875 -3.421875 3.515625 -8.703125l2.0 0.390625q1.5625 0.46875 0.25 1.03125q-0.421875 2.265625 -1.015625 3.671875l0.125 -0.0625q0.640625 0.640625 0.046875 1.0l0 11.6875zm26.453125 -7.703125q0.765625 -1.1875 1.875 -4.40625l1.8125 1.046875q1.421875 0.796875 -0.046875 1.125q-1.046875 2.59375 -2.484375 4.78125q1.359375 1.921875 1.984375 1.921875q0.3125 0 0.578125 -2.0l2.15625 1.140625q-0.71875 3.5625 -2.078125 3.5625q-2.296875 0 -4.203125 -2.9375q-1.796875 1.96875 -4.90625 3.5l-1.3125 -2.0625q3.78125 -1.875 5.015625 -3.53125q-0.984375 -2.40625 -0.984375 -6.640625l0 -0.28125l-5.53125 0l0 1.828125l4.765625 0l-0.171875 5.453125q-0.078125 1.78125 -1.5 1.78125l-2.25 0l-0.375 -2.1875l1.734375 0q0.203125 0 0.203125 -0.21875l0.140625 -2.640625l-2.546875 0l0 1.765625q0 3.84375 -2.1875 6.625l-1.875 -1.515625q1.796875 -2.21875 1.796875 -4.890625l0 -8.1875l7.796875 0l0 -3.1875l1.828125 0q1.609375 0.21875 0.4375 1.03125l0 2.15625l5.640625 0l0 2.1875l-5.640625 0l0 0.28125q0 3.421875 0.328125 4.5zm0.984375 -10.015625q1.5 0.734375 2.703125 1.953125l-1.6875 1.671875q-0.96875 -1.0625 -2.625 -2.03125l1.609375 -1.59375zm11.390625 1.640625q-0.484375 2.53125 -1.484375 3.875l0.171875 -0.140625q0.640625 0.6875 0.03125 1.03125l0 11.3125l-2.265625 0l0 -8.296875q-0.046875 0.0625 -1.28125 1.171875l-1.1875 -2.171875q3.375 -3.59375 3.9375 -8.625l2.1875 0.78125q0.921875 0.9375 -0.109375 1.0625zm5.6875 10.265625q-1.96875 1.453125 -5.765625 2.71875l-0.59375 -2.03125q3.71875 -1.109375 5.21875 -2.390625l-0.078125 -0.09375q-2.203125 1.328125 -4.96875 2.109375l-0.71875 -1.921875q3.234375 -0.828125 4.21875 -1.5625l-2.3125 0l0 -2.640625q-0.140625 0.125 -1.515625 0.859375l-0.8125 -2.03125q3.296875 -2.125 4.71875 -5.34375l1.84375 0.453125q0.921875 0.921875 -0.1875 1.09375l-0.03125 -0.234375l2.1875 -0.140625l0.296875 -0.40625l1.671875 0.84375q1.125 0.90625 -0.296875 1.203125l-0.921875 1.25l3.625 0l0 5.09375l-4.703125 0q-0.28125 0.21875 -0.359375 0.265625q0.359375 0.265625 0.796875 0.96875q1.421875 -0.703125 2.9375 -1.9375l1.4375 1.453125q0.25 1.171875 -0.6875 0.828125q-1.125 0.609375 -2.375 1.15625q1.53125 1.890625 4.46875 3.0625l-1.328125 2.125q-2.703125 -1.484375 -3.28125 -2.296875q0.390625 3.28125 -2.203125 3.28125l-1.796875 0l-0.46875 -2.1875l1.75 0q0.6875 0 0.5625 -1.34375q-2.140625 1.84375 -6.3125 3.265625l-0.578125 -2.09375q4.046875 -1.34375 6.515625 -3.46875l0.046875 0.09375zm-2.953125 -5.140625l2.1875 0l0 -1.15625l-2.1875 0l0 1.15625zm4.21875 0l2.265625 0l0 -1.15625l-2.265625 0l0 1.15625zm-3.078125 -4.046875q-0.265625 0.375 -0.75 0.921875l2.125 0l0.640625 -0.921875l-2.015625 0z" fill-rule="nonzero"/></g></svg>