<svg version="1.1" viewBox="0.0 0.0 720 240" fill="none" stroke="none" stroke-linecap="square" stroke-miterlimit="10" xmlns:xlink="http://www.w3.org/1999/xlink" xmlns="http://www.w3.org/2000/svg"><clipPath id="gef5c906f2e_0_0.0"><path d="m0 0l960.0 0l0 540.0l-960.0 0l0 -540.0z" clip-rule="nonzero"/></clipPath><g clip-path="url(#gef5c906f2e_0_0.0)"><path fill="#ffffff" d="m0 0l960.0 0l0 540.0l-960.0 0z" fill-rule="evenodd"/><path fill="#eeeeee" d="m11.170604 179.64879l692.69293 0l0 44.25197l-692.69293 0z" fill-rule="evenodd"/><path stroke="#595959" stroke-width="1.0" stroke-linejoin="round" stroke-linecap="butt" d="m11.170604 179.64879l692.69293 0l0 44.25197l-692.69293 0z" fill-rule="evenodd"/><path fill="#000000" fill-opacity="0.0" d="m251.51666 49.651337l105.90552 129.6063l77.18109 -148.50394z" fill-rule="evenodd"/><path stroke="#b7b7b7" stroke-width="1.0" stroke-linejoin="round" stroke-linecap="butt" d="m251.51666 49.651337l105.90552 129.6063l77.18109 -148.50394z" fill-rule="evenodd"/><path fill="#000000" fill-opacity="0.0" d="m357.42218 179.25763l-105.88977 -129.6063" fill-rule="evenodd"/><path stroke="#0097a7" stroke-width="2.0" stroke-linejoin="round" stroke-linecap="butt" d="m357.42215 179.25763l-101.55316 -124.298416" fill-rule="evenodd"/><path fill="#0097a7" stroke="#0097a7" stroke-width="2.0" stroke-linecap="butt" d="m255.869 54.959217l3.1647797 0.31872177l-5.6515045 -3.3624077l2.1679993 6.208477z" fill-rule="evenodd"/><path fill="#000000" fill-opacity="0.0" d="m357.42218 179.25763l77.19684 -148.50394" fill-rule="evenodd"/><path stroke="#bf9000" stroke-width="2.0" stroke-linejoin="round" stroke-linecap="butt" d="m357.42215 179.25763l74.03549 -142.42236" fill-rule="evenodd"/><path fill="#bf9000" stroke="#bf9000" stroke-width="2.0" stroke-linecap="butt" d="m431.45764 36.83526l0.95822144 3.0330315l0.85458374 -6.520363l-4.8458557 4.4455757z" fill-rule="evenodd"/><path fill="#000000" fill-opacity="0.0" d="m357.42218 179.25763l-17.291351 -164.34645" fill-rule="evenodd"/><path stroke="#ff0000" stroke-width="2.0" stroke-linejoin="round" stroke-linecap="butt" d="m357.42215 179.25763l-16.574127 -157.5299" fill-rule="evenodd"/><path fill="#ff0000" stroke="#ff0000" stroke-width="2.0" stroke-linecap="butt" d="m340.84802 21.727726l2.4721375 2.0014782l-2.8833923 -5.9102726l-1.5902405 6.3809566z" fill-rule="evenodd"/><path fill="#000000" fill-opacity="0.0" d="m357.51706 179.64879l0 -166.83464" fill-rule="evenodd"/><path stroke="#0000ff" stroke-width="2.0" stroke-linejoin="round" stroke-linecap="butt" d="m357.51706 179.64879l0 -159.98047" fill-rule="evenodd"/><path fill="#0000ff" stroke="#0000ff" stroke-width="2.0" stroke-linecap="butt" d="m357.51706 19.668322l2.249176 2.2491665l-2.249176 -6.179536l-2.249176 6.179536z" fill-rule="evenodd"/><path fill="#000000" fill-opacity="0.0" d="m357.42218 179.25763l-14.803162 -141.76378" fill-rule="evenodd"/><path stroke="#595959" stroke-width="1.0" stroke-linejoin="round" stroke-linecap="butt" d="m357.42215 179.25763l-14.409515 -137.99426" fill-rule="evenodd"/><path fill="#595959" stroke="#595959" stroke-width="1.0" stroke-linecap="butt" d="m342.67093 37.991154c0.903595 -0.09435654 1.712616 0.5616646 1.8069458 1.4652596c0.09436035 0.903595 -0.5616455 1.7125931 -1.4652405 1.8069458c-0.903595 0.09435654 -1.7125854 -0.5616646 -1.8069458 -1.4652596c-0.09436035 -0.903595 0.5616455 -1.7125931 1.4652405 -1.8069458z" fill-rule="nonzero"/><path fill="#000000" fill-opacity="0.0" d="m448.96683 163.36348l77.165375 -148.44095" fill-rule="evenodd"/><path stroke="#ffd966" stroke-width="2.0" stroke-linejoin="round" stroke-linecap="butt" d="m454.5017 152.71617l71.63049 -137.79364" fill-rule="evenodd"/><path fill="#ffd966" stroke="#ffd966" stroke-width="2.0" stroke-linecap="butt" d="m451.57062 151.19247l-1.2552185 9.576782l7.117401 -6.5293884z" fill-rule="evenodd"/><path fill="#000000" fill-opacity="0.0" d="m526.1322 163.36348l77.165344 -148.44095" fill-rule="evenodd"/><path stroke="#ffd966" stroke-width="2.0" stroke-linejoin="round" stroke-linecap="butt" d="m531.66705 152.71617l71.63049 -137.79364" fill-rule="evenodd"/><path fill="#ffd966" stroke="#ffd966" stroke-width="2.0" stroke-linecap="butt" d="m528.73596 151.19247l-1.255188 9.576782l7.1173706 -6.5293884z" fill-rule="evenodd"/><path fill="#000000" fill-opacity="0.0" d="m603.29755 163.36348l77.165344 -148.44095" fill-rule="evenodd"/><path stroke="#ffd966" stroke-width="2.0" stroke-linejoin="round" stroke-linecap="butt" d="m608.83246 152.71617l71.63043 -137.79364" fill-rule="evenodd"/><path fill="#ffd966" stroke="#ffd966" stroke-width="2.0" stroke-linecap="butt" d="m605.9013 151.19247l-1.255188 9.576782l7.1173706 -6.5293884z" fill-rule="evenodd"/><path fill="#000000" fill-opacity="0.0" d="m34.352665 163.36348l77.16536 -148.44095" fill-rule="evenodd"/><path stroke="#ffd966" stroke-width="2.0" stroke-linejoin="round" stroke-linecap="butt" d="m39.88755 152.71617l71.63047 -137.79364" fill-rule="evenodd"/><path fill="#ffd966" stroke="#ffd966" stroke-width="2.0" stroke-linecap="butt" d="m36.956467 151.19247l-1.2552223 9.576782l7.117386 -6.5293884z" fill-rule="evenodd"/><path fill="#000000" fill-opacity="0.0" d="m111.51802 163.36348l77.16536 -148.44095" fill-rule="evenodd"/><path stroke="#ffd966" stroke-width="2.0" stroke-linejoin="round" stroke-linecap="butt" d="m117.0529 152.71617l71.63048 -137.79364" fill-rule="evenodd"/><path fill="#ffd966" stroke="#ffd966" stroke-width="2.0" stroke-linecap="butt" d="m114.12182 151.19247l-1.2552185 9.576782l7.117386 -6.5293884z" fill-rule="evenodd"/><path fill="#000000" fill-opacity="0.0" d="m250.83455 33.542793l0 0c0.058761597 4.5802574 -1.7873535 8.379463 -4.994293 10.277988c-3.206955 1.898529 -7.4092255 1.679985 -11.368393 -0.59122086l3.2357483 -13.276697z" fill-rule="evenodd"/><path fill="#000000" fill-opacity="0.0" d="m250.83455 33.542793l0 0c0.058761597 4.5802574 -1.7873535 8.379463 -4.994293 10.277988c-3.206955 1.898529 -7.4092255 1.679985 -11.368393 -0.59122086" fill-rule="evenodd"/><path stroke="#0097a7" stroke-width="3.0" stroke-linejoin="round" stroke-linecap="butt" d="m250.83455 33.542793l0 0c0.058761597 4.5802574 -1.7873535 8.379463 -4.994293 10.277988c-3.206955 1.898529 -7.4092255 1.679985 -11.368393 -0.59122086" fill-rule="evenodd"/><path fill="#000000" fill-opacity="0.0" d="m236.91516 28.126892l22.576721 8.105507" fill-rule="evenodd"/><path stroke="#0097a7" stroke-width="3.0" stroke-linejoin="round" stroke-linecap="butt" d="m236.91516 28.126892l22.576721 8.105507" fill-rule="evenodd"/><path fill="#000000" fill-opacity="0.0" d="m236.91516 28.126892l-4.1498566 24.296497" fill-rule="evenodd"/><path stroke="#0097a7" stroke-width="3.0" stroke-linejoin="round" stroke-linecap="butt" d="m236.91516 28.126892l-4.1498566 24.296497" fill-rule="evenodd"/><path fill="#000000" d="m242.55133 38.15234l0 0c3.701126 -2.1449165 7.536789 -2.4423637 8.567184 -0.6643715l0 0c0.494812 0.8538208 0.26332092 2.0818481 -0.6435547 3.413929c-0.90689087 1.332077 -2.4148712 2.6590958 -4.192215 3.6891174l0 0c-3.701126 2.1449165 -7.536789 2.4423637 -8.567184 0.6643715l0 0c-1.0303955 -1.7779884 1.1346436 -4.9581337 4.8357697 -7.1030464z" fill-rule="evenodd"/><path stroke="#0097a7" stroke-width="3.0" stroke-linejoin="round" stroke-linecap="butt" d="m242.55133 38.15234l0 0c3.701126 -2.1449165 7.536789 -2.4423637 8.567184 -0.6643715l0 0c0.494812 0.8538208 0.26332092 2.0818481 -0.6435547 3.413929c-0.90689087 1.332077 -2.4148712 2.6590958 -4.192215 3.6891174l0 0c-3.701126 2.1449165 -7.536789 2.4423637 -8.567184 0.6643715l0 0c-1.0303955 -1.7779884 1.1346436 -4.9581337 4.8357697 -7.1030464z" fill-rule="evenodd"/><path fill="#000000" fill-opacity="0.0" d="m364.06638 156.714l64.50394 -131.2126l30.456696 14.960632l-64.50394 131.21259z" fill-rule="evenodd"/><path fill="#bf9000" d="m384.95142 156.52795l0.31472778 -0.99435425q0.60232544 0.19142151 1.0691528 -0.014465332q0.47375488 -0.21990967 0.7977295 -0.878952q0.31710815 -0.64501953 0.2163086 -1.0775146q-0.107910156 -0.45339966 -0.47253418 -0.6325073q-0.3225708 -0.15844727 -0.64276123 0.032440186q-0.22271729 0.13430786 -0.79818726 0.80908203q-0.7765808 0.9067688 -1.158783 1.2238464q-0.38937378 0.29618835 -0.8293457 0.34118652q-0.44000244 0.04499817 -0.8607178 -0.16166687q-0.36465454 -0.17912292 -0.6044922 -0.50582886q-0.23983765 -0.32670593 -0.30545044 -0.7245178q-0.04397583 -0.30012512 0.029968262 -0.73384094q0.073913574 -0.43371582 0.29449463 -0.8824158q0.31710815 -0.6450348 0.7546997 -1.0393677q0.43048096 -0.41523743 0.87023926 -0.49517822q0.43972778 -0.07992554 1.0140381 0.097717285l-0.32873535 0.98747253q-0.44833374 -0.15058899 -0.8383789 0.040802002q-0.3972168 0.17045593 -0.6729431 0.73135376q-0.31707764 0.64501953 -0.2305603 1.0356903q0.072509766 0.3837738 0.3670044 0.5284424q0.18231201 0.08955383 0.37771606 0.04626465q0.2163086 -0.05041504 0.43167114 -0.24057007q0.12503052 -0.1126709 0.65200806 -0.7242279q0.77679443 -0.8718262 1.138092 -1.181778q0.36132812 -0.30995178 0.79415894 -0.37586975q0.43286133 -0.06590271 0.92370605 0.17520142q0.47683716 0.23422241 0.7597046 0.721344q0.27572632 0.46620178 0.25909424 1.1021271q-0.030639648 0.6290436 -0.35464478 1.2880859q-0.5376587 1.0937347 -1.2690735 1.4482117q-0.7385559 0.33355713 -1.6979065 0.05378723zm6.3012085 -8.603149l-0.8274536 -0.40644836q0.6296997 1.1274872 0.07821655 2.2492676q-0.24127197 0.4907837 -0.63726807 0.835907q-0.4031372 0.324234 -0.7870178 0.39678955q-0.3979187 0.06565857 -0.86001587 -0.056869507q-0.29403687 -0.074798584 -0.9111023 -0.37791443l-3.4500122 -1.6946716l0.46875 -0.9535217l3.0993958 1.5224609q0.72924805 0.35821533 1.0232849 0.43301392q0.40600586 0.09498596 0.7682495 -0.07524109q0.35513306 -0.19113159 0.56881714 -0.625824q0.20681763 -0.42066956 0.17565918 -0.8885803q-0.038269043 -0.4888153 -0.34109497 -0.8290558q-0.29592896 -0.35427856 -1.0111694 -0.7056122l-2.9872131 -1.4673309l0.46185303 -0.9394989l5.581726 2.7417908l-0.41360474 0.8413391zm1.1382446 -2.3154297l-5.5816956 -2.7417755l0.4205017 -0.85536194l0.8414612 0.41333008q-0.43048096 -0.6118469 -0.48184204 -0.9678192q-0.05847168 -0.3768921 0.10696411 -0.7134247q0.234375 -0.47676086 0.7701721 -0.8228607l0.7249756 0.75650024q-0.38269043 0.2472229 -0.5481262 0.5837555q-0.15853882 0.32252502 -0.08630371 0.6713562q0.06515503 0.3279419 0.3534851 0.59143066q0.42214966 0.41627502 1.0111694 0.7055969l2.9310913 1.4397888l-0.46185303 0.93948364zm1.8801575 -3.8245544l-4.8524475 -2.3835602l-0.41357422 0.84132385l-0.72927856 -0.35821533l0.41360474 -0.8413391l-0.60305786 -0.29621887q-0.5609741 -0.27555847 -0.7791748 -0.50460815q-0.3097229 -0.32621765 -0.36868286 -0.77297974q-0.05206299 -0.46076965 0.25125122 -1.0777588q0.19989014 -0.40664673 0.5324402 -0.83517456l0.7444763 0.53977966q-0.18682861 0.2738037 -0.31781006 0.54022217q-0.21368408 0.43469238 -0.12097168 0.7065277q0.09957886 0.25782776 0.60446167 0.50582886l0.5189209 0.25489807l0.5376587 -1.0937347l0.72927856 0.35821533l-0.5376892 1.0937347l4.8524475 2.3835754l-0.46185303 0.93948364zm2.4656372 -6.7509766q0.18682861 0.7532959 0.12789917 1.3336182q-0.05206299 0.5663147 -0.3277893 1.1272125q-0.45498657 0.9254608 -1.1450195 1.1958008q-0.69003296 0.2703247 -1.3912659 -0.07411194q-0.40670776 -0.19978333 -0.6536865 -0.54740906q-0.26098633 -0.35450745 -0.30566406 -0.7594452q-0.05871582 -0.41181946 0.02923584 -0.83865356q0.046813965 -0.30775452 0.25930786 -0.917099q0.43215942 -1.1977997 0.5046387 -1.8411255q-0.19631958 -0.09643555 -0.23840332 -0.117111206q-0.5890198 -0.2893219 -0.95840454 -0.14001465q-0.48776245 0.2130127 -0.83932495 0.92814636q-0.32400513 0.6590576 -0.2441101 1.0986786q0.065826416 0.432724 0.5790405 0.87631226l-0.58117676 0.86346436q-0.52700806 -0.4155426 -0.7468872 -0.8891144q-0.21984863 -0.47357178 -0.14736938 -1.1168976q0.072509766 -0.64331055 0.42407227 -1.3584442q0.3515625 -0.71513367 0.7404175 -1.0811768q0.3888855 -0.3660431 0.74472046 -0.45237732q0.35583496 -0.08633423 0.7898865 0.02243042q0.25909424 0.075042725 0.89019775 0.38504028l1.2621765 0.6200104q1.3182983 0.6475525 1.6965027 0.76368713q0.3850708 0.10211182 0.7972412 0.07826233l-0.48944092 0.9955902q-0.36343384 -0.0044555664 -0.77679443 -0.15527344zm-2.1590576 -0.9560852q-0.044677734 0.6221466 -0.39361572 1.7215424q-0.2053833 0.63027954 -0.21035767 0.9237671q-0.019012451 0.28659058 0.10839844 0.52326965q0.13427734 0.22264099 0.38671875 0.3466339q0.3786621 0.18600464 0.76898193 0.029556274q0.39718628 -0.17045593 0.6660156 -0.71733093q0.26885986 -0.54685974 0.23724365 -1.0846405q-0.024719238 -0.5518036 -0.3489685 -0.95477295q-0.24673462 -0.31269836 -0.86380005 -0.6158142l-0.35061646 -0.1722107zm3.742981 -5.7013855l0.58117676 -0.86346436q0.87783813 0.6226959 1.1145935 1.5223541q0.23675537 0.89967346 -0.21130371 1.8111115q-0.5652466 1.149826 -1.6531982 1.4858246q-1.0950928 0.315094 -2.497528 -0.37379456q-0.897583 -0.4409027 -1.4259949 -1.06604q-0.53552246 -0.64604187 -0.5757141 -1.4143219q-0.03326416 -0.7823181 0.3251648 -1.5114746q0.44119263 -0.8974228 1.186615 -1.2450027q0.73831177 -0.3684845 1.6765137 -0.11653137l-0.31472778 0.9943619q-0.62301636 -0.14936066 -1.0689392 0.0493927q-0.45996094 0.19187164 -0.6943054 0.6686249q-0.3515625 0.71513367 -0.053253174 1.4187317q0.28430176 0.6967163 1.3922119 1.2409363q1.1359863 0.5580139 1.8545532 0.37132263q0.7185669 -0.18669128 1.0563354 -0.8737793q0.27572632 -0.5608978 0.118377686 -1.090805q-0.15045166 -0.54393005 -0.8105774 -1.0074463zm2.9822083 -5.4288025l0.59472656 -0.926445q0.7451782 0.64458466 0.9118347 1.5098038q0.16662598 0.86522675 -0.309021 1.832756q-0.59973145 1.2199402 -1.7154846 1.5770874q-1.1088867 0.34313202 -2.4692383 -0.3250885q-1.4024353 -0.6888962 -1.8153381 -1.796936q-0.4269104 -1.1149368 0.13833618 -2.2647629q0.55148315 -1.1217804 1.6534424 -1.4508896q1.1088867 -0.34313202 2.4973145 0.33887482q0.08413696 0.04133606 0.2524109 0.12400055l-2.0473022 4.164604q0.95318604 0.39857483 1.6715088 0.17695618q0.7043152 -0.228508 1.0489807 -0.92962646q0.25506592 -0.5188217 0.16781616 -1.0142899q-0.09436035 -0.5163727 -0.5799866 -1.0160446zm-3.0520935 2.3480225l1.5303345 -3.112938q-0.74282837 -0.2952423 -1.2381897 -0.17299652q-0.7744446 0.19406128 -1.1260071 0.90919495q-0.3239746 0.65905 -0.109802246 1.321312q0.22106934 0.64824677 0.94366455 1.0554276zm6.936737 -5.716728l-6.801819 -3.3411255l-1.2476807 2.538025l-0.9115906 -0.4477768l3.0054932 -6.113693l0.91156006 0.4477768l-1.2545776 2.5520477l6.801819 3.3411255l-0.50320435 1.0236206zm-1.3363647 -4.329582q-1.5567017 -0.7646713 -1.8794861 -1.9851379q-0.26553345 -1.0182495 0.24456787 -2.055893q0.5652466 -1.149826 1.6810303 -1.5069809q1.1086426 -0.3780594 2.4409485 0.27638245q1.079895 0.5304489 1.5384216 1.1560745q0.4585266 0.625618 0.49893188 1.4288483q0.03326416 0.7823105 -0.3251648 1.511467q-0.57214355 1.1638412 -1.6738892 1.5278854q-1.1088867 0.34313202 -2.52536 -0.35264587zm0.47564697 -0.9675369q1.0658569 0.5235596 1.8262634 0.32260132q0.76730347 -0.21497345 1.111969 -0.9160843q0.3515625 -0.71513367 0.04611206 -1.4396439q-0.30545044 -0.7245178 -1.399353 -1.2618484q-1.0378113 -0.5097809 -1.8051147 -0.29480743q-0.7604065 0.20095825 -1.105072 0.9020691q-0.34466553 0.70111084 -0.04611206 1.4396439q0.29144287 0.71762085 1.3713074 1.2480698zm5.4663086 -4.07148l-7.7134094 -3.78891l0.50320435 -1.0236206l6.8018494 3.3411255l1.8680725 -3.800026l0.9115906 0.44778442l-2.3713074 4.8236465zm-3.7096558 -9.170708l-1.0939026 -0.5373306l0.46875 -0.9535141l1.0939026 0.53733826l-0.46875 0.95350647zm6.619507 3.2515717l-5.5816956 -2.7417908l0.46871948 -0.95350647l5.581726 2.7417831l-0.46875 0.9535141zm1.5493469 -1.9829178l0.59521484 -0.85658264q0.44830322 0.15058136 0.77560425 -0.01939392q0.43881226 -0.21966553 0.7352295 -0.8226242q0.3239746 -0.65904236 0.2298584 -1.1404877q-0.087249756 -0.49546814 -0.4880066 -0.84900665q-0.25317383 -0.22879791 -1.185669 -0.6694412q0.42596436 0.97519684 -0.0289917 1.9006653q-0.5652466 1.149826 -1.7028809 1.3743744q-1.1516724 0.21766663 -2.3016663 -0.34722137q-0.79937744 -0.39266968 -1.3346863 -1.0037842q-0.54244995 -0.63201904 -0.6382446 -1.3580017q-0.09579468 -0.72597504 0.26956177 -1.4691544q0.4894104 -0.9955826 1.605896 -1.2479324l-0.67315674 -0.33067322l0.42736816 -0.86937714l4.824402 2.3697891q1.3042603 0.6406708 1.7202454 1.1757584q0.4159851 0.5350952 0.44189453 1.2615585q0.039916992 0.7333603 -0.37365723 1.5746918q-0.48944092 0.99557495 -1.2415161 1.3921127q-0.7521057 0.39653015 -1.6567993 -0.06526947zm-2.9657898 -2.4317017q1.0939026 0.53733826 1.8124695 0.3506546q0.7185669 -0.18669128 1.042572 -0.84573364q0.3239746 -0.65905 0.03277588 -1.3417358q-0.28427124 -0.6967163 -1.3501282 -1.2202682q-1.0237732 -0.50289154 -1.7701721 -0.29505157q-0.73947144 0.19382477 -1.0565796 0.8388443q-0.31021118 0.6309967 -0.011871338 1.3346024q0.2911682 0.68268585 1.3009338 1.178688zm5.5369263 -3.9671707l-7.71344 -3.7889023l0.46185303 -0.9394913l2.7628174 1.3571167q-0.4333191 -1.031044 0.06298828 -2.0406418q0.31021118 -0.63100433 0.78323364 -0.95571136q0.46588135 -0.34562683 0.99713135 -0.32837677q0.51724243 0.010353088 1.344696 0.41680145l3.5341492 1.7360077l-0.46185303 0.9394913l-3.5341492 -1.7360077q-0.7152405 -0.35134125 -1.1894531 -0.20129395q-0.47421265 0.15003967 -0.7499695 0.7109299q-0.20678711 0.42066956 -0.16851807 0.9094925q0.031158447 0.46791077 0.3270874 0.8221817q0.28881836 0.33335114 0.947937 0.657135l3.0573425 1.5017853l-0.46185303 0.93948364zm3.11615 -8.463844l0.8963623 0.2662201q-0.115753174 0.4479828 -0.26739502 0.7564697q-0.25506592 0.5188217 -0.5472107 0.72348785q-0.30615234 0.1977768 -0.63464355 0.19309235q-0.32162476 -0.018714905 -1.1770935 -0.43893433l-3.211609 -1.577568l-0.33776855 0.687088l-0.72924805 -0.35822296l0.33776855 -0.687088l-1.3884277 -0.6819992l-0.099121094 -1.2150497l1.9494019 0.9575577l0.46875 -0.95350647l0.72924805 0.35822296l-0.46875 0.9535141l3.2677002 1.6051178q0.40670776 0.1997757 0.5395813 0.21282196q0.13977051 -9.765625E-4 0.26504517 -0.07871246q0.12524414 -0.0777359 0.22866821 -0.28807068q0.08270264 -0.1682663 0.17874146 -0.4344406zm1.3541565 -0.62957l-7.7134094 -3.7889023l1.3097229 -2.6642227q0.4411621 -0.8974228 0.7877197 -1.3190689q0.47827148 -0.5832672 1.0984192 -0.85311127q0.8222046 -0.36209106 1.7803955 -0.25699615q0.9510498 0.08417511 1.974823 0.58706665q0.8835449 0.43400574 1.4533081 0.9750061q0.57666016 0.52697754 0.8668823 1.0699387q0.2902527 0.5429535 0.3496704 1.059578q0.0663147 0.5026016 -0.055389404 1.104332q-0.13571167 0.59484863 -0.4803772 1.2959595l-1.3717651 2.7904205zm-0.40838623 -1.4713974l0.80651855 -1.6406021q0.3791504 -0.771225 0.45257568 -1.2748032q0.07345581 -0.5035782 -0.06893921 -0.88687134q-0.1713562 -0.53679657 -0.69192505 -1.0362244q-0.5136719 -0.513443 -1.3832092 -0.9405594q-1.2060852 -0.5924454 -2.051117 -0.50268555q-0.85214233 0.06884003 -1.3522644 0.51950836q-0.36108398 0.34488678 -0.8022461 1.2423096l-0.7996216 1.6265793l5.8902283 2.8933487zm-2.4430847 -9.445068l-1.0939026 -0.53733826l0.46875 -0.9535141l1.0939026 0.53733826l-0.46875 0.9535141zm6.619507 3.251564l-5.5816956 -2.7417908l0.46875 -0.95350647l5.5816956 2.7417908l-0.46875 0.95350647zm1.169281 -2.3785172l-5.5816956 -2.7417908l0.4205017 -0.8553543l0.8414612 0.41333008q-0.43048096 -0.6118393 -0.48184204 -0.9678192q-0.05847168 -0.3768921 0.10696411 -0.7134247q0.234375 -0.47675323 0.7701721 -0.82286835l0.7249756 0.7565155q-0.38269043 0.2472229 -0.5481262 0.5837555q-0.15856934 0.32250977 -0.08630371 0.6713562q0.06515503 0.32793427 0.3534851 0.59142303q0.42214966 0.4162674 1.0111694 0.70560455l2.9310913 1.4397812l-0.46185303 0.9394913zm1.8497314 -8.296036l0.59472656 -0.926445q0.7451782 0.644577 0.9118042 1.5098038q0.1666565 0.8652191 -0.30899048 1.832756q-0.59973145 1.2199326 -1.7154846 1.5770874q-1.1088867 0.34313202 -2.4692383 -0.3250885q-1.4024353 -0.6888962 -1.8153381 -1.7969437q-0.4269104 -1.1149368 0.13833618 -2.2647552q0.55145264 -1.1217804 1.6534424 -1.4508896q1.1088867 -0.34313202 2.497284 0.33887482q0.08416748 0.04132843 0.2524414 0.12400055l-2.0473022 4.1645966q0.95318604 0.39858246 1.6715088 0.1769638q0.7043152 -0.22851562 1.0489807 -0.92962646q0.25506592 -0.5188217 0.16781616 -1.0142899q-0.09436035 -0.5163803 -0.5799866 -1.0160446zm-3.0520935 2.3480225l1.5303345 -3.112938q-0.74282837 -0.2952423 -1.2381897 -0.17300415q-0.7744446 0.19406891 -1.1260071 0.9092026q-0.3239746 0.65904236 -0.109802246 1.321312q0.22106934 0.64824677 0.94366455 1.0554276zm5.6612244 -8.293003l0.58117676 -0.86346436q0.87783813 0.6226883 1.1145935 1.522358q0.23675537 0.89966583 -0.21130371 1.8111115q-0.5652466 1.149826 -1.6532288 1.4858246q-1.0950928 0.31508636 -2.497528 -0.37380219q-0.8975525 -0.44089508 -1.4259644 -1.0660324q-0.535553 -0.64604187 -0.5757141 -1.4143333q-0.03326416 -0.7823105 0.3251648 -1.511467q0.44119263 -0.8974228 1.186615 -1.2449989q0.73828125 -0.3684883 1.6765137 -0.11653137l-0.31472778 0.99435425q-0.62301636 -0.14935684 -1.0689392 0.04940033q-0.45996094 0.19186401 -0.69433594 0.66862106q-0.3515625 0.71513367 -0.053222656 1.4187355q0.28427124 0.6967087 1.3922119 1.2409363q1.1359863 0.5580063 1.8545532 0.371315q0.7185669 -0.18669128 1.0563354 -0.8737793q0.27572632 -0.5608902 0.118377686 -1.0908012q-0.15048218 -0.54393387 -0.8105774 -1.0074463zm3.0741882 -3.2075768l0.8963623 0.2662239q-0.115753174 0.44797897 -0.26739502 0.7564697q-0.25506592 0.5188217 -0.5471802 0.72348785q-0.30618286 0.1977768 -0.6346741 0.19308853q-0.32159424 -0.01871109 -1.1770935 -0.43893814l-3.2115784 -1.5775604l-0.33776855 0.687088l-0.72927856 -0.35822296l0.33776855 -0.687088l-1.3884277 -0.682003l-0.099121094 -1.2150459l1.9494019 0.9575577l0.46875 -0.9535103l0.72924805 0.35822296l-0.46871948 0.9535103l3.2676697 1.6051178q0.40670776 0.19977951 0.5395813 0.21282578q0.13977051 -9.765625E-4 0.26504517 -0.07871246q0.12527466 -0.077732086 0.22866821 -0.28806686q0.08270264 -0.1682663 0.17874146 -0.43444443zm-5.3204956 -3.768959l-1.0939026 -0.53733444l0.46875 -0.9535141l1.0939026 0.53733826l-0.46875 0.9535103zm6.619507 3.2515678l-5.5816956 -2.741787l0.46871948 -0.9535141l5.581726 2.7417908l-0.46875 0.9535103zm-1.7870178 -3.41288q-1.5567017 -0.7646713 -1.8795166 -1.9851379q-0.26550293 -1.0182457 0.24459839 -2.055893q0.5652466 -1.1498222 1.6810303 -1.5069771q1.1086426 -0.3780632 2.4409485 0.27638245q1.0798645 0.5304451 1.5383911 1.1560707q0.4585266 0.6256218 0.4989624 1.4288483q0.03326416 0.7823105 -0.3251953 1.511467q-0.57214355 1.1638451 -1.6738892 1.5278893q-1.1088562 0.34313202 -2.5253296 -0.3526497zm0.47564697 -0.9675331q1.0658569 0.52355576 1.8262634 0.32260132q0.76727295 -0.21497726 1.1119385 -0.9160881q0.3515625 -0.71513367 0.04611206 -1.4396439q-0.30541992 -0.724514 -1.3993225 -1.2618484q-1.0378113 -0.5097809 -1.8051147 -0.29480362q-0.7604065 0.20095444 -1.105072 0.9020653q-0.34466553 0.70111084 -0.04611206 1.4396477q0.29141235 0.71762085 1.3713074 1.2480698zm5.4318542 -4.0013733l-5.581726 -2.7417908l0.41360474 -0.8413315l0.7853699 0.38578033q-0.60827637 -1.0647583 -0.036132812 -2.2286034q0.24816895 -0.5048027 0.63726807 -0.8359108q0.3960266 -0.34513474 0.7939148 -0.41080093q0.3979187 -0.0656662 0.8319702 0.04309082q0.2871399 0.08882141 0.94628906 0.41260147l3.4359741 1.6877861l-0.46185303 0.93948746l-3.3938904 -1.6671181q-0.5890503 -0.28933334 -0.9246826 -0.31493378q-0.33563232 -0.025600433 -0.64178467 0.17217636q-0.32019043 0.19088745 -0.5062866 0.5694885q-0.29641724 0.60295486 -0.12432861 1.2445564q0.16497803 0.6206894 1.230835 1.144249l3.057312 1.5017853l-0.46185303 0.93948746z" fill-rule="nonzero"/><path fill="#000000" fill-opacity="0.0" d="m257.73004 49.627068l110.20471 129.35434l-25.826752 22.015747l-110.20474 -129.35434z" fill-rule="evenodd"/><path fill="#0097a7" d="m249.6087 68.868965l0.7876892 0.68362427q-0.4148407 0.47681427 -0.41122437 0.9870224q0.013748169 0.52210236 0.48999023 1.0811081q0.4661255 0.54711914 0.90309143 0.6263275q0.45898438 0.080963135 0.7681427 -0.18257904q0.27349854 -0.23313904 0.22541809 -0.6027832q-0.034835815 -0.25774384 -0.4256897 -1.0538101q-0.5239105 -1.072731 -0.6631775 -1.5494232q-0.117263794 -0.4749298 0.01612854 -0.8966141q0.13339233 -0.42167664 0.4901123 -0.72576904q0.30917358 -0.26354218 0.70425415 -0.3539505q0.39509583 -0.090408325 0.7862549 0.0073165894q0.29292297 0.07879639 0.6616516 0.31884003q0.36871338 0.24004364 0.6929779 0.6206436q0.46611023 0.5471115 0.6542969 1.1053009q0.21020508 0.5599518 0.10897827 0.99528503q-0.10122681 0.43532562 -0.4922943 0.8918686l-0.7758026 -0.69376373q0.3162079 -0.35166168 0.29542542 -0.78564453q0.0012359619 -0.43222046 -0.40408325 -0.90797424q-0.46611023 -0.5471115 -0.8590393 -0.62281036q-0.38101196 -0.08583069 -0.6307373 0.12703705q-0.15457153 0.13176727 -0.19241333 0.32828522q-0.039611816 0.218544 0.04940796 0.4916916q0.053771973 0.15948486 0.405838 0.88594055q0.49176025 1.059082 0.63279724 1.5137482q0.14103699 0.4546585 0.029663086 0.87809753q-0.11135864 0.4234314 -0.5275421 0.7782059q-0.40429688 0.344635 -0.9636841 0.41085052q-0.5373688 0.067970276 -1.1144409 -0.19978333q-0.5651703 -0.27788544 -1.0414276 -0.8368988q-0.79037476 -0.9277115 -0.8253174 -1.7397232q-0.012924194 -0.8102493 0.62475586 -1.5796661zm5.3943634 9.198845l0.7015686 -0.5980377q-1.2848358 0.13025665 -2.0954742 -0.8212433q-0.35466003 -0.41628265 -0.51420593 -0.9167633q-0.1375122 -0.49871826 -0.051696777 -0.8798523q0.097717285 -0.3912735 0.39364624 -0.76672363q0.18540955 -0.24016571 0.7086029 -0.68616486l2.925171 -2.493538l0.6890564 0.80877686l-2.6278992 2.2401276q-0.6183319 0.527092 -0.8037262 0.7672577q-0.24836731 0.33490753 -0.23596191 0.73496246q0.034423828 0.40181732 0.34854126 0.7705231q0.30400085 0.35681152 0.7458191 0.51400757q0.46385193 0.1589508 0.89637756 0.016098022q0.44265747 -0.13095093 1.0490723 -0.64790344l2.5327759 -2.1590424l0.67892456 0.7968826l-4.732605 4.0342636l-0.60798645 -0.7136307zm1.673233 1.9639664l4.732605 -4.0342636l0.618103 0.7255249l-0.71347046 0.6081772q0.7324829 -0.15216827 1.0796204 -0.05796051q0.3691101 0.095970154 0.6123047 0.38141632q0.34454346 0.40439606 0.4494629 1.0335388l-0.98217773 0.36502838q-0.07495117 -0.4493866 -0.31814575 -0.7348404q-0.23306274 -0.27355194 -0.5819397 -0.34573364q-0.32684326 -0.07041931 -0.6831665 0.08959198q-0.5496521 0.22218323 -1.0490723 0.6479111l-2.4852295 2.1184921l-0.67889404 -0.7968826zm2.7637634 3.2440262l4.1142883 -3.5071716l-0.6079712 -0.71362305l0.61831665 -0.527092l0.6079712 0.7136307l0.511322 -0.4358673q0.47564697 -0.4054489 0.77249146 -0.51478577q0.4223938 -0.15473938 0.85583496 -0.031471252q0.44360352 0.13516235 0.8894348 0.65849304q0.29385376 0.3449173 0.55514526 0.8202591l-0.7909851 0.46897125q-0.17712402 -0.28018188 -0.36965942 -0.50616455q-0.31411743 -0.36870575 -0.60043335 -0.39154816q-0.27618408 -0.010955811 -0.70425415 0.3539505l-0.43997192 0.37504578l0.79037476 0.9277191l-0.61831665 0.52708435l-0.79037476 -0.9277115l-4.1142883 3.5071716l-0.67892456 -0.79689026zm5.2172546 4.943245q-0.76556396 -0.12760162 -1.2748108 -0.41210938q-0.49908447 -0.27262115 -0.90441895 -0.7483673q-0.6687622 -0.78499603 -0.6429138 -1.5256348q0.025848389 -0.74064636 0.62039185 -1.247467q0.34484863 -0.29395294 0.7619629 -0.3826065q0.4289856 -0.0987854 0.8183899 0.020965576q0.40130615 0.10961914 0.7581177 0.35979462q0.2638855 0.16516876 0.73880005 0.6021347q0.9277954 0.8721695 1.4894409 1.1941147q0.16647339 -0.14190674 0.20214844 -0.1723175q0.49942017 -0.42572784 0.5090332 -0.824028q-0.0018310547 -0.5322342 -0.5186157 -1.1388168q-0.47625732 -0.55900574 -0.9114685 -0.6602478q-0.42330933 -0.1113739 -1.0342102 0.18351746l-0.5617676 -0.8762207q0.5906372 -0.3186798 1.1125793 -0.33245087q0.52197266 -0.0137786865 1.0836487 0.30817413q0.5616455 0.3219452 1.0784302 0.92852783q0.51678467 0.60658264 0.69836426 1.1088257q0.18154907 0.5022354 0.119506836 0.86309814q-0.062042236 0.3608551 -0.334198 0.71604156q-0.17172241 0.20799255 -0.7068176 0.66413116l-1.0701904 0.9122696q-1.1177673 0.9528122 -1.3745117 1.2537994q-0.24661255 0.31287384 -0.3883667 0.7006302l-0.7194519 -0.84445953q0.14837646 -0.33180237 0.45092773 -0.6512985zm1.7347412 -1.6019516q-0.5532837 -0.2880249 -1.4237976 -1.0447693q-0.49691772 -0.4387207 -0.76431274 -0.5598221q-0.25549316 -0.13124084 -0.5233154 -0.10826874q-0.2576599 0.034858704 -0.4717102 0.21731567q-0.32104492 0.27368164 -0.33242798 0.6940079q-0.0012512207 0.4322281 0.39395142 0.89608765q0.39517212 0.46385193 0.90133667 0.6483536q0.51626587 0.19638824 1.0148621 0.058807373q0.38494873 -0.10230255 0.9081421 -0.5483017l0.29727173 -0.25341034zm3.7467651 5.69886l0.5617676 0.8762207q-0.92004395 0.55844116 -1.8397827 0.41853333q-0.91973877 -0.13990021 -1.5783997 -0.913002q-0.8309021 -0.9752884 -0.7073364 -2.1072006q0.14559937 -1.1301575 1.3346863 -2.1437912q0.76104736 -0.6487274 1.5445862 -0.88549805q0.805603 -0.2350235 1.5267029 0.03314209q0.7312317 0.28005219 1.2581482 0.89852905q0.64852905 0.76119995 0.6715698 1.5833511q0.045074463 0.8238983 -0.5586853 1.584938l-0.7876892 -0.68362427q0.38446045 -0.51249695 0.37905884 -1.0006714q0.0065307617 -0.49832153 -0.33798218 -0.90270996q-0.51678467 -0.60658264 -1.2810059 -0.61213684q-0.75234985 -0.015693665 -1.691742 0.78507996q-0.9631653 0.8210373 -1.0771179 1.554657q-0.11395264 0.73361206 0.38256836 1.3164062q0.40533447 0.47575378 0.9541626 0.54172516q0.5589905 0.07785797 1.2464905 -0.34394836zm3.798645 4.892395l0.6141968 0.91365814q-0.8874817 0.42801666 -1.7477722 0.23743439q-0.8602905 -0.1905899 -1.5594482 -1.011261q-0.8815918 -1.0347595 -0.76638794 -2.2005997q0.1253357 -1.1539459 1.2787476 -2.137169q1.1890869 -1.0136337 2.3700256 -0.952652q1.19281 0.050842285 2.0237122 1.0261307q0.8106384 0.95149994 0.6752014 2.0935516q-0.1253357 1.1539459 -1.3025513 2.1574478q-0.0713501 0.060813904 -0.21401978 0.18244934l-3.0095215 -3.5324554q-0.7442627 0.7165756 -0.8260803 1.4638443q-0.069885254 0.7371292 0.43676758 1.3318176q0.37490845 0.4400711 0.86428833 0.5567169q0.5114136 0.1184082 1.1628418 -0.12891388zm-0.94329834 -3.7333832l2.2495422 2.640419q0.56591797 -0.5645294 0.6503906 -1.0677032q0.12936401 -0.7878113 -0.38742065 -1.3944016q-0.47625732 -0.55900574 -1.1691284 -0.62538147q-0.68273926 -0.054481506 -1.3433838 0.44706726zm2.4928284 8.636139l5.7671204 -4.9161224l-1.8340759 -2.152771l0.7729187 -0.6588669l4.4179993 5.1856995l-0.7729187 0.65885925l-1.8442078 -2.1646729l-5.7671204 4.9161224l-0.7397156 -0.868248zm4.504364 0.49246216q1.3199158 -1.1251297 2.5682373 -0.93683624q1.0400085 0.1605835 1.7898254 1.0407257q0.8309326 0.9752884 0.71572876 2.1411285q-0.093170166 1.1675949 -1.2228088 2.1305466q-0.9156189 0.7805023 -1.671875 0.9529419q-0.7562561 0.17243958 -1.5095215 -0.109375q-0.7312317 -0.28005219 -1.2581482 -0.89852905q-0.84106445 -0.9871826 -0.73773193 -2.142891q0.12530518 -1.1539383 1.326294 -2.1777115zm0.69918823 0.8206711q-0.90371704 0.77036285 -1.0211792 1.5480347q-0.10733032 0.78957367 0.3993225 1.3842621q0.51678467 0.60658264 1.3030396 0.61389923q0.78622437 0.00730896 1.7137146 -0.7833252q0.87994385 -0.7500839 0.98727417 -1.5396576q0.11746216 -0.7776718 -0.38919067 -1.3723602q-0.50665283 -0.5946884 -1.303009 -0.61389923q-0.774353 -0.017448425 -1.6899719 0.76304626zm3.1878662 8.536415l4.381714 -8.10836l0.8005066 0.9396057l-3.307373 5.755348q-0.39849854 0.68873596 -0.77633667 1.2571869q0.6668396 -0.30151367 1.374176 -0.55545044l6.256073 -2.294258l0.7498474 0.8801422l-8.718628 3.0178223l-0.75997925 -0.89203644zm8.990631 -0.81925964l0.92752075 -0.79063416l0.6890259 0.80877686l-0.92749023 0.79063416l-0.6890564 -0.80877686zm-5.6125183 4.7843475l4.732605 -4.034256l0.6890259 0.80877686l-4.732605 4.0342636l-0.6890259 -0.8087845zm6.0071716 3.967041l0.61416626 0.91365814q-0.8874512 0.42801666 -1.7477417 0.23742676q-0.8602905 -0.19058228 -1.5594482 -1.0112534q-0.8815918 -1.0347595 -0.76638794 -2.2005997q0.1253357 -1.1539459 1.2787476 -2.137169q1.1890869 -1.0136337 2.3700256 -0.952652q1.19281 0.050842285 2.0237122 1.0261307q0.8106384 0.95149994 0.6751709 2.0935516q-0.12530518 1.1539459 -1.3025208 2.1574478q-0.0713501 0.060813904 -0.2140503 0.18244934l-3.009491 -3.5324554q-0.7442932 0.7165756 -0.8260803 1.4638443q-0.069885254 0.7371292 0.43676758 1.3318176q0.37490845 0.4400711 0.86428833 0.5567169q0.5114136 0.1184082 1.1628418 -0.12891388zm-0.94329834 -3.7333908l2.2495422 2.6404266q0.56591797 -0.5645294 0.6503906 -1.0677109q0.12936401 -0.7878113 -0.38742065 -1.3943939q-0.47625732 -0.55900574 -1.1691284 -0.62538147q-0.68273926 -0.054481506 -1.3433838 0.44705963zm1.7328491 7.74411l3.4963684 -5.485298l0.70932007 0.8325653l-2.0965576 3.0806656l-0.7675171 1.1470337q0.09161377 -0.03702545 1.1878357 -0.58140564l3.4089966 -1.6124573l0.6991577 0.8206711l-2.1388245 3.0551224l-0.7010498 1.0082321l1.1486511 -0.5069351l3.4239807 -1.522583l0.6687927 0.7849884l-5.999237 2.5475388l-0.70932007 -0.8325653l2.2035522 -3.1718903l0.6345825 -0.8694382l-4.44928 2.1502151l-0.7194519 -0.84445953zm9.158539 7.6660156l0.6141968 0.9136505q-0.8874817 0.42800903 -1.7477722 0.23742676q-0.86026 -0.19058228 -1.5594482 -1.0112457q-0.8815613 -1.0347748 -0.76638794 -2.2006073q0.1253357 -1.1539459 1.2787781 -2.137169q1.1890869 -1.0136337 2.369995 -0.952652q1.19281 0.050842285 2.0237427 1.0261307q0.8106384 0.95150757 0.6751709 2.0935516q-0.1253357 1.1539459 -1.3025208 2.1574402q-0.0713501 0.060821533 -0.2140503 0.1824646l-3.0095215 -3.5324554q-0.7442627 0.716568 -0.8260498 1.4638367q-0.06991577 0.7371216 0.43673706 1.3318176q0.37493896 0.44006348 0.86431885 0.5567169q0.5114136 0.1184082 1.1628113 -0.12890625zm-0.9432678 -3.7333908l2.2495422 2.640419q0.56588745 -0.5645294 0.6503601 -1.0677032q0.12936401 -0.7878113 -0.38742065 -1.3943939q-0.47625732 -0.55901337 -1.1691284 -0.6253891q-0.68273926 -0.054481506 -1.3433533 0.44706726zm0.9830017 6.8639603l4.732605 -4.034256l0.618103 0.7255249l-0.71347046 0.6081848q0.7324829 -0.1521759 1.0796204 -0.05796814q0.3691101 0.095962524 0.6123047 0.38142395q0.34454346 0.40438843 0.4494629 1.0335236l-0.98217773 0.365036q-0.07495117 -0.4493866 -0.31814575 -0.73483276q-0.23306274 -0.27355957 -0.5819397 -0.3457489q-0.32684326 -0.07041931 -0.6831665 0.08959961q-0.5496521 0.22218323 -1.0490723 0.64790344l-2.4852295 2.1184998l-0.67889404 -0.79689026zm2.6827087 3.14888l6.540039 -5.5749817l1.9252625 2.2598267q0.64852905 0.76119995 0.8979187 1.2466736q0.34545898 0.67051697 0.3468933 1.3468323q0.0058898926 0.8983612 -0.47097778 1.7360382q-0.4548645 0.83943176 -1.3229065 1.5793915q-0.7491455 0.6385956 -1.4718933 0.94673157q-0.7126465 0.32002258 -1.3262024 0.37083435q-0.6135864 0.05079651 -1.1113281 -0.09977722q-0.48764038 -0.13867188 -0.99160767 -0.48927307q-0.49206543 -0.36073303 -0.99871826 -0.9554291l-2.0164795 -2.366867zm1.5126343 0.20939636l1.1855469 1.391571q0.557312 0.65415955 0.99035645 0.92149353q0.43304443 0.26734924 0.8413696 0.28884888q0.56073 0.05583191 1.2257996 -0.22364807q0.6752014 -0.26759338 1.4124146 -0.8960571q1.022644 -0.87171936 1.2757568 -1.6829071q0.27514648 -0.809433 0.06008911 -1.4473724q-0.17318726 -0.4683075 -0.8217163 -1.2295074l-1.175415 -1.3796844l-4.9942017 4.257263zm9.6388855 1.5077057l0.92749023 -0.79063416l0.6890564 0.80877686l-0.92752075 0.79063416l-0.6890259 -0.80877686zm-5.612549 4.7843475l4.732605 -4.034256l0.6890564 0.80877686l-4.732605 4.034256l-0.6890564 -0.80877686zm1.718811 2.0174866l4.732605 -4.034256l0.61813354 0.72550964l-0.71347046 0.6081848q0.7324829 -0.1521759 1.0795898 -0.05795288q0.36914062 0.095962524 0.6123352 0.3814087q0.34451294 0.40438843 0.4494629 1.0335388l-0.98217773 0.365036q-0.07498169 -0.44940186 -0.31817627 -0.734848q-0.23306274 -0.27355957 -0.5819092 -0.34573364q-0.32684326 -0.07041931 -0.6831665 0.08958435q-0.5496826 0.22218323 -1.0491028 0.6479187l-2.485199 2.1184845l-0.67892456 -0.796875zm6.879883 4.991394l0.6141968 0.9136505q-0.8874817 0.42800903 -1.7477722 0.23742676q-0.86026 -0.19058228 -1.5594482 -1.0112457q-0.8815918 -1.0347595 -0.76638794 -2.2006073q0.1253357 -1.1539459 1.2787476 -2.1371613q1.1891174 -1.0136414 2.3700256 -0.95266724q1.19281 0.050842285 2.0237122 1.0261383q0.81066895 0.95150757 0.6752014 2.0935516q-0.1253357 1.1539459 -1.3025513 2.1574402q-0.0713501 0.060821533 -0.21401978 0.1824646l-3.0095215 -3.5324554q-0.7442627 0.716568 -0.8260498 1.4638367q-0.06991577 0.7371216 0.43673706 1.3318176q0.37490845 0.44006348 0.86431885 0.5567169q0.5114136 0.1184082 1.1628113 -0.12890625zm-0.9432678 -3.7333984l2.2495117 2.6404266q0.56591797 -0.5645294 0.6503906 -1.0677032q0.12936401 -0.7878113 -0.38742065 -1.3943939q-0.47625732 -0.55900574 -1.1691284 -0.62538147q-0.68273926 -0.054489136 -1.3433533 0.447052zm5.3638 8.488342l0.56173706 0.8762207q-0.92004395 0.55844116 -1.8397827 0.41853333q-0.91973877 -0.13989258 -1.5783691 -0.9129944q-0.8309021 -0.975296 -0.7073364 -2.1072083q0.14559937 -1.1301575 1.3346863 -2.1437836q0.76101685 -0.6487274 1.5445862 -0.8855133q0.8055725 -0.23501587 1.5266724 0.03315735q0.7312622 0.28004456 1.2581787 0.89852905q0.64849854 0.76119995 0.6715698 1.5833435q0.045074463 0.8238983 -0.5586853 1.5849457l-0.7876892 -0.68362427q0.38442993 -0.51249695 0.37905884 -1.0006866q0.0065307617 -0.49830627 -0.3380127 -0.9026947q-0.51678467 -0.60658264 -1.2810059 -0.61213684q-0.75231934 -0.015701294 -1.6917114 0.78507996q-0.9631653 0.82102966 -1.0771179 1.554657q-0.11395264 0.73361206 0.38256836 1.3164062q0.40530396 0.47575378 0.9541626 0.5417175q0.55895996 0.0778656 1.2464905 -0.34394836zm1.7234192 4.0949554l-0.60025024 0.71698q-0.36520386 -0.2841034 -0.58813477 -0.54577637q-0.37490845 -0.44006348 -0.44677734 -0.78944397q-0.05996704 -0.35951233 0.07476807 -0.65914917q0.14486694 -0.287735 0.87020874 -0.90605164l2.723053 -2.3212128l-0.496521 -0.58280945l0.61831665 -0.52708435l0.496521 0.5827942l1.1772156 -1.0034943l1.154541 0.39143372l-1.652832 1.4089508l0.6890259 0.80877686l-0.61831665 0.52708435l-0.6890564 -0.80877686l-2.7705994 2.3617706q-0.34481812 0.2939453 -0.4095459 0.41072083q-0.054595947 0.12866211 -0.032989502 0.27450562q0.021606445 0.14582825 0.17358398 0.324234q0.12161255 0.14273071 0.3277893 0.33654785zm5.5716553 -3.386734l0.92749023 -0.79063416l0.6890564 0.8087921l-0.92749023 0.79063416l-0.6890564 -0.8087921zm-5.612549 4.784363l4.7326355 -4.0342712l0.6890259 0.80877686l-4.732605 4.0342712l-0.6890564 -0.80877686zm3.8419495 -0.28511047q1.3198853 -1.1251221 2.5682373 -0.9368286q1.039978 0.1605835 1.7898254 1.0407257q0.8309021 0.975296 0.71569824 2.1411285q-0.093170166 1.1676025 -1.2228088 2.1305542q-0.9155884 0.78048706 -1.671875 0.95292664q-0.7562561 0.17245483 -1.5095215 -0.10935974q-0.7312317 -0.2800598 -1.2581482 -0.8985443q-0.84103394 -0.9871826 -0.73773193 -2.1428833q0.1253357 -1.1539459 1.3263245 -2.177719zm0.6991577 0.8206787q-0.90371704 0.7703552 -1.0211792 1.5480347q-0.10733032 0.78956604 0.3993225 1.3842621q0.51678467 0.60658264 1.3030396 0.6138916q0.7862549 0.0073242188 1.7137451 -0.78330994q0.87991333 -0.75009155 0.98727417 -1.5396576q0.11746216 -0.77767944 -0.38919067 -1.3723755q-0.50665283 -0.5946808 -1.3030396 -0.6138916q-0.774353 -0.017456055 -1.6899719 0.76304626zm1.5159302 6.573944l4.732605 -4.0342712l0.6079712 0.7136383l-0.66589355 0.56762695q1.2187805 -0.13552856 2.0598145 0.85165405q0.36480713 0.42817688 0.5141907 0.9167633q0.1595459 0.500473 0.061828613 0.89175415q-0.097717285 0.39126587 -0.36984253 0.7464447q-0.19555664 0.22827148 -0.75442505 0.7046814l-2.913269 2.4833984l-0.67892456 -0.79689026l2.8776245 -2.4529877q0.49942017 -0.4257202 0.65615845 -0.7236023q0.1567688 -0.29788208 0.09680176 -0.6573944q-0.048095703 -0.36964417 -0.3216858 -0.69078064q-0.43569946 -0.51142883 -1.092926 -0.60821533q-0.63516235 -0.09501648 -1.5388794 0.67533875l-2.5922546 2.2097168l-0.67889404 -0.796875z" fill-rule="nonzero"/><path fill="#000000" fill-opacity="0.0" d="m448.96664 147.2678l64.50394 -131.2126l30.456726 14.96063l-64.50397 131.2126z" fill-rule="evenodd"/><path fill="#ffd966" d="m471.6929 147.551l-7.7134094 -3.78891l0.46875 -0.95350647l7.7134094 3.7888947l-0.46875 0.9535217zm-5.429535 -5.672165l-1.0939026 -0.53733826l0.46875 -0.95350647l1.0939026 0.53733826l-0.46875 0.95350647zm6.619507 3.2515717l-5.5816956 -2.7417908l0.46871948 -0.95350647l5.581726 2.7417908l-0.46875 0.95350647zm1.5493469 -1.9829254l0.59521484 -0.8565674q0.44830322 0.15057373 0.77563477 -0.01940918q0.43878174 -0.21966553 0.735199 -0.8226166q0.3239746 -0.65904236 0.2298584 -1.1404877q-0.087249756 -0.49546814 -0.4880066 -0.848999q-0.2531433 -0.22880554 -1.185669 -0.66944885q0.42596436 0.97520447 -0.0289917 1.9006653q-0.5652466 1.149826 -1.7028809 1.3743744q-1.1516724 0.21766663 -2.3016663 -0.347229q-0.79937744 -0.39265442 -1.3346863 -1.0037689q-0.54244995 -0.6320343 -0.6382446 -1.3580017q-0.09579468 -0.72598267 0.26956177 -1.469162q0.4894104 -0.99557495 1.605896 -1.2479401l-0.67315674 -0.33065796l0.42736816 -0.86938477l4.824402 2.3697968q1.3042603 0.6406708 1.7202454 1.1757507q0.4159851 0.5350952 0.44189453 1.2615662q0.039916992 0.73335266 -0.37365723 1.5746918q-0.48944092 0.99557495 -1.2415161 1.3921051q-0.7521057 0.39653015 -1.6567993 -0.0652771zm-2.9657898 -2.4316864q1.0939026 0.53733826 1.8124695 0.35064697q0.7185669 -0.18669128 1.042572 -0.84573364q0.3239746 -0.65904236 0.03277588 -1.3417358q-0.28427124 -0.6967163 -1.3501282 -1.2202759q-1.0237732 -0.5028839 -1.7701721 -0.29504395q-0.73947144 0.19381714 -1.0565796 0.8388519q-0.31018066 0.6309967 -0.011871338 1.3345947q0.2911682 0.6826935 1.3009338 1.1786957zm5.5369263 -3.9671783l-7.7134094 -3.7888947l0.4618225 -0.9394989l2.7628174 1.3571167q-0.4333191 -1.0310364 0.06298828 -2.0406494q0.31021118 -0.6309967 0.78323364 -0.95570374q0.46588135 -0.34562683 0.99716187 -0.3283844q0.5172119 0.010360718 1.3446655 0.41680908l3.5341492 1.7360077l-0.46185303 0.93948364l-3.5341492 -1.7360077q-0.7152405 -0.35133362 -1.1894531 -0.20127869q-0.47421265 0.15003967 -0.74993896 0.71092224q-0.20681763 0.42066956 -0.16854858 0.9095001q0.031158447 0.46791077 0.3270874 0.8221741q0.28881836 0.33335876 0.947937 0.657135l3.0573425 1.5017853l-0.46185303 0.93948364zm3.11615 -8.463837l0.8963623 0.2662201q-0.115753174 0.4479828 -0.26739502 0.7564697q-0.25506592 0.5188141 -0.5472107 0.7234802q-0.30615234 0.19778442 -0.63464355 0.19308472q-0.32162476 -0.018707275 -1.1770935 -0.43893433l-3.2115784 -1.5775604l-0.33779907 0.687088l-0.72924805 -0.35821533l0.33776855 -0.68709564l-1.3884277 -0.6819992l-0.099121094 -1.2150497l1.9494019 0.9575653l0.46875 -0.9535141l0.72924805 0.35822296l-0.46875 0.9535141l3.2677002 1.6051178q0.40670776 0.19978333 0.5395813 0.21281433q0.13977051 -9.765625E-4 0.26504517 -0.078704834q0.12524414 -0.07772827 0.22866821 -0.28807068q0.08270264 -0.16825867 0.17874146 -0.43443298zm1.3541565 -0.62957764l-7.7134094 -3.7889023l1.3097229 -2.6642227q0.4411621 -0.8974228 0.78775024 -1.3190689q0.47824097 -0.5832672 1.0983887 -0.85311127q0.8222351 -0.36208344 1.7803955 -0.25699615q0.9510498 0.08418274 1.974823 0.58706665q0.8835449 0.43400574 1.4533081 0.9750061q0.57666016 0.52697754 0.8668823 1.0699387q0.2902527 0.5429535 0.3496704 1.059578q0.0663147 0.5026016 -0.055389404 1.104332q-0.13571167 0.59484863 -0.4803772 1.2959595l-1.3717651 2.7904205zm-0.40838623 -1.4713974l0.80651855 -1.6406021q0.3791504 -0.771225 0.45257568 -1.2748032q0.07345581 -0.5035782 -0.06893921 -0.8868637q-0.1713562 -0.5368042 -0.69192505 -1.0362244q-0.5136719 -0.5134506 -1.3832092 -0.9405594q-1.2060852 -0.592453 -2.051117 -0.5026932q-0.85214233 0.06884003 -1.3522644 0.51950836q-0.36108398 0.34488678 -0.8022461 1.2423096l-0.7996216 1.6265793l5.8902283 2.8933487zm-2.4430847 -9.445068l-1.0939026 -0.53733826l0.46875 -0.9535141l1.0939026 0.53733826l-0.46875 0.9535141zm6.619507 3.251564l-5.5816956 -2.7417831l0.46875 -0.9535141l5.5816956 2.7417908l-0.46875 0.95350647zm1.169281 -2.3785172l-5.5816956 -2.7417908l0.4205017 -0.8553543l0.8414612 0.4133377q-0.43048096 -0.6118469 -0.48184204 -0.96782684q-0.05847168 -0.3768921 0.10696411 -0.7134247q0.234375 -0.47675323 0.7701721 -0.82286835l0.7249756 0.7565155q-0.38269043 0.2472229 -0.5481262 0.5837555q-0.15853882 0.32250977 -0.08630371 0.6713562q0.06515503 0.32793427 0.3534851 0.59142303q0.42214966 0.4162674 1.0111694 0.70560455l2.9310913 1.4397812l-0.46185303 0.9394913zm1.8497314 -8.296036l0.59472656 -0.926445q0.7451782 0.644577 0.9118042 1.5098038q0.1666565 0.86522675 -0.30899048 1.832756q-0.59973145 1.2199326 -1.7154846 1.5770874q-1.1088867 0.34313202 -2.4692383 -0.3250885q-1.4024353 -0.6888962 -1.8153381 -1.7969437q-0.4269104 -1.1149292 0.13833618 -2.2647552q0.55148315 -1.1217804 1.6534424 -1.4508896q1.1088867 -0.34313202 2.497284 0.33887482q0.08416748 0.04132843 0.2524414 0.12400055l-2.0473022 4.1645966q0.95318604 0.39858246 1.6715088 0.1769638q0.7043152 -0.22851562 1.0489807 -0.92962646q0.25506592 -0.5188217 0.16781616 -1.0142899q-0.09436035 -0.5163727 -0.5799866 -1.0160446zm-3.0520935 2.3480225l1.5303345 -3.112938q-0.74282837 -0.2952423 -1.2381897 -0.17300415q-0.7744446 0.19406891 -1.1260071 0.9092026q-0.3239746 0.65904236 -0.109802246 1.321312q0.22106934 0.64824677 0.94366455 1.0554276zm5.6612244 -8.292999l0.58117676 -0.863472q0.87783813 0.6226959 1.1145935 1.5223618q0.23675537 0.89966583 -0.21130371 1.8111115q-0.5652466 1.149826 -1.6532288 1.4858246q-1.0950928 0.31508636 -2.497528 -0.37380219q-0.8975525 -0.44089508 -1.4259644 -1.0660248q-0.535553 -0.6460495 -0.5757141 -1.4143372q-0.03326416 -0.7823105 0.3251648 -1.511467q0.44119263 -0.8974228 1.186615 -1.2450027q0.73831177 -0.36849213 1.6765137 -0.11653137l-0.31472778 0.99435425q-0.62301636 -0.14935303 -1.0689392 0.04940033q-0.45996094 0.19186401 -0.69433594 0.6686249q-0.35153198 0.71513367 -0.053222656 1.4187317q0.28427124 0.6967163 1.3922119 1.2409363q1.1359863 0.5580063 1.8545532 0.371315q0.7185669 -0.18668365 1.0563354 -0.8737793q0.27572632 -0.56088257 0.118377686 -1.0907974q-0.15048218 -0.5439377 -0.8105774 -1.0074463zm3.0741882 -3.2075806l0.8963623 0.26622772q-0.115753174 0.44797516 -0.26739502 0.7564621q-0.25506592 0.51882935 -0.5471802 0.7234955q-0.30618286 0.1977768 -0.6346741 0.19308472q-0.32159424 -0.018714905 -1.1770935 -0.43893433l-3.2115784 -1.5775604l-0.33776855 0.687088l-0.72927856 -0.35822296l0.33776855 -0.687088l-1.3883972 -0.68200684l-0.09915161 -1.2150497l1.9494019 0.9575653l0.46875 -0.9535141l0.72927856 0.35822296l-0.46875 0.9535141l3.2676697 1.6051178q0.40670776 0.1997757 0.5395813 0.21282196q0.13977051 -9.765625E-4 0.26504517 -0.07871246q0.12527466 -0.07772827 0.22866821 -0.28806305q0.08270264 -0.1682663 0.17874146 -0.43444824zm-5.3204956 -3.768959l-1.0939026 -0.5373306l0.46875 -0.9535141l1.0939026 0.5373306l-0.46875 0.9535141zm6.619507 3.2515717l-5.5816956 -2.7417908l0.46875 -0.9535141l5.5816956 2.7417908l-0.46875 0.9535141zm-1.7870178 -3.41288q-1.5567017 -0.7646713 -1.8795166 -1.9851379q-0.26550293 -1.0182495 0.24459839 -2.055893q0.5652466 -1.149826 1.6810303 -1.5069809q1.1086426 -0.37806702 2.4409485 0.27638245q1.0798645 0.5304489 1.5383911 1.1560745q0.4585266 0.625618 0.4989624 1.4288406q0.03326416 0.7823181 -0.3251953 1.5114746q-0.57214355 1.1638412 -1.6738892 1.5278854q-1.1088562 0.34313202 -2.5253296 -0.35264587zm0.47564697 -0.9675369q1.0658569 0.5235596 1.8262634 0.32260132q0.76730347 -0.21497345 1.111969 -0.9160843q0.35153198 -0.71513367 0.04611206 -1.4396515q-0.30545044 -0.7245102 -1.399353 -1.2618484q-1.0378113 -0.50977325 -1.8051147 -0.2947998q-0.7604065 0.20095825 -1.105072 0.9020691q-0.34466553 0.70111084 -0.04611206 1.4396439q0.29141235 0.71762085 1.3713074 1.2480698zm5.4318542 -4.0013733l-5.581726 -2.7417908l0.41360474 -0.8413315l0.7853699 0.38578033q-0.60827637 -1.0647583 -0.036132812 -2.2285995q0.24816895 -0.5048065 0.63726807 -0.8359146q0.3960266 -0.34513092 0.7939148 -0.41079712q0.3979187 -0.0656662 0.8319702 0.04309082q0.2871399 0.08882141 0.94628906 0.41259766l3.4359741 1.6877899l-0.46185303 0.93948364l-3.3938904 -1.6671143q-0.5890198 -0.28933716 -0.9246826 -0.31493378q-0.33563232 -0.025604248 -0.64178467 0.17217255q-0.32019043 0.19088745 -0.5062866 0.5694885q-0.29641724 0.6029587 -0.12432861 1.2445602q0.16497803 0.6206894 1.230835 1.144249l3.057312 1.5017776l-0.46185303 0.9394913z" fill-rule="nonzero"/><path fill="#000000" fill-opacity="0.0" d="m351.25766 46.531982l10.48819 73.25984l-33.5748 4.818901l-10.48819 -73.25984z" fill-rule="evenodd"/><path fill="#ff0000" d="m332.33423 59.14528l8.506561 -1.2209244l0.14837646 1.0363083l-3.0469055 0.43731308q0.93927 0.60709 1.0986938 1.7207375q0.09967041 0.69602585 -0.10787964 1.230938q-0.18984985 0.54815674 -0.63830566 0.83351517q-0.43301392 0.28313828 -1.34552 0.4141121l-3.897583 0.5594063l-0.14834595 -1.0363121l3.8975525 -0.55940247q0.78878784 -0.1132164 1.0957947 -0.50455093q0.30703735 -0.39133835 0.21844482 -1.0100288q-0.06643677 -0.46401978 -0.37368774 -0.8461189q-0.28955078 -0.3688507 -0.73373413 -0.4945221q-0.42648315 -0.11242676 -1.1534119 -0.008090973l-3.371704 0.48392868l-0.14834595 -1.0363083zm2.2793884 10.519196q-0.57907104 -0.51672363 -0.8576355 -1.0292206q-0.27633667 -0.49703217 -0.3649292 -1.1157227q-0.14614868 -1.0208435 0.27127075 -1.6332321q0.41744995 -0.6123886 1.1907654 -0.72338104q0.44851685 -0.06437683 0.84851074 0.0834198q0.4154358 0.14557648 0.6806946 0.45478058q0.28070068 0.30698395 0.448761 0.70906067q0.1348877 0.28055573 0.30300903 0.90361786q0.31854248 1.232872 0.62145996 1.8050156q0.21652222 -0.031074524 0.26290894 -0.037734985q0.64959717 -0.0932312 0.8704529 -0.42485046q0.28268433 -0.45098877 0.16976929 -1.2398224q-0.10409546 -0.7269592 -0.41793823 -1.0449677q-0.29840088 -0.32022858 -0.9723511 -0.3971405l-0.006958008 -1.0408173q0.66952515 0.04597473 1.1181641 0.31306458q0.44863892 0.26709747 0.7515259 0.83924866q0.30288696 0.57214355 0.41583252 1.3609772q0.11291504 0.7888336 -0.0018310547 1.3104248q-0.114715576 0.5215912 -0.3598938 0.7935562q-0.24520874 0.27196503 -0.664978 0.42692566q-0.25628662 0.08414459 -0.9522705 0.18403625l-1.3919983 0.19979095q-1.4538574 0.20866394 -1.8316345 0.32602692q-0.37561035 0.13283539 -0.70254517 0.384964l-0.15722656 -1.098175q0.30264282 -0.20128632 0.72906494 -0.30984497zm2.322174 -0.42800903q-0.31393433 -0.5389862 -0.64572144 -1.6436844q-0.18579102 -0.63630676 -0.34716797 -0.8814926q-0.14590454 -0.247406 -0.38458252 -0.37099457q-0.23648071 -0.10813141 -0.51486206 -0.06817627q-0.41760254 0.059936523 -0.6517029 0.40924072q-0.23190308 0.36476898 -0.14553833 0.9679947q0.086364746 0.6032257 0.41571045 1.0295105q0.3315735 0.44174957 0.8265686 0.59169006q0.38009644 0.11908722 1.0606384 0.021408081l0.3866577 -0.055496216zm-2.714386 3.0908203l8.506592 -1.220932l0.15057373 1.0517807l-8.506592 1.2209244l-0.15057373 -1.0517731zm0.4176941 2.9175186l5.35141 -0.76807404l-0.13287354 -0.92803955l0.80426025 -0.11543274l0.13287354 0.92803955l0.6650696 -0.095458984q0.61865234 -0.08879089 0.92800903 -0.022697449q0.4397583 0.09473419 0.74035645 0.43043518q0.30282593 0.35115814 0.40026855 1.031723q0.064208984 0.44854736 0.031219482 0.989975l-0.91918945 -0.025917053q-1.2207031E-4 -0.3314743 -0.042175293 -0.62535095q-0.06866455 -0.47948456 -0.29849243 -0.6517029q-0.22766113 -0.15675354 -0.78445435 -0.07683563l-0.5722351 0.08213806l0.17269897 1.2064438l-0.80426025 0.11543274l-0.17269897 -1.2064438l-5.35141 0.76807404l-0.14837646 -1.0363083zm0.8024292 5.6049576l8.034912 -4.515457l0.17495728 1.2219162l-5.8699646 3.0997696q-0.70474243 0.36949158 -1.3277588 0.6483383q0.72476196 0.10118103 1.4584045 0.26422882l6.5143433 1.4012146l0.16384888 1.144577l-8.982666 -2.104538l-0.16607666 -1.1600494zm3.2571106 8.63855l0.031280518 1.1004715q-0.97888184 -0.11206055 -1.6044006 -0.73262024q-0.6254883 -0.62055206 -0.7782898 -1.6877899q-0.19265747 -1.3456573 0.5274048 -2.2698288q0.7222595 -0.90870667 2.2225037 -1.1240311q1.5466614 -0.22198486 2.5124512 0.46022034q0.9812927 0.67998505 1.1628418 1.9483032q0.17715454 1.237381 -0.54730225 2.1306229q-0.7222595 0.90870667 -2.2534485 1.1284714q-0.092803955 0.013320923 -0.27841187 0.03995514l-0.6576538 -4.593788q-1.0119324 0.20838165 -1.4801941 0.79650116q-0.4527893 0.5858917 -0.34207153 1.3592606q0.0819397 0.5722885 0.43338013 0.9322586q0.3691101 0.37322235 1.0519104 0.5119934zm1.1965027 -3.6602325l0.49157715 3.4337387q0.77993774 -0.17508698 1.1200867 -0.5553894q0.53012085 -0.5970001 0.4172058 -1.3858337q-0.10409546 -0.7269592 -0.65441895 -1.1530991q-0.5480957 -0.41066742 -1.3744507 -0.3394165zm0.001159668 10.041138l0.0069274902 1.0408249q-1.0760803 -0.019195557 -1.7789001 -0.62864685q-0.70285034 -0.6094513 -0.84677124 -1.61483q-0.18157959 -1.2683182 0.5274048 -2.1593323q0.7266846 -0.8777695 2.273346 -1.0997543q0.98986816 -0.14207458 1.7787476 0.076187134q0.8065796 0.23150635 1.2729797 0.84332275q0.46862793 0.6272812 0.58380127 1.4315796q0.14169312 0.98991394 -0.27789307 1.6973267q-0.4019165 0.72065735 -1.3188171 1.0416794l-0.30081177 -0.99864197q0.59872437 -0.22800446 0.85491943 -0.6436157q0.27163696 -0.41783142 0.1963501 -0.94371796q-0.11291504 -0.7888336 -0.7560425 -1.2016525q-0.627655 -0.41503906 -1.8495178 -0.2396698q-1.2527771 0.17980957 -1.7409363 0.73921204q-0.48812866 0.55940247 -0.37963867 1.3172989q0.08859253 0.6186905 0.517334 0.96756744q0.43099976 0.36434174 1.2375183 0.37486267zm-0.7300415 4.3825455l-0.89038086 0.28564453q-0.15701294 -0.43523407 -0.205719 -0.7755127q-0.0819397 -0.5722885 0.043914795 -0.90605164q0.14129639 -0.33598328 0.41522217 -0.51737213q0.27615356 -0.16590881 1.2196045 -0.30132294l3.5418396 -0.50834656l-0.10848999 -0.75790405l0.80426025 -0.11543274l0.10848999 0.75790405l1.531189 -0.21977234l0.7670288 0.9475174l-2.1498413 0.30856323l0.15057373 1.0517731l-0.80426025 0.11543274l-0.15057373 -1.0517731l-3.6036987 0.5172272q-0.44854736 0.06437683 -0.5656128 0.12853241q-0.11489868 0.07962799 -0.17449951 0.21446991q-0.059631348 0.13483429 -0.026397705 0.36684418q0.026550293 0.18560791 0.097351074 0.45957947zm2.241455 0.331398q1.7167969 -0.24640656 2.6716003 0.5794449q0.79345703 0.6911621 0.9573059 1.8357391q0.18157959 1.2683182 -0.53845215 2.1924896q-0.70236206 0.9374237 -2.171692 1.1483078q-1.190918 0.17092896 -1.9223633 -0.087142944q-0.73147583 -0.2580719 -1.2177734 -0.89860535q-0.46862793 -0.6272812 -0.58377075 -1.4315796q-0.18380737 -1.2837906 0.5207825 -2.205742q0.7222595 -0.90870667 2.2843628 -1.1329117zm0.15280151 1.0672455q-1.1754456 0.1687088 -1.690094 0.76348114q-0.5124512 0.61024475 -0.4017334 1.3836136q0.11294556 0.788826 0.7737427 1.2148972q0.6607971 0.42606354 1.8671875 0.25291443q1.1445007 -0.1642685 1.6569519 -0.77451324q0.51464844 -0.59477234 0.40393066 -1.3681412q-0.11071777 -0.7733612 -0.7737427 -1.2148972q-0.6453247 -0.4282837 -1.8362427 -0.25735474zm-2.231659 6.3521957l6.15567 -0.8835068l0.1350708 0.94350433l-0.92800903 0.13318634q0.700531 0.26251984 0.94366455 0.5275345q0.26083374 0.27827454 0.31396484 0.6494827q0.075286865 0.52589417 -0.17199707 1.1138611l-1.0253296 -0.2158966q0.17663574 -0.41997528 0.12350464 -0.7911911q-0.050933838 -0.35575104 -0.307312 -0.60308075q-0.2387085 -0.23408508 -0.62542725 -0.2890854q-0.5833435 -0.10569 -1.2329407 -0.012451172l-3.2325134 0.4639511l-0.14834595 -1.0363083z" fill-rule="nonzero"/><path fill="#000000" fill-opacity="0.0" d="m351.22046 35.378582l60.97638 0.031497955l0 33.921257l-60.97638 -0.03149414z" fill-rule="evenodd"/><path fill="#0000ff" d="m361.01733 55.903645l0 -6.21875l0.9375 4.8446655E-4l0 0.875q0.6875 -1.0152702 1.984375 -1.0145988q0.5625 2.89917E-4 1.03125 0.20365524q0.484375 0.20337677 0.71875 0.53162384q0.234375 0.32824707 0.328125 0.76579285q0.046875 0.2969017 0.046875 1.0312767l0 3.828125l-1.046875 -5.41687E-4l0 -3.78125q0 -0.65625 -0.125 -0.96881485q-0.125 -0.31256485 -0.4375 -0.50022507q-0.3125 -0.20328903 -0.734375 -0.20350647q-0.671875 -3.4713745E-4 -1.171875 0.43689728q-0.484375 0.42162323 -0.484375 1.6091232l0 3.40625l-1.046875 -5.41687E-4zm6.283203 -3.1061287q0 -1.734375 0.953125 -2.562008q0.796875 -0.687088 1.953125 -0.6864891q1.28125 6.599426E-4 2.09375 0.84482956q0.828125 0.82855225 0.828125 2.3129272q0 1.203125 -0.359375 1.8904419q-0.359375 0.6873131 -1.0625 1.0775757q-0.6875 0.37464523 -1.5 0.37422562q-1.296875 -6.713867E-4 -2.109375 -0.829216q-0.796875 -0.844162 -0.796875 -2.422287zm1.078125 5.569458E-4q0 1.1875 0.515625 1.781517q0.53125 0.59402466 1.3125 0.594429q0.796875 4.119873E-4 1.3125 -0.5930748q0.515625 -0.593483 0.515625 -1.812233q0 -1.15625 -0.53125 -1.7502747q-0.515625 -0.594017 -1.296875 -0.5944176q-0.78125 -4.043579E-4 -1.3125 0.593071q-0.515625 0.577858 -0.515625 1.780983zm5.970703 3.112461l0 -6.218754l0.953125 4.9591064E-4l0 0.9375q0.359375 -0.6560669 0.65625 -0.8590393q0.3125 -0.21858597 0.6875 -0.21839523q0.53125 2.746582E-4 1.078125 0.32868195l-0.359375 0.9841919q-0.390625 -0.23457718 -0.765625 -0.23477173q-0.359375 -1.8692017E-4 -0.640625 0.21841812q-0.265625 0.20298767 -0.375 0.57793427q-0.1875 0.5624008 -0.1875 1.2186508l0 3.265625l-1.046875 -5.378723E-4zm4.0117188 0.0020713806l0 -6.21875l0.9375 4.8446655E-4l0 0.875q0.296875 -0.4685974 0.78125 -0.73397446q0.484375 -0.28099823 1.109375 -0.28067398q0.6875 3.5476685E-4 1.125 0.28182983q0.453125 0.2814827 0.625 0.79719925q0.75 -1.0777397 1.921875 -1.0771332q0.9375 4.8446655E-4 1.421875 0.5163574q0.5 0.5002594 0.5 1.5783844l0 4.265625l-1.046875 -5.41687E-4l0 -3.921875q0 -0.625 -0.109375 -0.9063034q-0.09375 -0.2812996 -0.359375 -0.45331192q-0.265625 -0.17201233 -0.640625 -0.17220688q-0.65625 -3.3950806E-4 -1.09375 0.43693542q-0.421875 0.43728256 -0.421875 1.4060326l0 3.609375l-1.0625 -5.493164E-4l0 -4.046875q0 -0.703125 -0.265625 -1.0470123q-0.25 -0.3595047 -0.828125 -0.35980225q-0.453125 -2.3269653E-4 -0.828125 0.23394775q-0.375 0.23418045 -0.546875 0.6872177q-0.171875 0.45303345 -0.171875 1.2967873l0 3.234375l-1.046875 -5.41687E-4zm14.058594 -0.75836563q-0.59375 0.49969482 -1.140625 0.70253754q-0.53125 0.20285034 -1.15625 0.20252609q-1.03125 -5.302429E-4 -1.578125 -0.50081253q-0.546875 -0.5002823 -0.546875 -1.2815323q0 -0.453125 0.203125 -0.828022q0.203125 -0.3905182 0.546875 -0.6090927q0.34375 -0.23419571 0.765625 -0.34335327q0.296875 -0.09359741 0.9375 -0.17139053q1.265625 -0.13997269 1.875 -0.35840607q0 -0.21875 0 -0.265625q0 -0.65625 -0.296875 -0.9220314q-0.40625 -0.3439598 -1.203125 -0.3443718q-0.734375 -3.7765503E-4 -1.09375 0.26506042q-0.359375 0.2498169 -0.53125 0.90597534l-1.03125 -0.14115524q0.140625 -0.6561775 0.46875 -1.0622597q0.328125 -0.40607834 0.9375 -0.62451553q0.609375 -0.21843338 1.40625 -0.2180214q0.796875 4.119873E-4 1.296875 0.18816757q0.5 0.1877594 0.734375 0.46913147q0.234375 0.28136826 0.328125 0.71891785q0.046875 0.2656479 0.046875 0.9687767l0 1.40625q0 1.46875 0.0625 1.8594055q0.078125 0.39066696 0.28125 0.75014496l-1.109375 -5.722046E-4q-0.15625 -0.3282051 -0.203125 -0.7657318zm-0.09375 -2.3594208q-0.578125 0.23407364 -1.71875 0.40536118q-0.65625 0.09341049 -0.921875 0.21827316q-0.265625 0.10923767 -0.421875 0.32790756q-0.140625 0.21867752 -0.140625 0.49992752q0 0.421875 0.3125 0.7032852q0.328125 0.28142166 0.9375 0.28173447q0.609375 3.1661987E-4 1.078125 -0.26506805q0.484375 -0.26537323 0.703125 -0.7340126q0.171875 -0.35928345 0.171875 -1.0467834l0 -0.390625zm2.6738281 3.126381l0 -8.59375l1.0625 5.455017E-4l0 8.593754l-1.0625 -5.493164E-4z" fill-rule="nonzero"/><path fill="#000000" fill-opacity="0.0" d="m407.4357 183.99475l105.858246 0l0 35.55905l-105.858246 0z" fill-rule="evenodd"/><path fill="#000000" d="m425.52945 203.91975q0.8125 1.015625 3.046875 1.828125l-0.515625 1.109375q-3.953125 -1.3125 -5.015625 -5.578125l-0.3125 0q-0.5 0.703125 -1.0625 1.265625l0 2.84375l2.890625 -0.5625l0.15625 0.859375q-2.75 0.671875 -5.390625 1.171875q-0.140625 0.46875 -0.296875 0.15625l-0.359375 -1.21875l1.984375 -0.25l0 -2.1875q-1.328125 0.90625 -2.953125 1.46875l-0.5 -1.015625q2.53125 -0.703125 4.3125 -2.53125l-4.0625 0l0 -0.96875l4.921875 0l0 -0.921875l-3.65625 0l0 -0.953125l3.65625 0l0 -0.921875l-4.3125 0l0 -0.96875l4.3125 0l0 -1.21875l0.96875 0q0.40625 0.0625 0.046875 0.3125l0 0.90625l4.328125 0l0 0.96875l-4.328125 0l0 0.921875l3.65625 0l0 0.953125l-3.65625 0l0 0.921875l4.9375 0l0 0.96875l-4.328125 0q0.3125 0.953125 1.015625 2.03125q0.96875 -0.8125 1.828125 -1.78125l0.765625 0.765625q0.046875 0.25 -0.25 0.140625q-0.859375 0.8125 -1.828125 1.484375zm15.28125 2.640625l-1.015625 0l0 -0.515625l-7.765625 0l0 0.71875l-1.015625 0l0 -8.03125l4.15625 0l0.40625 -1.671875l-5.171875 0l0 -0.96875l11.015625 0l0 0.96875l-4.671875 0l-0.5625 1.671875l4.625 0l0 7.828125zm-7.0 -1.484375l0 -5.375l-1.78125 0l0 5.375l1.78125 0zm3.1875 0l0 -1.265625l-2.171875 0l0 1.265625l2.171875 0zm0 -2.078125l0 -1.171875l-2.171875 0l0 1.171875l2.171875 0zm0 -3.296875l-2.171875 0l0 1.3125l2.171875 0l0 -1.3125zm2.796875 0l-1.78125 0l0 5.375l1.78125 0l0 -5.375z" fill-rule="nonzero"/><path fill="#000000" d="m446.7793 201.15413q0 -2.375 1.28125 -3.71875q1.28125 -1.34375 3.296875 -1.34375q1.3125 0 2.375 0.625q1.0625 0.625 1.609375 1.765625q0.5625 1.125 0.5625 2.5625q0 1.4375 -0.59375 2.59375q-0.578125 1.140625 -1.65625 1.734375q-1.0625 0.578125 -2.3125 0.578125q-1.34375 0 -2.40625 -0.640625q-1.0625 -0.65625 -1.609375 -1.78125q-0.546875 -1.125 -0.546875 -2.375zm1.3125 0.015625q0 1.71875 0.921875 2.71875q0.921875 0.984375 2.328125 0.984375q1.421875 0 2.34375 -1.0q0.921875 -1.0 0.921875 -2.84375q0 -1.15625 -0.40625 -2.03125q-0.390625 -0.875 -1.15625 -1.34375q-0.75 -0.484375 -1.6875 -0.484375q-1.34375 0 -2.3125 0.921875q-0.953125 0.921875 -0.953125 3.078125z" fill-rule="nonzero"/><path fill="#000000" d="m466.55246 204.2635q0.515625 1.078125 0.671875 1.890625l-0.8125 0.25q-0.203125 -0.96875 -0.671875 -1.984375l0.8125 -0.15625zm-1.359375 0.15625q0.25 0.96875 0.453125 1.984375l-0.859375 0.203125q-0.203125 -1.125 -0.40625 -2.078125l0.8125 -0.109375zm-1.421875 0.15625q0.140625 1.171875 0.203125 2.03125l-0.921875 0q0 -0.765625 -0.046875 -2.03125l0.765625 0zm-2.796875 2.078125q0.453125 -0.96875 0.703125 -2.1875l0.765625 0.15625q-0.25 1.484375 -0.609375 2.296875l-0.859375 -0.265625zm6.34375 -3.703125l0 0.8125l-5.84375 0.359375q-0.25 0.453125 -0.34375 -0.0625l-0.203125 -0.90625l2.6875 -0.046875l0 -1.078125l-2.234375 0l0 -0.8125l2.234375 0l0 -0.859375l-1.125 0l-1.109375 0l0 -4.765625l5.4375 0l0 4.765625l-2.34375 0l0 0.859375l2.390625 0l0 0.8125l-2.390625 0l0 1.015625l2.84375 -0.09375zm-4.515625 -3.96875q-0.109375 -0.90625 -0.3125 -1.875l0.5625 -0.15625q0.25 1.015625 0.3125 1.9375l-0.5625 0.09375zm2.84375 -1.625q-0.109375 0.765625 -0.359375 1.578125l-0.609375 -0.046875q0.25 -0.921875 0.359375 -1.875l0.609375 0.046875q0.359375 0.09375 0 0.296875zm3.453125 3.71875l0 -5.640625l0.96875 0q0.40625 0.046875 0.046875 0.296875l0 1.78125l2.4375 0l0 0.96875l-2.4375 0l0 2.59375l2.234375 0l0 5.53125l-1.015625 0l0 -0.703125l-2.59375 0l0 0.90625l-1.015625 0l0 -5.734375l1.375 0zm-3.15625 -1.53125l0 -3.140625l-1.46875 0l0 3.140625l1.46875 0zm-2.328125 -3.140625l-1.375 0l0 3.140625l1.375 0l0 -3.140625zm7.71875 8.53125l0 -2.90625l-2.59375 0l0 2.90625l2.59375 0z" fill-rule="nonzero"/><path fill="#000000" fill-opacity="0.0" d="m415.66666 201.58005l-51.496063 -19.874008" fill-rule="evenodd"/><path stroke="#595959" stroke-width="1.0" stroke-linejoin="round" stroke-linecap="butt" d="m415.66666 201.58005l-45.898438 -17.713715" fill-rule="evenodd"/><path fill="#595959" stroke="#595959" stroke-width="1.0" stroke-linecap="butt" d="m370.3629 182.32538l-4.8284607 -0.09298706l3.639038 3.1748962z" fill-rule="evenodd"/></g></svg>