<svg version="1.1" viewBox="0.0 0.0 960.0 540.0" fill="none" stroke="none" stroke-linecap="square" stroke-miterlimit="10" xmlns:xlink="http://www.w3.org/1999/xlink" xmlns="http://www.w3.org/2000/svg"><clipPath id="ged8a90d306_0_0.0"><path d="m0 0l960.0 0l0 540.0l-960.0 0l0 -540.0z" clip-rule="nonzero"/></clipPath><g clip-path="url(#ged8a90d306_0_0.0)"><path fill="#ffffff" d="m0 0l960.0 0l0 540.0l-960.0 0z" fill-rule="evenodd"/><path fill="#000000" fill-opacity="0.0" d="m346.9344 40.48163l170.96063 138.48819" fill-rule="evenodd"/><path stroke="#ffff00" stroke-width="3.0" stroke-linejoin="round" stroke-linecap="butt" d="m346.9344 40.48163l162.97165 132.01665" fill-rule="evenodd"/><path fill="#ffff00" stroke="#ffff00" stroke-width="3.0" stroke-linecap="butt" d="m509.90604 172.49829l-4.7451477 0.4979248l9.326233 3.2130127l-5.07901 -8.4561z" fill-rule="evenodd"/><path fill="#000000" fill-opacity="0.0" d="m217.73753 278.51575l170.96062 138.48819" fill-rule="evenodd"/><path stroke="#ffff00" stroke-width="3.0" stroke-linejoin="round" stroke-linecap="butt" d="m217.73753 278.51575l162.97166 132.01666" fill-rule="evenodd"/><path fill="#ffff00" stroke="#ffff00" stroke-width="3.0" stroke-linecap="butt" d="m380.7092 410.5324l-4.7451477 0.4979248l9.326233 3.2130127l-5.07901 -8.456085z" fill-rule="evenodd"/><path fill="#000000" fill-opacity="0.0" d="m231.9388 54.39949l170.96062 138.48819" fill-rule="evenodd"/><path stroke="#ffff00" stroke-width="3.0" stroke-linejoin="round" stroke-linecap="butt" d="m231.9388 54.399487l162.97163 132.01665" fill-rule="evenodd"/><path fill="#ffff00" stroke="#ffff00" stroke-width="3.0" stroke-linecap="butt" d="m394.91043 186.41614l-4.7451477 0.49794006l9.326233 3.2130127l-5.07901 -8.4561z" fill-rule="evenodd"/><path fill="#eeeeee" d="m575.152 262.7848l96.69867 0l70.406555 70.406555l0 166.31784l0 0l-237.51181 0l0 0l0 -166.31784z" fill-rule="evenodd"/><path stroke="#595959" stroke-width="1.0" stroke-linejoin="round" stroke-linecap="butt" d="m575.152 262.7848l96.69867 0l70.406555 70.406555l0 166.31784l0 0l-237.51181 0l0 0l0 -166.31784z" fill-rule="evenodd"/><path fill="#000000" fill-opacity="0.0" d="m224.73228 167.39162l170.96062 138.48817" fill-rule="evenodd"/><path stroke="#ffff00" stroke-width="3.0" stroke-linejoin="round" stroke-linecap="butt" d="m224.73228 167.39162l162.97166 132.01665" fill-rule="evenodd"/><path fill="#ffff00" stroke="#ffff00" stroke-width="3.0" stroke-linecap="butt" d="m387.70395 299.40826l-4.7451477 0.49795532l9.326233 3.2130127l-5.07901 -8.456116z" fill-rule="evenodd"/><path fill="#000000" fill-opacity="0.0" d="m469.1706 237.1076l69.41736 56.283478" fill-rule="evenodd"/><path stroke="#ffff00" stroke-width="3.0" stroke-linejoin="round" stroke-linecap="butt" d="m469.1706 237.1076l61.431274 49.80835" fill-rule="evenodd"/><path fill="#ffff00" stroke="#ffff00" stroke-width="3.0" stroke-linecap="butt" d="m530.60187 286.916l-4.7453613 0.4958191l9.324768 3.217163l-5.0752563 -8.458374z" fill-rule="evenodd"/><path fill="#000000" fill-opacity="0.0" d="m504.75592 333.96063l71.18109 -70.4252" fill-rule="evenodd"/><path stroke="#00ff00" stroke-width="3.0" stroke-linejoin="round" stroke-linecap="butt" d="m504.75592 333.96063l71.18109 -70.4252" fill-rule="evenodd"/><path fill="#000000" fill-opacity="0.0" d="m576.7034 262.7848l95.93701 0" fill-rule="evenodd"/><path stroke="#0000ff" stroke-width="3.0" stroke-linejoin="round" stroke-linecap="butt" d="m576.7034 262.7848l95.93701 0" fill-rule="evenodd"/><path fill="#000000" fill-opacity="0.0" d="m671.0866 262.78217l70.39368 70.39368" fill-rule="evenodd"/><path stroke="#ff0000" stroke-width="3.0" stroke-linejoin="round" stroke-linecap="butt" d="m671.0866 262.78217l70.39368 70.39368" fill-rule="evenodd"/><path fill="#000000" fill-opacity="0.0" d="m742.26245 499.51706l-0.78741455 -165.5748" fill-rule="evenodd"/><path stroke="#ff0000" stroke-width="3.0" stroke-linejoin="round" stroke-linecap="butt" d="m742.26245 499.51706l-0.78741455 -165.5748" fill-rule="evenodd"/><path fill="#000000" fill-opacity="0.0" d="m458.8084 246.19423l69.4173 56.283463" fill-rule="evenodd"/><path stroke="#ffff00" stroke-width="3.0" stroke-linejoin="round" stroke-linecap="butt" d="m458.8084 246.19423l61.431274 49.808365" fill-rule="evenodd"/><path fill="#ffff00" stroke="#ffff00" stroke-width="3.0" stroke-linecap="butt" d="m520.2396 296.0026l-4.7453613 0.4958191l9.324829 3.217163l-5.0752563 -8.4583435z" fill-rule="evenodd"/><path fill="#000000" fill-opacity="0.0" d="m479.11548 226.48557l69.41736 56.283478" fill-rule="evenodd"/><path stroke="#ffff00" stroke-width="3.0" stroke-linejoin="round" stroke-linecap="butt" d="m479.11548 226.48557l61.431274 49.80835" fill-rule="evenodd"/><path fill="#ffff00" stroke="#ffff00" stroke-width="3.0" stroke-linecap="butt" d="m540.54675 276.29395l-4.7453613 0.4958191l9.324768 3.217163l-5.0752563 -8.458374z" fill-rule="evenodd"/><path fill="#000000" fill-opacity="0.0" d="m534.04724 309.5433l22.960632 -22.960632" fill-rule="evenodd"/><path stroke="#ff9900" stroke-width="2.0" stroke-linejoin="round" stroke-linecap="butt" d="m534.04724 309.5433l22.960632 -22.960632" fill-rule="evenodd"/><path fill="#000000" fill-opacity="0.0" d="m554.9029 203.85564l69.4173 56.283463" fill-rule="evenodd"/><path stroke="#ffff00" stroke-width="3.0" stroke-linejoin="round" stroke-linecap="butt" d="m554.9029 203.85564l61.431274 49.808365" fill-rule="evenodd"/><path fill="#ffff00" stroke="#ffff00" stroke-width="3.0" stroke-linecap="butt" d="m616.3341 253.66402l-4.7453613 0.4958191l9.324829 3.2171783l-5.0752563 -8.458374z" fill-rule="evenodd"/><path fill="#000000" fill-opacity="0.0" d="m530.9344 204.43832l69.4173 56.283447" fill-rule="evenodd"/><path stroke="#ffff00" stroke-width="3.0" stroke-linejoin="round" stroke-linecap="butt" d="m530.9344 204.43832l61.431274 49.80835" fill-rule="evenodd"/><path fill="#ffff00" stroke="#ffff00" stroke-width="3.0" stroke-linecap="butt" d="m592.3656 254.24669l-4.7453613 0.4958191l9.324829 3.2171783l-5.0752563 -8.458374z" fill-rule="evenodd"/><path fill="#000000" fill-opacity="0.0" d="m578.77167 203.85564l69.4173 56.283463" fill-rule="evenodd"/><path stroke="#ffff00" stroke-width="3.0" stroke-linejoin="round" stroke-linecap="butt" d="m578.77167 203.85564l61.431274 49.808365" fill-rule="evenodd"/><path fill="#ffff00" stroke="#ffff00" stroke-width="3.0" stroke-linecap="butt" d="m640.2029 253.66402l-4.7453613 0.4958191l9.324829 3.2171783l-5.0752563 -8.458374z" fill-rule="evenodd"/><path fill="#000000" fill-opacity="0.0" d="m600.3779 267.02362l52.724426 -0.85040283" fill-rule="evenodd"/><path stroke="#ff9900" stroke-width="2.0" stroke-linejoin="round" stroke-linecap="butt" d="m600.3779 267.02362l52.724426 -0.85040283" fill-rule="evenodd"/></g></svg>