<svg version="1.1" viewBox="0.0 0.0 800 270.0" fill="none" stroke="none" stroke-linecap="square" stroke-miterlimit="10" xmlns:xlink="http://www.w3.org/1999/xlink" xmlns="http://www.w3.org/2000/svg"><clipPath id="gf08903e0e4_0_19.0"><path d="m0 0l960.0 0l0 540.0l-960.0 0l0 -540.0z" clip-rule="nonzero"/></clipPath><g clip-path="url(#gf08903e0e4_0_19.0)"><path fill="#ffffff" d="m0 0l960.0 0l0 540.0l-960.0 0z" fill-rule="evenodd"/><path fill="#000000" fill-opacity="0.0" d="m49.066864 84.93438l294.4882 0l0 82.77166l-294.4882 0z" fill-rule="evenodd"/><path stroke="#bed2f2" stroke-width="2.0" stroke-linejoin="round" stroke-linecap="butt" d="m49.066864 84.93438l294.4882 0l0 82.77166l-294.4882 0z" fill-rule="evenodd"/><path fill="#eeeeee" d="m44.795277 159.14307l309.4488 0l0 19.433075l-309.4488 0z" fill-rule="evenodd"/><path stroke="#595959" stroke-width="1.0" stroke-linejoin="round" stroke-linecap="butt" d="m44.795277 159.14307l309.4488 0l0 19.433075l-309.4488 0z" fill-rule="evenodd"/><path fill="#eeeeee" d="m215.89641 122.30683l0 0c0 -14.489861 11.746353 -26.236221 26.236221 -26.236221l0 0c6.958267 0 13.631561 2.7641678 18.551788 7.68441c4.9202576 4.92025 7.6844177 11.593536 7.6844177 18.551811l0 0c0 14.489861 -11.746338 26.236214 -26.236206 26.236214l0 0c-14.489868 0 -26.236221 -11.746353 -26.236221 -26.236214z" fill-rule="evenodd"/><path stroke="#9e9e9e" stroke-width="2.0" stroke-linejoin="round" stroke-linecap="butt" d="m215.89641 122.30683l0 0c0 -14.489861 11.746353 -26.236221 26.236221 -26.236221l0 0c6.958267 0 13.631561 2.7641678 18.551788 7.68441c4.9202576 4.92025 7.6844177 11.593536 7.6844177 18.551811l0 0c0 14.489861 -11.746338 26.236214 -26.236206 26.236214l0 0c-14.489868 0 -26.236221 -11.746353 -26.236221 -26.236214z" fill-rule="evenodd"/><path fill="#000000" fill-opacity="0.0" d="m119.92876 103.95541l0.22047424 35.84252" fill-rule="evenodd"/><path stroke="#ffff00" stroke-width="3.0" stroke-linejoin="round" stroke-linecap="butt" d="m119.92876 103.9554l0.15723419 25.561462" fill-rule="evenodd"/><path fill="#ffff00" stroke="#ffff00" stroke-width="3.0" stroke-linecap="butt" d="m120.08598 129.51686l-3.394432 -3.3529434l3.4307022 9.248375l3.3166656 -9.289879z" fill-rule="evenodd"/><path fill="#000000" fill-opacity="0.0" d="m149.39975 103.68843l0.03149414 35.842514" fill-rule="evenodd"/><path stroke="#ffff00" stroke-width="3.0" stroke-linejoin="round" stroke-linecap="butt" d="m149.39975 103.68843l0.022460938 25.561264" fill-rule="evenodd"/><path fill="#ffff00" stroke="#ffff00" stroke-width="3.0" stroke-linecap="butt" d="m149.42221 129.2497l-3.376709 -3.370781l3.381897 9.266335l3.3656006 -9.272263z" fill-rule="evenodd"/><path fill="#000000" fill-opacity="0.0" d="m178.9894 104.22238l-0.31495667 35.307083" fill-rule="evenodd"/><path stroke="#ffff00" stroke-width="3.0" stroke-linejoin="round" stroke-linecap="butt" d="m178.9894 104.22238l-0.22323608 25.02623" fill-rule="evenodd"/><path fill="#ffff00" stroke="#ffff00" stroke-width="3.0" stroke-linecap="butt" d="m178.76614 129.24861l-3.343521 -3.4037094l3.2909393 9.299034l3.4562988 -9.238846z" fill-rule="evenodd"/><path fill="#000000" fill-opacity="0.0" d="m49.205296 84.93438l294.20474 0.53543854" fill-rule="evenodd"/><path stroke="#4a86e8" stroke-width="3.0" stroke-linejoin="round" stroke-linecap="butt" d="m49.205296 84.93438l294.20474 0.53543854" fill-rule="evenodd"/><path fill="#eeeeee" d="m440.22833 154.87677l309.44885 0l0 19.433075l-309.44885 0z" fill-rule="evenodd"/><path stroke="#595959" stroke-width="1.0" stroke-linejoin="round" stroke-linecap="butt" d="m440.22833 154.87677l309.44885 0l0 19.433075l-309.44885 0z" fill-rule="evenodd"/><path fill="#eeeeee" d="m603.68427 111.70604l0 0c0 -14.489868 11.746338 -26.236221 26.236206 -26.236221l0 0c6.958252 0 13.631531 2.7641602 18.551819 7.68441c4.920227 4.9202423 7.684387 11.593529 7.684387 18.551811l0 0c0 14.489861 -11.746338 26.236221 -26.236206 26.236221l0 0c-14.489868 0 -26.236206 -11.746361 -26.236206 -26.236221z" fill-rule="evenodd"/><path stroke="#9e9e9e" stroke-width="2.0" stroke-linejoin="round" stroke-linecap="butt" d="m603.68427 111.70604l0 0c0 -14.489868 11.746338 -26.236221 26.236206 -26.236221l0 0c6.958252 0 13.631531 2.7641602 18.551819 7.68441c4.920227 4.9202423 7.684387 11.593529 7.684387 18.551811l0 0c0 14.489861 -11.746338 26.236221 -26.236206 26.236221l0 0c-14.489868 0 -26.236206 -11.746361 -26.236206 -26.236221z" fill-rule="evenodd"/><path fill="#000000" fill-opacity="0.0" d="m457.37656 94.03485l43.590546 35.338577" fill-rule="evenodd"/><path stroke="#ffff00" stroke-width="3.0" stroke-linejoin="round" stroke-linecap="butt" d="m457.37656 94.03485l35.604095 28.863983" fill-rule="evenodd"/><path fill="#ffff00" stroke="#ffff00" stroke-width="3.0" stroke-linecap="butt" d="m492.98062 122.89884l-4.745331 0.49611664l9.325012 3.216591l-5.0758057 -8.458054z" fill-rule="evenodd"/><path fill="#000000" fill-opacity="0.0" d="m500.96478 94.03485l43.590576 35.338577" fill-rule="evenodd"/><path stroke="#ffff00" stroke-width="3.0" stroke-linejoin="round" stroke-linecap="butt" d="m500.96478 94.03485l35.604065 28.863983" fill-rule="evenodd"/><path fill="#ffff00" stroke="#ffff00" stroke-width="3.0" stroke-linecap="butt" d="m536.56885 122.89884l-4.7453613 0.49611664l9.325012 3.216591l-5.0758057 -8.458054z" fill-rule="evenodd"/><path fill="#000000" fill-opacity="0.0" d="m544.55304 94.03485l43.590515 35.338577" fill-rule="evenodd"/><path stroke="#ffff00" stroke-width="3.0" stroke-linejoin="round" stroke-linecap="butt" d="m544.55304 94.03485l35.604065 28.863983" fill-rule="evenodd"/><path fill="#ffff00" stroke="#ffff00" stroke-width="3.0" stroke-linecap="butt" d="m580.1571 122.89884l-4.7453613 0.49611664l9.325012 3.216591l-5.0758057 -8.458054z" fill-rule="evenodd"/><path fill="#000000" fill-opacity="0.0" d="m611.36865 130.25784l29.700806 24.629929" fill-rule="evenodd"/><path stroke="#9e9e9e" stroke-width="3.0" stroke-linejoin="round" stroke-linecap="butt" d="m611.36865 130.25784l29.700806 24.629929" fill-rule="evenodd"/><path fill="#000000" fill-opacity="0.0" d="m648.1414 92.69497l77.25983 62.173225" fill-rule="evenodd"/><path stroke="#9e9e9e" stroke-width="3.0" stroke-linejoin="round" stroke-linecap="butt" d="m648.1414 92.69497l77.25983 62.173225" fill-rule="evenodd"/><path fill="#000000" fill-opacity="0.0" d="m639.8837 154.87677l84.53546 0" fill-rule="evenodd"/><path stroke="#000000" stroke-width="2.0" stroke-linejoin="round" stroke-linecap="butt" d="m639.8837 154.87677l84.53546 0" fill-rule="evenodd"/><path fill="#eeeeee" d="m648.80084 93.48869l0 0c6.513794 6.7508698 8.92749 16.465935 6.3305054 25.480347c-2.5969849 9.014412 -9.809326 15.956299 -18.916382 18.206955c-9.107056 2.2506561 -18.72284 -0.5324402 -25.21991 -7.299408l18.925415 -18.170547z" fill-rule="evenodd"/><path stroke="#000000" stroke-width="3.0" stroke-linejoin="round" stroke-linecap="butt" d="m648.80084 93.48869l0 0c6.513794 6.7508698 8.92749 16.465935 6.3305054 25.480347c-2.5969849 9.014412 -9.809326 15.956299 -18.916382 18.206955c-9.107056 2.2506561 -18.72284 -0.5324402 -25.21991 -7.299408l18.925415 -18.170547z" fill-rule="evenodd"/><path fill="#eeeeee" d="m603.68427 111.70604l0 0c0 -14.489868 11.746338 -26.236221 26.236206 -26.236221l0 0c6.958252 0 13.631531 2.7641602 18.551819 7.68441c4.920227 4.9202423 7.684387 11.593529 7.684387 18.551811l0 0c0 14.489861 -11.746338 26.236221 -26.236206 26.236221l0 0c-14.489868 0 -26.236206 -11.746361 -26.236206 -26.236221z" fill-rule="evenodd"/><path fill="#000000" fill-opacity="0.0" d="m525.7093 153.01038l89.22833 -120.59843l134.74017 99.71653l-89.22839 120.598434z" fill-rule="evenodd"/><path stroke="#bed2f2" stroke-width="2.0" stroke-linejoin="round" stroke-linecap="butt" d="m525.7093 153.01038l89.22833 -120.59843l134.74017 99.71653l-89.22839 120.598434z" fill-rule="evenodd"/><path fill="#000000" fill-opacity="0.0" d="m525.7512 152.95369l89.98425 -119.84252" fill-rule="evenodd"/><path stroke="#4a86e8" stroke-width="3.0" stroke-linejoin="round" stroke-linecap="butt" d="m525.7512 152.95369l89.98425 -119.84252" fill-rule="evenodd"/></g></svg>