<svg version="1.1" viewBox="0.0 0.0 600 270" fill="none" stroke="none" stroke-linecap="square" stroke-miterlimit="10" xmlns:xlink="http://www.w3.org/1999/xlink" xmlns="http://www.w3.org/2000/svg"><clipPath id="gf08903e0e4_0_0.0"><path d="m0 0l960.0 0l0 540.0l-960.0 0l0 -540.0z" clip-rule="nonzero"/></clipPath><g clip-path="url(#gf08903e0e4_0_0.0)"><path fill="#ffffff" d="m0 0l960.0 0l0 540.0l-960.0 0z" fill-rule="evenodd"/><path fill="#eeeeee" d="m45.645668 155.50131l492.81888 0l0 30.960632l-492.81888 0z" fill-rule="evenodd"/><path stroke="#595959" stroke-width="1.0" stroke-linejoin="round" stroke-linecap="butt" d="m45.645668 155.50131l492.81888 0l0 30.960632l-492.81888 0z" fill-rule="evenodd"/><path fill="#eeeeee" d="m305.96063 86.74541l0 0c0 -23.074196 18.705322 -41.77953 41.77951 -41.77953l0 0c11.080627 0 21.707428 4.40176 29.542603 12.236942c7.8351746 7.835182 12.236938 18.461967 12.236938 29.542587l0 0c0 23.074196 -18.705322 41.779526 -41.77954 41.779526l0 0c-23.074188 0 -41.77951 -18.70533 -41.77951 -41.779526z" fill-rule="evenodd"/><path stroke="#9e9e9e" stroke-width="2.0" stroke-linejoin="round" stroke-linecap="butt" d="m305.96063 86.74541l0 0c0 -23.074196 18.705322 -41.77953 41.77951 -41.77953l0 0c11.080627 0 21.707428 4.40176 29.542603 12.236942c7.8351746 7.835182 12.236938 18.461967 12.236938 29.542587l0 0c0 23.074196 -18.705322 41.779526 -41.77954 41.779526l0 0c-23.074188 0 -41.77951 -18.70533 -41.77951 -41.779526z" fill-rule="evenodd"/><path fill="#000000" fill-opacity="0.0" d="m72.95538 58.6063l69.41731 56.283463" fill-rule="evenodd"/><path stroke="#ffff00" stroke-width="3.0" stroke-linejoin="round" stroke-linecap="butt" d="m72.95538 58.6063l61.431244 49.808365" fill-rule="evenodd"/><path fill="#ffff00" stroke="#ffff00" stroke-width="3.0" stroke-linecap="butt" d="m134.38663 108.414665l-4.7453766 0.4958191l9.324814 3.2171783l-5.0752563 -8.458366z" fill-rule="evenodd"/><path fill="#000000" fill-opacity="0.0" d="m142.3727 58.6063l69.41733 56.283463" fill-rule="evenodd"/><path stroke="#ffff00" stroke-width="3.0" stroke-linejoin="round" stroke-linecap="butt" d="m142.3727 58.6063l61.43126 49.808365" fill-rule="evenodd"/><path fill="#ffff00" stroke="#ffff00" stroke-width="3.0" stroke-linecap="butt" d="m203.80396 108.414665l-4.7453766 0.4958191l9.324799 3.2171783l-5.075241 -8.458366z" fill-rule="evenodd"/><path fill="#000000" fill-opacity="0.0" d="m211.79002 58.6063l69.41731 56.283463" fill-rule="evenodd"/><path stroke="#ffff00" stroke-width="3.0" stroke-linejoin="round" stroke-linecap="butt" d="m211.79002 58.6063l61.43126 49.808365" fill-rule="evenodd"/><path fill="#ffff00" stroke="#ffff00" stroke-width="3.0" stroke-linecap="butt" d="m273.22128 108.414665l-4.745392 0.4958191l9.324829 3.2171783l-5.0752563 -8.458366z" fill-rule="evenodd"/><path fill="#000000" fill-opacity="0.0" d="m318.19757 116.287994l47.3071 39.2126" fill-rule="evenodd"/><path stroke="#9e9e9e" stroke-width="3.0" stroke-linejoin="round" stroke-linecap="butt" d="m318.19757 116.287994l47.3071 39.2126" fill-rule="evenodd"/><path fill="#000000" fill-opacity="0.0" d="m376.76178 56.472443l123.02365 99.02362" fill-rule="evenodd"/><path stroke="#9e9e9e" stroke-width="3.0" stroke-linejoin="round" stroke-linecap="butt" d="m376.76178 56.472443l123.02365 99.02362" fill-rule="evenodd"/><path fill="#000000" fill-opacity="0.0" d="m363.61084 155.50131l134.61417 0" fill-rule="evenodd"/><path stroke="#000000" stroke-width="2.0" stroke-linejoin="round" stroke-linecap="butt" d="m363.61084 155.50131l134.61417 0" fill-rule="evenodd"/><path fill="#eeeeee" d="m377.80594 57.73544l0 0c10.372803 10.750332 14.216431 26.220959 10.080933 40.57584c-4.135498 14.354881 -15.620758 25.409409 -30.123169 28.993431c-14.50238 3.5840225 -29.81488 -0.8478775 -40.16104 -11.623856l30.137482 -28.935448z" fill-rule="evenodd"/><path stroke="#000000" stroke-width="3.0" stroke-linejoin="round" stroke-linecap="butt" d="m377.80594 57.73544l0 0c10.372803 10.750332 14.216431 26.220959 10.080933 40.57584c-4.135498 14.354881 -15.620758 25.409409 -30.123169 28.993431c-14.50238 3.5840225 -29.81488 -0.8478775 -40.16104 -11.623856l30.137482 -28.935448z" fill-rule="evenodd"/><path fill="#eeeeee" d="m305.96063 86.74541l0 0c0 -23.074196 18.705322 -41.77953 41.77951 -41.77953l0 0c11.080627 0 21.707428 4.40176 29.542603 12.236942c7.8351746 7.835182 12.236938 18.461967 12.236938 29.542587l0 0c0 23.074196 -18.705322 41.779526 -41.77954 41.779526l0 0c-23.074188 0 -41.77951 -18.70533 -41.77951 -41.779526z" fill-rule="evenodd"/></g></svg>