<svg version="1.1" viewBox="0.0 0.0 680 220" fill="none" stroke="none" stroke-linecap="square" stroke-miterlimit="10" xmlns:xlink="http://www.w3.org/1999/xlink" xmlns="http://www.w3.org/2000/svg"><clipPath id="gf08903e0e4_0_36.0"><path d="m0 0l960.0 0l0 540.0l-960.0 0l0 -540.0z" clip-rule="nonzero"/></clipPath><g clip-path="url(#gf08903e0e4_0_36.0)"><path fill="#ffffff" d="m0 0l960.0 0l0 540.0l-960.0 0z" fill-rule="evenodd"/><path fill="#eeeeee" d="m144.29134 157.2021l492.8189 0l0 30.960632l-492.8189 0z" fill-rule="evenodd"/><path stroke="#595959" stroke-width="1.0" stroke-linejoin="round" stroke-linecap="butt" d="m144.29134 157.2021l492.8189 0l0 30.960632l-492.8189 0z" fill-rule="evenodd"/><path fill="#eeeeee" d="m404.6063 88.4462l0 0c0 -23.074196 18.705353 -41.77953 41.77954 -41.77953l0 0c11.080627 0 21.707397 4.4017563 29.542572 12.236938c7.8351746 7.8351784 12.236938 18.461971 12.236938 29.542591l0 0c0 23.074196 -18.705322 41.779526 -41.77951 41.779526l0 0c-23.074188 0 -41.77954 -18.70533 -41.77954 -41.779526z" fill-rule="evenodd"/><path stroke="#9e9e9e" stroke-width="2.0" stroke-linejoin="round" stroke-linecap="butt" d="m404.6063 88.4462l0 0c0 -23.074196 18.705353 -41.77953 41.77954 -41.77953l0 0c11.080627 0 21.707397 4.4017563 29.542572 12.236938c7.8351746 7.8351784 12.236938 18.461971 12.236938 29.542591l0 0c0 23.074196 -18.705322 41.779526 -41.77951 41.779526l0 0c-23.074188 0 -41.77954 -18.70533 -41.77954 -41.779526z" fill-rule="evenodd"/><path fill="#000000" fill-opacity="0.0" d="m171.60104 60.307087l69.41733 56.283466" fill-rule="evenodd"/><path stroke="#ffff00" stroke-width="3.0" stroke-linejoin="round" stroke-linecap="butt" d="m171.60104 60.307087l61.43126 49.80837" fill-rule="evenodd"/><path fill="#ffff00" stroke="#ffff00" stroke-width="3.0" stroke-linecap="butt" d="m233.0323 110.115456l-4.7453766 0.4958191l9.324799 3.2171783l-5.075241 -8.458374z" fill-rule="evenodd"/><path fill="#000000" fill-opacity="0.0" d="m241.01837 60.307087l69.41733 56.283466" fill-rule="evenodd"/><path stroke="#ffff00" stroke-width="3.0" stroke-linejoin="round" stroke-linecap="butt" d="m241.01837 60.307087l61.431244 49.80837" fill-rule="evenodd"/><path fill="#ffff00" stroke="#ffff00" stroke-width="3.0" stroke-linecap="butt" d="m302.44962 110.115456l-4.7453613 0.4958191l9.324799 3.2171783l-5.0752563 -8.458374z" fill-rule="evenodd"/><path fill="#000000" fill-opacity="0.0" d="m310.4357 60.307087l69.41733 56.283466" fill-rule="evenodd"/><path stroke="#ffff00" stroke-width="3.0" stroke-linejoin="round" stroke-linecap="butt" d="m310.4357 60.307087l61.431274 49.80837" fill-rule="evenodd"/><path fill="#ffff00" stroke="#ffff00" stroke-width="3.0" stroke-linecap="butt" d="m371.86694 110.115456l-4.7453613 0.4958191l9.324799 3.2171783l-5.0752563 -8.458374z" fill-rule="evenodd"/><path fill="#000000" fill-opacity="0.0" d="m416.84323 117.988785l47.3071 39.2126" fill-rule="evenodd"/><path stroke="#9e9e9e" stroke-width="3.0" stroke-linejoin="round" stroke-linecap="butt" d="m416.84323 117.988785l47.3071 39.2126" fill-rule="evenodd"/><path fill="#000000" fill-opacity="0.0" d="m475.40747 58.17323l123.02362 99.02362" fill-rule="evenodd"/><path stroke="#9e9e9e" stroke-width="3.0" stroke-linejoin="round" stroke-linecap="butt" d="m475.40747 58.17323l123.02362 99.02362" fill-rule="evenodd"/><path fill="#000000" fill-opacity="0.0" d="m462.2565 157.2021l134.61417 0" fill-rule="evenodd"/><path stroke="#000000" stroke-width="2.0" stroke-linejoin="round" stroke-linecap="butt" d="m462.2565 157.2021l134.61417 0" fill-rule="evenodd"/><path fill="#eeeeee" d="m476.4516 59.436226l0 0c10.372803 10.750328 14.216461 26.220963 10.080963 40.575844c-4.135498 14.354881 -15.620789 25.4094 -30.123169 28.993423c-14.502411 3.5840302 -29.81491 -0.8478699 -40.16107 -11.623856l30.137512 -28.93544z" fill-rule="evenodd"/><path stroke="#000000" stroke-width="3.0" stroke-linejoin="round" stroke-linecap="butt" d="m476.4516 59.436226l0 0c10.372803 10.750328 14.216461 26.220963 10.080963 40.575844c-4.135498 14.354881 -15.620789 25.4094 -30.123169 28.993423c-14.502411 3.5840302 -29.81491 -0.8478699 -40.16107 -11.623856l30.137512 -28.93544z" fill-rule="evenodd"/><path fill="#eeeeee" d="m404.6063 88.4462l0 0c0 -23.074196 18.705353 -41.77953 41.77954 -41.77953l0 0c11.080627 0 21.707397 4.4017563 29.542572 12.236938c7.8351746 7.8351784 12.236938 18.461971 12.236938 29.542591l0 0c0 23.074196 -18.705322 41.779526 -41.77951 41.779526l0 0c-23.074188 0 -41.77954 -18.70533 -41.77954 -41.779526z" fill-rule="evenodd"/><path fill="#000000" fill-opacity="0.0" d="m625.03937 167.02362l-156.87347 -133.00787l-451.15802 0l156.87347 133.00787z" fill-rule="evenodd"/><path stroke="#bed2f2" stroke-width="1.0" stroke-linejoin="round" stroke-linecap="butt" d="m625.03937 167.02362l-156.87347 -133.00787l-451.15802 0l156.87347 133.00787z" fill-rule="evenodd"/><path fill="#000000" fill-opacity="0.0" d="m17.008444 34.015747l450.70865 0" fill-rule="evenodd"/><path stroke="#4a86e8" stroke-width="3.0" stroke-linejoin="round" stroke-linecap="butt" d="m17.008444 34.015747l450.70865 0" fill-rule="evenodd"/></g></svg>