<svg version="1.1" viewBox="0.0 0.0 375 280" fill="none" stroke="none" stroke-linecap="square" stroke-miterlimit="10" xmlns:xlink="http://www.w3.org/1999/xlink" xmlns="http://www.w3.org/2000/svg"><clipPath id="gcb2ce34080_0_0.0"><path d="m0 0l960.0 0l0 540.0l-960.0 0l0 -540.0z" clip-rule="nonzero"/></clipPath><g clip-path="url(#gcb2ce34080_0_0.0)"><path fill="#ffffff" d="m0 0l960.0 0l0 540.0l-960.0 0z" fill-rule="evenodd"/><path fill="#fff2cc" d="m39.443737 19.269344l23.59055 12.535433l-12.535435 23.590551l-23.59055 -12.535435z" fill-rule="evenodd"/><path stroke="#595959" stroke-width="1.0" stroke-linejoin="round" stroke-linecap="butt" d="m39.443737 19.269344l23.59055 12.535433l-12.535435 23.590551l-23.59055 -12.535435z" fill-rule="evenodd"/><path fill="#eeeeee" d="m63.19197 31.40403l6.740158 3.5590553l-12.535431 23.59055l-6.740158 -3.5590553z" fill-rule="evenodd"/><path stroke="#0097a7" stroke-width="2.0" stroke-linejoin="round" stroke-linecap="butt" d="m63.19197 31.40403l6.740158 3.5590553l-12.535431 23.59055l-6.740158 -3.5590553z" fill-rule="evenodd"/><path fill="#000000" fill-opacity="0.0" d="m58.82566 31.63628l266.11026 75.1181" fill-rule="evenodd"/><path stroke="#595959" stroke-width="2.0" stroke-linejoin="round" stroke-linecap="butt" d="m66.12059 33.695507l252.21892 71.19684" fill-rule="evenodd"/><path fill="#595959" stroke="#595959" stroke-width="2.0" stroke-linecap="butt" d="m59.788055 31.907946c0.49362183 -1.748682 2.311367 -2.7661095 4.060051 -2.2724876c1.7486801 0.49362183 2.7661057 2.311367 2.2724838 4.060049c-0.49362183 1.7486801 -2.3113632 2.7661095 -4.060047 2.2724876c-1.7486801 -0.49362183 -2.7661095 -2.311367 -2.2724876 -4.060049z" fill-rule="nonzero"/><path fill="#595959" stroke="#595959" stroke-width="2.0" stroke-linecap="butt" d="m318.3395 104.89234l-2.7756042 1.5535583l6.5581665 -0.48580933l-5.3361206 -3.8433456z" fill-rule="evenodd"/><path fill="#000000" fill-opacity="0.0" d="m256.84778 233.6378l-210.04726 -181.70079" fill-rule="evenodd"/><path stroke="#595959" stroke-width="2.0" stroke-linejoin="round" stroke-linecap="butt" d="m251.664 229.15358l-199.13077 -172.2575" fill-rule="evenodd"/><path fill="#595959" stroke="#595959" stroke-width="2.0" stroke-linecap="butt" d="m251.66399 229.15358l-3.1725006 0.22956848l6.1450195 2.3417969l-3.2020721 -5.743866z" fill-rule="evenodd"/><path fill="#595959" stroke="#595959" stroke-width="2.0" stroke-linecap="butt" d="m47.55682 52.59124c1.1887474 -1.3742027 3.26643 -1.52454 4.640629 -0.33579254c1.3742027 1.1887474 1.52454 3.26643 0.33579254 4.640629c-1.1887512 1.3742027 -3.26643 1.52454 -4.640629 0.33579254c-1.3742027 -1.1887474 -1.52454 -3.26643 -0.33579254 -4.640629z" fill-rule="nonzero"/><path fill="#000000" fill-opacity="0.0" d="m66.8833 33.518097l288.2205 80.97638" fill-rule="evenodd"/><path stroke="#0097a7" stroke-width="1.0" stroke-linejoin="round" stroke-linecap="butt" d="m66.8833 33.518097l288.2205 80.97638" fill-rule="evenodd"/><path fill="#000000" fill-opacity="0.0" d="m280.83203 256.0735l-227.08662 -200.0315" fill-rule="evenodd"/><path stroke="#0097a7" stroke-width="1.0" stroke-linejoin="round" stroke-linecap="butt" d="m280.83203 256.0735l-227.08662 -200.0315" fill-rule="evenodd"/><path fill="#000000" fill-opacity="0.0" d="m253.75308 236.3814l71.93701 -132.72443" fill-rule="evenodd"/><path stroke="#0097a7" stroke-width="1.0" stroke-linejoin="round" stroke-linecap="butt" d="m255.55905 233.04936l68.32504 -126.06033" fill-rule="evenodd"/><path fill="#0097a7" stroke="#0097a7" stroke-width="1.0" stroke-linecap="butt" d="m253.99133 235.94182c-0.7987366 -0.43292236 -1.0952911 -1.431366 -0.6623688 -2.2301025c0.4329071 -0.7987213 1.431366 -1.0952759 2.2300873 -0.6623688c0.7987366 0.43292236 1.0952759 1.431366 0.66238403 2.2301025c-0.43292236 0.7987213 -1.431366 1.0952759 -2.2301025 0.6623688z" fill-rule="nonzero"/><path fill="#0097a7" stroke="#0097a7" stroke-width="1.0" stroke-linecap="butt" d="m325.4518 104.096565c0.7987366 0.43291473 1.0953064 1.4313583 0.66238403 2.2300873c-0.43292236 0.7987366 -1.431366 1.0952911 -2.2301025 0.6623764c-0.79870605 -0.43291473 -1.0952759 -1.431366 -0.6623535 -2.230095c0.43292236 -0.7987366 1.431366 -1.0952835 2.230072 -0.6623688z" fill-rule="nonzero"/><path fill="#dd7e6b" d="m251.56958 156.2243l-21.755447 0l-10.877731 -10.208832l43.510895 0z" fill-rule="evenodd"/><path fill="#6bde99" d="m228.40727 133.90395l12.864685 -12.073616l0 24.14721z" fill-rule="evenodd"/><path fill="#000000" fill-opacity="0.0" d="m37.50364 33.516838l206.74014 90.89764" fill-rule="evenodd"/><path stroke="#ff9900" stroke-width="2.0" stroke-linejoin="round" stroke-linecap="butt" d="m43.77813 36.27555l193.52673 85.08808" fill-rule="evenodd"/><path fill="#ff9900" stroke="#ff9900" stroke-width="2.0" stroke-linecap="butt" d="m43.778126 36.27555l2.9642067 -1.1536865l-6.562168 -0.4282341l4.751648 4.5461235z" fill-rule="evenodd"/><path fill="#ff9900" stroke="#ff9900" stroke-width="2.0" stroke-linecap="butt" d="m243.32835 124.011986c-0.73132324 1.6633453 -2.672577 2.4188995 -4.3359222 1.6875763c-1.6633453 -0.7313309 -2.4188995 -2.6725922 -1.6875763 -4.3359375c0.73132324 -1.6633453 2.6725922 -2.418892 4.3359375 -1.6875687c1.6633453 0.73132324 2.4188995 2.6725845 1.687561 4.33593z" fill-rule="nonzero"/><path fill="#000000" fill-opacity="0.0" d="m9.372131 -5.6790833l105.22835 0l0 33.92126l-105.22835 0z" fill-rule="evenodd"/><path fill="#f1c232" d="m23.231506 12.559667l1.03125 0.140625q-0.171875 1.0625 -0.875 1.671875q-0.703125 0.609375 -1.71875 0.609375q-1.28125 0 -2.0625 -0.828125q-0.765625 -0.84375 -0.765625 -2.40625q0 -1.0 0.328125 -1.75q0.34375 -0.765625 1.015625 -1.140625q0.6875 -0.375 1.5 -0.375q1.0 0 1.640625 0.515625q0.65625 0.5 0.84375 1.453125l-1.03125 0.15625q-0.140625 -0.625 -0.515625 -0.9375q-0.375 -0.328125 -0.90625 -0.328125q-0.796875 0 -1.296875 0.578125q-0.5 0.5625 -0.5 1.796875q0 1.265625 0.484375 1.828125q0.484375 0.5625 1.25 0.5625q0.625 0 1.03125 -0.375q0.421875 -0.375 0.546875 -1.171875zm1.90625 2.28125l0 -8.59375l1.0625 0l0 8.59375l-1.0625 0zm2.6972656 -7.3749995l0 -1.21875l1.0625 0l0 1.21875l-1.0625 0zm0 7.3749995l0 -6.21875l1.0625 0l0 6.21875l-1.0625 0zm2.6660156 2.390626l0 -8.609376l0.953125 0l0 0.796875q0.34375 -0.46875 0.765625 -0.703125q0.4375 -0.234375 1.046875 -0.234375q0.796875 0 1.40625 0.40625q0.609375 0.40625 0.90625 1.15625q0.3125 0.75 0.3125 1.640625q0 0.953125 -0.34375 1.71875q-0.328125 0.765625 -0.984375 1.171875q-0.65625 0.40625 -1.375 0.40625q-0.53125 0 -0.953125 -0.21875q-0.421875 -0.234375 -0.6875 -0.5625l0 3.031251l-1.046875 0zm0.953125 -5.468751q0 1.203125 0.484375 1.78125q0.484375 0.5625 1.171875 0.5625q0.703125 0 1.203125 -0.59375q0.5 -0.59375 0.5 -1.84375q0 -1.1875 -0.484375 -1.765625q-0.484375 -0.59375 -1.171875 -0.59375q-0.671875 0 -1.1875 0.625q-0.515625 0.625 -0.515625 1.828125zm8.6328125 1.21875l1.03125 -0.15625q0.09375 0.625 0.484375 0.953125q0.40625 0.328125 1.140625 0.328125q0.71875 0 1.0625 -0.28125q0.359375 -0.296875 0.359375 -0.703125q0 -0.359375 -0.3125 -0.5625q-0.21875 -0.140625 -1.078125 -0.359375q-1.15625 -0.296875 -1.609375 -0.5q-0.4375 -0.21875 -0.671875 -0.59375q-0.234375 -0.375 -0.234375 -0.84375q0 -0.40625 0.1875 -0.765625q0.1875 -0.359375 0.515625 -0.59375q0.25 -0.171875 0.671875 -0.296875q0.421875 -0.125 0.921875 -0.125q0.71875 0 1.265625 0.21875q0.5625 0.203125 0.828125 0.5625q0.265625 0.359375 0.359375 0.953125l-1.03125 0.140625q-0.0625 -0.46875 -0.40625 -0.734375q-0.328125 -0.28125 -0.953125 -0.28125q-0.71875 0 -1.03125 0.25q-0.3125 0.234375 -0.3125 0.5625q0 0.203125 0.125 0.359375q0.140625 0.171875 0.40625 0.28125q0.15625 0.0625 0.9375 0.265625q1.125 0.3125 1.5625 0.5q0.4375 0.1875 0.6875 0.546875q0.25 0.359375 0.25 0.90625q0 0.53125 -0.3125 1.0q-0.296875 0.453125 -0.875 0.71875q-0.578125 0.25 -1.3125 0.25q-1.21875 0 -1.859375 -0.5q-0.625 -0.515625 -0.796875 -1.5zm6.421875 4.250001l0 -8.609376l0.953125 0l0 0.796875q0.34375 -0.46875 0.765625 -0.703125q0.4375 -0.234375 1.046875 -0.234375q0.796875 0 1.40625 0.40625q0.609375 0.40625 0.90625 1.15625q0.3125 0.75 0.3125 1.640625q0 0.953125 -0.34375 1.71875q-0.328125 0.765625 -0.984375 1.171875q-0.65625 0.40625 -1.375 0.40625q-0.53125 0 -0.953125 -0.21875q-0.421875 -0.234375 -0.6875 -0.5625l0 3.031251l-1.046875 0zm0.953125 -5.468751q0 1.203125 0.484375 1.78125q0.484375 0.5625 1.171875 0.5625q0.703125 0 1.203125 -0.59375q0.5 -0.59375 0.5 -1.84375q0 -1.1875 -0.484375 -1.765625q-0.484375 -0.59375 -1.171875 -0.59375q-0.671875 0 -1.1875 0.625q-0.515625 0.625 -0.515625 1.828125zm9.783203 2.3125q-0.59375 0.5 -1.140625 0.703125q-0.53125 0.203125 -1.15625 0.203125q-1.03125 0 -1.578125 -0.5q-0.546875 -0.5 -0.546875 -1.28125q0 -0.453125 0.203125 -0.828125q0.203125 -0.390625 0.546875 -0.609375q0.34375 -0.234375 0.765625 -0.34375q0.296875 -0.09375 0.9375 -0.171875q1.265625 -0.140625 1.875 -0.359375q0 -0.21875 0 -0.265625q0 -0.65625 -0.296875 -0.921875q-0.40625 -0.34375 -1.203125 -0.34375q-0.734375 0 -1.09375 0.265625q-0.359375 0.25 -0.53125 0.90625l-1.03125 -0.140625q0.140625 -0.65625 0.46875 -1.0625q0.328125 -0.40625 0.9375 -0.625q0.609375 -0.21875 1.40625 -0.21875q0.796875 0 1.296875 0.1875q0.5 0.1875 0.734375 0.46875q0.234375 0.28125 0.328125 0.71875q0.046875 0.265625 0.046875 0.96875l0 1.40625q0 1.46875 0.0625 1.859375q0.078125 0.390625 0.28125 0.75l-1.109375 0q-0.15625 -0.328125 -0.203125 -0.765625zm-0.09375 -2.359375q-0.578125 0.234375 -1.71875 0.40625q-0.65625 0.09375 -0.921875 0.21875q-0.265625 0.109375 -0.421875 0.328125q-0.140625 0.21875 -0.140625 0.5q0 0.421875 0.3125 0.703125q0.328125 0.28125 0.9375 0.28125q0.609375 0 1.078125 -0.265625q0.484375 -0.265625 0.703125 -0.734375q0.171875 -0.359375 0.171875 -1.046875l0 -0.390625zm6.767578 0.84375l1.03125 0.140625q-0.171875 1.0625 -0.875 1.671875q-0.703125 0.609375 -1.71875 0.609375q-1.28125 0 -2.0625 -0.828125q-0.765625 -0.84375 -0.765625 -2.40625q0 -1.0 0.328125 -1.75q0.34375 -0.765625 1.015625 -1.140625q0.6875 -0.375 1.5 -0.375q1.0 0 1.640625 0.515625q0.65625 0.5 0.84375 1.453125l-1.03125 0.15625q-0.140625 -0.625 -0.515625 -0.9375q-0.375 -0.328125 -0.90625 -0.328125q-0.796875 0 -1.296875 0.578125q-0.5 0.5625 -0.5 1.796875q0 1.265625 0.484375 1.828125q0.484375 0.5625 1.25 0.5625q0.625 0 1.03125 -0.375q0.421875 -0.375 0.546875 -1.171875zm6.1875 0.28125l1.09375 0.125q-0.25 0.953125 -0.953125 1.484375q-0.703125 0.53125 -1.78125 0.53125q-1.359375 0 -2.171875 -0.84375q-0.796875 -0.84375 -0.796875 -2.359375q0 -1.5625 0.8125 -2.421875q0.8125 -0.875 2.09375 -0.875q1.25 0 2.03125 0.84375q0.796875 0.84375 0.796875 2.390625q0 0.09375 0 0.28125l-4.640625 0q0.0625 1.03125 0.578125 1.578125q0.515625 0.53125 1.296875 0.53125q0.578125 0 0.984375 -0.296875q0.421875 -0.3125 0.65625 -0.96875zm-3.453125 -1.703125l3.46875 0q-0.0625 -0.796875 -0.390625 -1.1875q-0.515625 -0.609375 -1.3125 -0.609375q-0.734375 0 -1.234375 0.484375q-0.484375 0.484375 -0.53125 1.3125z" fill-rule="nonzero"/></g></svg>