<svg version="1.1" viewBox="0.0 0.0 640 270" fill="none" stroke="none" stroke-linecap="square" stroke-miterlimit="10" xmlns:xlink="http://www.w3.org/1999/xlink" xmlns="http://www.w3.org/2000/svg"><clipPath id="gec0bf81805_0_0.0"><path d="m0 0l960.0 0l0 540.0l-960.0 0l0 -540.0z" clip-rule="nonzero"/></clipPath><g clip-path="url(#gec0bf81805_0_0.0)"><path fill="#ffffff" d="m0 0l960.0 0l0 540.0l-960.0 0z" fill-rule="evenodd"/><path fill="#000000" fill-opacity="0.0" d="m41.002625 133.06824l554.7087 0" fill-rule="evenodd"/><path stroke="#595959" stroke-width="1.0" stroke-linejoin="round" stroke-linecap="butt" d="m41.002625 133.06824l554.7087 0" fill-rule="evenodd"/><path fill="#000000" fill-opacity="0.0" d="m137.42157 35.8194l0 0c1.6499786 4.2729263 1.2424164 8.477016 -1.1026001 11.373325c-2.3450165 2.8963127 -6.3601837 4.154728 -10.862236 3.4043922l-1.5899887 -13.571877z" fill-rule="evenodd"/><path fill="#000000" fill-opacity="0.0" d="m137.42157 35.8194l0 0c1.6499786 4.2729263 1.2424164 8.477016 -1.1026001 11.373325c-2.3450165 2.8963127 -6.3601837 4.154728 -10.862236 3.4043922" fill-rule="evenodd"/><path stroke="#0097a7" stroke-width="3.0" stroke-linejoin="round" stroke-linecap="butt" d="m137.42157 35.8194l0 0c1.6499786 4.2729263 1.2424164 8.477016 -1.1026001 11.373325c-2.3450165 2.8963127 -6.3601837 4.154728 -10.862236 3.4043922" fill-rule="evenodd"/><path fill="#000000" fill-opacity="0.0" d="m122.488106 35.589573l23.98513 -0.26358795" fill-rule="evenodd"/><path stroke="#0097a7" stroke-width="3.0" stroke-linejoin="round" stroke-linecap="butt" d="m122.488106 35.589573l23.98513 -0.26358795" fill-rule="evenodd"/><path fill="#000000" fill-opacity="0.0" d="m122.488106 35.589573l4.5703354 24.219788" fill-rule="evenodd"/><path stroke="#0097a7" stroke-width="3.0" stroke-linejoin="round" stroke-linecap="butt" d="m122.488106 35.589573l4.5703354 24.219788" fill-rule="evenodd"/><path fill="#000000" d="m131.26224 43.02454l0 0c2.7224426 -3.299343 6.2142944 -4.9137764 7.7992706 -3.605938l0 0c0.76112366 0.62804794 0.9717407 1.8597679 0.585495 3.4242058c-0.38623047 1.564434 -1.3376923 3.3334312 -2.64505 4.9178314l0 0c-2.7224426 3.299343 -6.2142944 4.9137764 -7.7992706 3.605938l0 0c-1.5849762 -1.3078384 -0.6628876 -5.042694 2.059555 -8.342037z" fill-rule="evenodd"/><path stroke="#0097a7" stroke-width="3.0" stroke-linejoin="round" stroke-linecap="butt" d="m131.26224 43.02454l0 0c2.7224426 -3.299343 6.2142944 -4.9137764 7.7992706 -3.605938l0 0c0.76112366 0.62804794 0.9717407 1.8597679 0.585495 3.4242058c-0.38623047 1.564434 -1.3376923 3.3334312 -2.64505 4.9178314l0 0c-2.7224426 3.299343 -6.2142944 4.9137764 -7.7992706 3.605938l0 0c-1.5849762 -1.3078384 -0.6628876 -5.042694 2.059555 -8.342037z" fill-rule="evenodd"/><path fill="#000000" fill-opacity="0.0" d="m300.9449 133.06561l78.92914 41.007874" fill-rule="evenodd"/><path stroke="#595959" stroke-width="1.0" stroke-linejoin="round" stroke-linecap="butt" d="m300.9449 133.06561l78.92914 41.007874" fill-rule="evenodd"/><path fill="#eeeeee" d="m375.9895 188.7664l0 0c0 -15.385696 12.472565 -27.858261 27.858276 -27.858261l0 0c7.3884583 0 14.474335 2.9350586 19.698761 8.159485c5.2244263 5.2244415 8.159485 12.310303 8.159485 19.698776l0 0c0 15.385696 -12.472565 27.858261 -27.858246 27.858261l0 0c-15.385712 0 -27.858276 -12.472565 -27.858276 -27.858261z" fill-rule="evenodd"/><path stroke="#6d9eeb" stroke-width="2.0" stroke-linejoin="round" stroke-linecap="butt" d="m375.9895 188.7664l0 0c0 -15.385696 12.472565 -27.858261 27.858276 -27.858261l0 0c7.3884583 0 14.474335 2.9350586 19.698761 8.159485c5.2244263 5.2244415 8.159485 12.310303 8.159485 19.698776l0 0c0 15.385696 -12.472565 27.858261 -27.858246 27.858261l0 0c-15.385712 0 -27.858276 -12.472565 -27.858276 -27.858261z" fill-rule="evenodd"/><path fill="#000000" fill-opacity="0.0" d="m127.858215 224.17233l0 0c4.549759 -0.5321655 8.519653 0.9111786 10.739731 3.9046783c2.2200928 2.9934998 2.4373322 7.1959686 0.5877075 11.368927l-13.540581 -1.8453522z" fill-rule="evenodd"/><path fill="#000000" fill-opacity="0.0" d="m127.858215 224.17233l0 0c4.549759 -0.5321655 8.519653 0.9111786 10.739731 3.9046783c2.2200928 2.9934998 2.4373322 7.1959686 0.5877075 11.368927" fill-rule="evenodd"/><path stroke="#b7b7b7" stroke-width="3.0" stroke-linejoin="round" stroke-linecap="butt" d="m127.858215 224.17233l0 0c4.549759 -0.5321655 8.519653 0.9111786 10.739731 3.9046783c2.2200928 2.9934998 2.4373322 7.1959686 0.5877075 11.368927" fill-rule="evenodd"/><path fill="#000000" fill-opacity="0.0" d="m123.9108 238.57767l5.72731 -23.294693" fill-rule="evenodd"/><path stroke="#b7b7b7" stroke-width="3.0" stroke-linejoin="round" stroke-linecap="butt" d="m123.9108 238.57767l5.72731 -23.294693" fill-rule="evenodd"/><path fill="#000000" fill-opacity="0.0" d="m123.9108 238.57767l24.596176 1.6148682" fill-rule="evenodd"/><path stroke="#b7b7b7" stroke-width="3.0" stroke-linejoin="round" stroke-linecap="butt" d="m123.9108 238.57767l24.596176 1.6148682" fill-rule="evenodd"/><path fill="#000000" d="m133.29988 231.93465l0 0c-2.5162659 -3.459549 -3.2088318 -7.2440033 -1.5468903 -8.452805l0 0c0.7980957 -0.58047485 2.043518 -0.47721863 3.4622955 0.2870636c1.4187622 0.76426697 2.8946686 2.1269684 4.1030273 3.7883148l0 0c2.5162659 3.459549 3.2088318 7.2440033 1.5468903 8.452805l0 0c-1.6619415 1.208786 -5.049057 -0.6158142 -7.565323 -4.0753784z" fill-rule="evenodd"/><path stroke="#b7b7b7" stroke-width="3.0" stroke-linejoin="round" stroke-linecap="butt" d="m133.29988 231.93465l0 0c-2.5162659 -3.459549 -3.2088318 -7.2440033 -1.5468903 -8.452805l0 0c0.7980957 -0.58047485 2.043518 -0.47721863 3.4622955 0.2870636c1.4187622 0.76426697 2.8946686 2.1269684 4.1030273 3.7883148l0 0c2.5162659 3.459549 3.2088318 7.2440033 1.5468903 8.452805l0 0c-1.6619415 1.208786 -5.049057 -0.6158142 -7.565323 -4.0753784z" fill-rule="evenodd"/><path fill="#000000" fill-opacity="0.0" d="m137.00195 47.76064l164.7244 85.322845" fill-rule="evenodd"/><path stroke="#ff9900" stroke-width="2.0" stroke-linejoin="round" stroke-linecap="butt" d="m143.08813 50.91312l158.63821 82.170364" fill-rule="evenodd"/><path fill="#ff9900" stroke="#ff9900" stroke-width="2.0" stroke-linecap="butt" d="m143.08812 50.91312l3.0316315 -0.9626808l-6.5216064 -0.84503555l4.452667 4.83934z" fill-rule="evenodd"/><path fill="#000000" fill-opacity="0.0" d="m139.31831 227.55722l240.56694 -139.9685" fill-rule="evenodd"/><path stroke="#cccccc" stroke-width="3.0" stroke-linejoin="round" stroke-linecap="butt" d="m148.20486 222.38676l231.68039 -134.79805" fill-rule="evenodd"/><path fill="#cccccc" stroke="#cccccc" stroke-width="3.0" stroke-linecap="butt" d="m148.20486 222.38676l1.2194214 -4.612732l-6.315216 7.577606l9.708542 -1.7454529z" fill-rule="evenodd"/><path fill="#000000" fill-opacity="0.0" d="m301.71915 133.06561l75.02362 -44.125977" fill-rule="evenodd"/><path stroke="#ff9900" stroke-width="2.0" stroke-linejoin="round" stroke-linecap="butt" d="m301.71915 133.06561l75.02362 -44.125977" fill-rule="evenodd"/><path fill="#000000" fill-opacity="0.0" d="m492.8084 100.75328l99.02362 0l0 64.62993l-99.02362 0z" fill-rule="evenodd"/><path fill="#000000" d="m502.9959 124.84515l16.625 0l0 1.421875l-5.34375 0q1.40625 0.953125 5.046875 1.859375l-0.734375 1.40625q-3.640625 -0.96875 -5.578125 -2.453125l0.890625 -0.8125l-5.109375 0l0.890625 0.890625q0.296875 0.515625 -0.296875 0.359375q-2.234375 1.265625 -5.28125 2.09375l-0.59375 -1.5625q3.5 -0.671875 4.828125 -1.78125l-5.34375 0l0 -1.421875zm0.59375 -11.125l6.90625 0l0 -1.484375l1.484375 0q0.515625 0.140625 0 0.375l0 1.109375l6.90625 0l0 1.40625l-6.90625 0l0 0.96875l4.53125 0l0 7.796875l-10.390625 0l0 -7.796875l4.375 0l0 -0.96875l-6.90625 0l0 -1.40625zm11.4375 7.9375l-7.421875 0l0 1.046875l7.421875 0l0 -1.046875zm0 -1.1875l0 -0.96875l-7.421875 0l0 0.96875l7.421875 0zm0 -2.15625l0 -1.03125l-7.421875 0l0 1.03125l7.421875 0zm11.125 7.421875l8.3125 0l0 -0.890625l-8.3125 0l0 0.890625zm0 -1.78125l8.3125 0l0 -0.8125l-8.3125 0l0 0.8125zm7.28125 2.96875q1.109375 0.59375 4.96875 1.125l-0.671875 1.328125q-3.9375 -0.4375 -5.78125 -1.484375l0.890625 -0.96875l-5.34375 0l0.890625 0.96875q0.296875 0.453125 -0.53125 0.296875q-2.4375 0.828125 -5.046875 1.1875l-0.734375 -1.328125q3.265625 -0.453125 4.59375 -1.125l-2.0 0l0 -6.671875l11.28125 0l0 6.671875l-2.515625 0zm-7.28125 -4.671875l8.3125 0l0 -0.8125l-8.3125 0l0 0.8125zm0.375 -5.34375l2.96875 0l0 -0.734375l-2.96875 0l0 0.734375zm0 1.703125l2.96875 0l0 -0.8125l-2.96875 0l0 0.8125zm4.453125 0l3.046875 0l0 -0.8125l-3.046875 0l0 0.8125zm0 -1.703125l3.046875 0l0 -0.734375l-3.046875 0l0 0.734375zm5.5625 -0.8125l0 -1.640625l-12.546875 0l0 1.640625l-1.484375 0l0 -2.828125l6.828125 0l0 -1.1875l1.640625 0q0.734375 0.15625 0.078125 0.59375l0 0.59375l6.96875 0l0 2.828125l-1.484375 0zm-14.6875 1.703125l0 -0.890625l3.1875 0l0 -1.625l10.46875 0l0 1.625l3.265625 0l0 0.890625l-3.265625 0l0 1.703125l-10.46875 0l0 -0.890625l0 -0.8125l-3.1875 0zm34.953125 8.46875l0 1.625l-11.734375 0l0 1.265625l-1.484375 0l0 -10.3125l-2.734375 0l0 -1.640625l2.734375 0l0 -4.15625l1.421875 0q0.59375 0.078125 0.0625 0.453125l0 3.703125l3.203125 0l0 -4.59375l1.40625 0q0.59375 0.0625 0.078125 0.4375l0 4.15625l3.625 0l0 -4.296875l1.421875 0q0.59375 0.0625 0.0625 0.4375l0 3.859375l2.75 0l0 1.640625l-2.75 0l0 5.5625l-1.484375 0l0 -0.890625l-3.625 0l0 1.265625l-1.484375 0l0 -5.9375l-3.203125 0l0 7.421875l11.734375 0zm-3.421875 -4.15625l0 -3.265625l-3.625 0l0 3.265625l3.625 0zm21.15625 -1.71875l-1.265625 0l0 -0.515625l-3.40625 0q2.296875 2.375 7.125 3.5625l-0.59375 1.640625q-3.046875 -0.828125 -4.671875 -2.015625l0 6.171875l-1.484375 0l0 -6.46875l1.03125 0q-1.328125 -0.734375 -2.890625 -2.515625q-1.109375 1.40625 -2.59375 2.453125l0.953125 0q0.59375 0.0625 0.078125 0.4375l0 2.296875q0 1.640625 -0.890625 2.390625q-1.40625 1.1875 -4.53125 1.546875l-0.65625 -1.484375q2.890625 -0.21875 4.0 -1.109375q0.59375 -0.453125 0.59375 -1.640625l0 -2.078125q-1.921875 1.421875 -5.046875 2.15625l-0.671875 -1.625q5.046875 -1.046875 7.28125 -3.71875l-3.421875 0l0 0.8125l-1.25 0l0 -7.71875l12.3125 0l0 7.421875zm-1.265625 -4.515625l0 -1.71875l-4.296875 0l0 1.71875l4.296875 0zm-5.5625 0l0 -1.71875l-4.234375 0l0 1.71875l4.234375 0zm0 1.1875l-4.234375 0l0 1.625l4.234375 0l0 -1.625zm5.5625 1.625l0 -1.625l-4.296875 0l0 1.625l4.296875 0z" fill-rule="nonzero"/><path fill="#000000" d="m502.6209 140.57327q2.53125 -2.296875 3.5625 -6.015625l1.1875 0.296875q0.59375 0.15625 0.078125 0.453125l-0.140625 0.21875q1.1875 0.671875 3.1875 2.453125l-0.890625 1.40625q-1.640625 -1.78125 -2.75 -2.671875q-0.515625 1.484375 -1.328125 2.59375l3.40625 0l0 1.1875l-1.5625 0l0 1.9375l2.75 0l0 1.1875l-2.75 0l0 5.1875l2.96875 -0.8125l0 1.484375q-3.484375 1.109375 -6.375 1.859375q-0.15625 0.8125 -0.453125 0.078125l-0.59375 -1.5625l3.203125 -0.75l0 -5.484375l-2.75 0l0 -1.1875l2.75 0l0 -1.9375l-1.34375 0q-0.375 0.59375 -1.328125 1.34375l-0.828125 -1.265625zm12.765625 -4.015625l3.5625 0l0 1.1875l-1.484375 0l-0.65625 1.859375l3.109375 0l0 1.1875l-10.015625 0l0 -1.1875l2.59375 0l-0.59375 -1.859375l-1.328125 0l0 -1.1875l3.328125 0l0 -1.921875l1.421875 0q0.59375 0.078125 0.0625 0.4375l0 1.484375zm-7.34375 11.21875q0.375 -2.15625 0.453125 -3.5625l1.1875 0.21875q0.8125 0.140625 0.0625 0.4375q0 1.046875 -0.359375 3.203125l-1.34375 -0.296875zm9.421875 -1.859375l0 -1.109375l-5.1875 0l0 1.109375l5.1875 0zm-2.140625 1.1875l-1.34375 0q0.296875 3.71875 -4.53125 4.90625l-0.4375 -1.640625q3.5625 -0.453125 3.40625 -3.265625l-1.40625 0l0 -5.421875l7.71875 0l0 5.421875l-1.921875 0l0 2.515625q0 0.53125 0.65625 0.53125l0.375 0q0.59375 0 0.671875 -0.453125l0.21875 -1.1875l1.34375 0.453125l-0.296875 1.328125q-0.296875 1.265625 -1.484375 1.265625l-1.5625 0q-1.40625 0 -1.40625 -1.40625l0 -3.046875zm-1.34375 -7.5l1.34375 0l0.515625 -1.859375l-2.453125 0l0.59375 1.859375zm-1.703125 4.3125l5.1875 0l0 -1.046875l-5.1875 0l0 1.046875zm-7.5 0.59375q0.59375 1.328125 0.890625 3.703125l-1.484375 0.375q-0.21875 -2.15625 -0.8125 -3.640625l1.40625 -0.4375zm32.65625 6.671875l-1.484375 0l0 -0.734375l-11.359375 0l0 1.03125l-1.484375 0l0 -11.71875l6.09375 0l0.59375 -2.453125l-7.578125 0l0 -1.40625l16.109375 0l0 1.40625l-6.828125 0l-0.8125 2.453125l6.75 0l0 11.421875zm-10.234375 -2.15625l0 -7.859375l-2.609375 0l0 7.859375l2.609375 0zm4.671875 0l0 -1.84375l-3.1875 0l0 1.84375l3.1875 0zm0 -3.03125l0 -1.71875l-3.1875 0l0 1.71875l3.1875 0zm0 -4.828125l-3.1875 0l0 1.921875l3.1875 0l0 -1.921875zm4.078125 0l-2.59375 0l0 7.859375l2.59375 0l0 -7.859375zm20.859375 7.5l0 1.625l-11.734375 0l0 1.265625l-1.484375 0l0 -10.3125l-2.734375 0l0 -1.640625l2.734375 0l0 -4.15625l1.421875 0q0.59375 0.078125 0.0625 0.453125l0 3.703125l3.203125 0l0 -4.59375l1.40625 0q0.59375 0.0625 0.078125 0.4375l0 4.15625l3.625 0l0 -4.296875l1.421875 0q0.59375 0.0625 0.0625 0.4375l0 3.859375l2.75 0l0 1.640625l-2.75 0l0 5.5625l-1.484375 0l0 -0.890625l-3.625 0l0 1.265625l-1.484375 0l0 -5.9375l-3.203125 0l0 7.421875l11.734375 0zm-3.421875 -4.15625l0 -3.265625l-3.625 0l0 3.265625l3.625 0zm21.15625 -1.71875l-1.265625 0l0 -0.515625l-3.40625 0q2.296875 2.375 7.125 3.5625l-0.59375 1.640625q-3.046875 -0.828125 -4.671875 -2.015625l0 6.171875l-1.484375 0l0 -6.46875l1.03125 0q-1.328125 -0.734375 -2.890625 -2.515625q-1.109375 1.40625 -2.59375 2.453125l0.953125 0q0.59375 0.0625 0.078125 0.4375l0 2.296875q0 1.640625 -0.890625 2.390625q-1.40625 1.1875 -4.53125 1.546875l-0.65625 -1.484375q2.890625 -0.21875 4.0 -1.109375q0.59375 -0.453125 0.59375 -1.640625l0 -2.078125q-1.921875 1.421875 -5.046875 2.15625l-0.671875 -1.625q5.046875 -1.046875 7.28125 -3.71875l-3.421875 0l0 0.8125l-1.25 0l0 -7.71875l12.3125 0l0 7.421875zm-1.265625 -4.515625l0 -1.71875l-4.296875 0l0 1.71875l4.296875 0zm-5.5625 0l0 -1.71875l-4.234375 0l0 1.71875l4.234375 0zm0 1.1875l-4.234375 0l0 1.625l4.234375 0l0 -1.625zm5.5625 1.625l0 -1.625l-4.296875 0l0 1.625l4.296875 0z" fill-rule="nonzero"/><path fill="#eeeeee" d="m375.9895 77.37008l0 0c0 -15.385696 12.472565 -27.858269 27.858276 -27.858269l0 0c7.3884583 0 14.474335 2.9350586 19.698761 8.1595c5.2244263 5.2244377 8.159485 12.310295 8.159485 19.698769l0 0c0 15.385696 -12.472565 27.858269 -27.858246 27.858269l0 0c-15.385712 0 -27.858276 -12.472572 -27.858276 -27.858269z" fill-rule="evenodd"/><path stroke="#1155cc" stroke-width="2.0" stroke-linejoin="round" stroke-linecap="butt" d="m375.9895 77.37008l0 0c0 -15.385696 12.472565 -27.858269 27.858276 -27.858269l0 0c7.3884583 0 14.474335 2.9350586 19.698761 8.1595c5.2244263 5.2244377 8.159485 12.310295 8.159485 19.698769l0 0c0 15.385696 -12.472565 27.858269 -27.858246 27.858269l0 0c-15.385712 0 -27.858276 -12.472572 -27.858276 -27.858269z" fill-rule="evenodd"/></g></svg>