<svg version="1.1" viewBox="0.0 0.0 460 270" fill="none" stroke="none" stroke-linecap="square" stroke-miterlimit="10" xmlns:xlink="http://www.w3.org/1999/xlink" xmlns="http://www.w3.org/2000/svg"><clipPath id="gf08903e0e4_0_36.0"><path d="m0 0l960.0 0l0 540.0l-960.0 0l0 -540.0z" clip-rule="nonzero"/></clipPath><g clip-path="url(#gf08903e0e4_0_36.0)"><path fill="#ffffff" d="m0 0l960.0 0l0 540.0l-960.0 0z" fill-rule="evenodd"/><path fill="#eeeeee" d="m132.29134 209.63255l280.47247 0l0 30.960617l-280.47247 0z" fill-rule="evenodd"/><path stroke="#595959" stroke-width="1.0" stroke-linejoin="round" stroke-linecap="butt" d="m132.29134 209.63255l280.47247 0l0 30.960617l-280.47247 0z" fill-rule="evenodd"/><path fill="#000000" fill-opacity="0.0" d="m400.6824 219.45407l-156.87346 -133.00787l-232.1974 0l156.87349 133.00787z" fill-rule="evenodd"/><path stroke="#d9d9d9" stroke-width="1.0" stroke-linejoin="round" stroke-linecap="butt" d="m400.6824 219.45407l-156.87346 -133.00787l-232.1974 0l156.87349 133.00787z" fill-rule="evenodd"/><path fill="#eeeeee" d="m180.24934 140.87665l0 0c0 -23.074203 18.705338 -41.779533 41.779526 -41.779533l0 0c11.080627 0 21.707413 4.4017563 29.542587 12.236938c7.83519 7.835182 12.236954 18.461967 12.236954 29.542595l0 0c0 23.074188 -18.705338 41.779526 -41.77954 41.779526l0 0c-23.074188 0 -41.779526 -18.705338 -41.779526 -41.779526z" fill-rule="evenodd"/><path stroke="#9e9e9e" stroke-width="2.0" stroke-linejoin="round" stroke-linecap="butt" d="m180.24934 140.87665l0 0c0 -23.074203 18.705338 -41.779533 41.779526 -41.779533l0 0c11.080627 0 21.707413 4.4017563 29.542587 12.236938c7.83519 7.835182 12.236954 18.461967 12.236954 29.542595l0 0c0 23.074188 -18.705338 41.779526 -41.77954 41.779526l0 0c-23.074188 0 -41.779526 -18.705338 -41.779526 -41.779526z" fill-rule="evenodd"/><path fill="#000000" fill-opacity="0.0" d="m86.07874 112.73753l69.41732 56.283463" fill-rule="evenodd"/><path stroke="#ffff00" stroke-width="3.0" stroke-linejoin="round" stroke-linecap="butt" d="m86.07874 112.73753l61.431236 49.808365" fill-rule="evenodd"/><path fill="#ffff00" stroke="#ffff00" stroke-width="3.0" stroke-linecap="butt" d="m147.51 162.5459l-4.7453766 0.4958191l9.324799 3.2171783l-5.0752563 -8.458374z" fill-rule="evenodd"/><path fill="#000000" fill-opacity="0.0" d="m192.48628 170.41922l47.307083 39.2126" fill-rule="evenodd"/><path stroke="#000000" stroke-width="2.0" stroke-linejoin="round" stroke-linecap="butt" stroke-dasharray="2.0,6.0" d="m192.48628 170.41922l47.307083 39.2126" fill-rule="evenodd"/><path fill="#000000" fill-opacity="0.0" d="m251.0505 110.603676l123.02362 99.02363" fill-rule="evenodd"/><path stroke="#000000" stroke-width="2.0" stroke-linejoin="round" stroke-linecap="butt" stroke-dasharray="2.0,6.0" d="m251.0505 110.603676l123.02362 99.02363" fill-rule="evenodd"/><path fill="#000000" fill-opacity="0.0" d="m237.89955 209.63255l134.61418 0" fill-rule="evenodd"/><path stroke="#000000" stroke-width="2.0" stroke-linejoin="round" stroke-linecap="butt" d="m237.89955 209.63255l134.61418 0" fill-rule="evenodd"/><path fill="#eeeeee" d="m252.09465 111.86667l0 0c10.372818 10.750336 14.216446 26.220963 10.080948 40.57585c-4.135498 14.354874 -15.620773 25.409393 -30.123169 28.993423c-14.502411 3.5840302 -29.814896 -0.84788513 -40.161057 -11.623856l30.137497 -28.93544z" fill-rule="evenodd"/><path stroke="#000000" stroke-width="3.0" stroke-linejoin="round" stroke-linecap="butt" d="m252.09465 111.86667l0 0c10.372818 10.750336 14.216446 26.220963 10.080948 40.57585c-4.135498 14.354874 -15.620773 25.409393 -30.123169 28.993423c-14.502411 3.5840302 -29.814896 -0.84788513 -40.161057 -11.623856l30.137497 -28.93544z" fill-rule="evenodd"/><path fill="#eeeeee" d="m180.24934 140.87665l0 0c0 -23.074203 18.705338 -41.779533 41.779526 -41.779533l0 0c11.080627 0 21.707413 4.4017563 29.542587 12.236938c7.83519 7.835182 12.236954 18.461967 12.236954 29.542595l0 0c0 23.074188 -18.705338 41.779526 -41.77954 41.779526l0 0c-23.074188 0 -41.779526 -18.705338 -41.779526 -41.779526z" fill-rule="evenodd"/><path fill="#000000" fill-opacity="0.0" d="m14.6961775 87.42257l227.9055 -0.97637177" fill-rule="evenodd"/><path stroke="#b7b7b7" stroke-width="3.0" stroke-linejoin="round" stroke-linecap="butt" d="m14.6961775 87.42257l227.9055 -0.97637177" fill-rule="evenodd"/><path fill="#000000" fill-opacity="0.0" d="m198.78343 83.35164l154.77165 127.08661" fill-rule="evenodd"/><path stroke="#999999" stroke-width="2.0" stroke-linejoin="round" stroke-linecap="butt" d="m204.64157 88.161896l148.91351 122.27637" fill-rule="evenodd"/><path fill="#999999" stroke="#999999" stroke-width="2.0" stroke-linecap="butt" d="m199.55626 83.98624c1.1530762 -1.4042664 3.2262115 -1.6078949 4.630478 -0.45481873c1.4042816 1.1530762 1.6079102 3.2262115 0.45483398 4.630478c-1.1530762 1.4042664 -3.2262115 1.6078949 -4.630478 0.45481873c-1.4042664 -1.1530762 -1.6079102 -3.2262115 -0.45483398 -4.630478z" fill-rule="nonzero"/><path fill="#000000" fill-opacity="0.0" d="m395.1067 45.17199l0 0c-4.197937 1.8340645 -8.416382 1.6092262 -11.41214 -0.6082573c-2.995758 -2.2174835 -4.4273987 -6.1748657 -3.8729858 -10.70591l13.492126 -2.1775856z" fill-rule="evenodd"/><path fill="#000000" fill-opacity="0.0" d="m395.1067 45.17199l0 0c-4.197937 1.8340645 -8.416382 1.6092262 -11.41214 -0.6082573c-2.995758 -2.2174835 -4.4273987 -6.1748657 -3.8729858 -10.70591" fill-rule="evenodd"/><path stroke="#0097a7" stroke-width="3.0" stroke-linejoin="round" stroke-linecap="butt" d="m395.1067 45.17199l0 0c-4.197937 1.8340645 -8.416382 1.6092262 -11.41214 -0.6082573c-2.995758 -2.2174835 -4.4273987 -6.1748657 -3.8729858 -10.70591" fill-rule="evenodd"/><path fill="#000000" fill-opacity="0.0" d="m394.6884 30.2404l1.3040771 23.95466" fill-rule="evenodd"/><path stroke="#0097a7" stroke-width="3.0" stroke-linejoin="round" stroke-linecap="butt" d="m394.6884 30.2404l1.3040771 23.95466" fill-rule="evenodd"/><path fill="#000000" fill-opacity="0.0" d="m394.6884 30.2404l-24.002258 5.6175632" fill-rule="evenodd"/><path stroke="#0097a7" stroke-width="3.0" stroke-linejoin="round" stroke-linecap="butt" d="m394.6884 30.2404l-24.002258 5.6175632" fill-rule="evenodd"/><path fill="#000000" d="m387.64 39.33016l0 0c3.414856 2.5771294 5.1795044 5.9961624 3.9414978 7.636627l0 0c-0.59454346 0.78778076 -1.8161316 1.0516663 -3.3960876 0.73360825c-1.579956 -0.3180542 -3.3888245 -1.1920013 -5.028717 -2.4295807l0 0c-3.4148254 -2.5771255 -5.1795044 -5.9961586 -3.9414673 -7.636627l0 0c1.2380371 -1.6404648 5.0099487 -0.8811531 8.424774 1.6959724z" fill-rule="evenodd"/><path stroke="#0097a7" stroke-width="3.0" stroke-linejoin="round" stroke-linecap="butt" d="m387.64 39.33016l0 0c3.414856 2.5771294 5.1795044 5.9961624 3.9414978 7.636627l0 0c-0.59454346 0.78778076 -1.8161316 1.0516663 -3.3960876 0.73360825c-1.579956 -0.3180542 -3.3888245 -1.1920013 -5.028717 -2.4295807l0 0c-3.4148254 -2.5771255 -5.1795044 -5.9961586 -3.9414673 -7.636627l0 0c1.2380371 -1.6404648 5.0099487 -0.8811531 8.424774 1.6959724z" fill-rule="evenodd"/><path fill="#000000" fill-opacity="0.0" d="m213.53857 99.80887l168.06299 -54.551178" fill-rule="evenodd"/><path stroke="#ff9900" stroke-width="2.0" stroke-linejoin="round" stroke-linecap="butt" d="m220.74828 97.46869l149.4395 -48.506226" fill-rule="evenodd"/><path fill="#ff9900" stroke="#ff9900" stroke-width="2.0" stroke-linecap="butt" d="m214.48972 99.50014c-0.56095886 -1.7282486 0.38529968 -3.5840378 2.113556 -4.1450043c1.7282562 -0.5609741 3.5840454 0.38529968 4.1450043 2.113556c0.5609741 1.7282562 -0.38529968 3.5840378 -2.113556 4.1450043c-1.728241 0.5609741 -3.5840302 -0.38529968 -4.1450043 -2.113556z" fill-rule="nonzero"/><path fill="#ff9900" stroke="#ff9900" stroke-width="2.0" stroke-linecap="butt" d="m371.20767 52.104553l7.6129456 -5.944195l-9.65271 -0.33998108z" fill-rule="evenodd"/><path fill="#000000" fill-opacity="0.0" d="m352.0071 213.52278l31.149597 -168.25197" fill-rule="evenodd"/><path stroke="#ff00ff" stroke-width="2.0" stroke-linejoin="round" stroke-linecap="butt" d="m353.38696 206.06943l27.585236 -148.99913" fill-rule="evenodd"/><path fill="#ff00ff" stroke="#ff00ff" stroke-width="2.0" stroke-linecap="butt" d="m352.18915 212.53949c-1.7866516 -0.33078003 -2.9668884 -2.047287 -2.6361084 -3.8339539c0.33078003 -1.7866516 2.0472717 -2.9668732 3.8339539 -2.6360931c1.7866516 0.33076477 2.966858 2.047287 2.636078 3.8339386c-0.3307495 1.7866669 -2.0472717 2.9668884 -3.8339233 2.6361084z" fill-rule="nonzero"/><path fill="#ff00ff" stroke="#ff00ff" stroke-width="2.0" stroke-linecap="butt" d="m384.22046 57.671673l-1.5960083 -9.525909l-4.900543 8.323162z" fill-rule="evenodd"/><path fill="#000000" fill-opacity="0.0" d="m204.70406 93.61143l33.102356 0l0 33.921257l-33.102356 0z" fill-rule="evenodd"/><path fill="#000000" d="m213.68843 114.131424l3.296875 -8.59375l1.21875 0l3.515625 8.59375l-1.28125 0l-1.015625 -2.609375l-3.578125 0l-0.953125 2.609375l-1.203125 0zm2.484375 -3.53125l2.90625 0l-0.890625 -2.375q-0.421875 -1.078125 -0.609375 -1.78125q-0.171875 0.828125 -0.46875 1.640625l-0.9375 2.515625z" fill-rule="nonzero"/><path fill="#000000" fill-opacity="0.0" d="m187.43724 55.967743l33.10237 0l0 33.921257l-33.10237 0z" fill-rule="evenodd"/><path fill="#000000" d="m197.31224 76.48774l0 -8.59375l3.234375 0q0.984375 0 1.578125 0.265625q0.59375 0.265625 0.921875 0.8125q0.34375 0.53125 0.34375 1.125q0 0.546875 -0.296875 1.03125q-0.296875 0.484375 -0.90625 0.78125q0.78125 0.234375 1.1875 0.796875q0.421875 0.546875 0.421875 1.296875q0 0.59375 -0.25 1.125q-0.25 0.515625 -0.625 0.796875q-0.375 0.28125 -0.953125 0.421875q-0.5625 0.140625 -1.375 0.140625l-3.28125 0zm1.140625 -4.984375l1.859375 0q0.75 0 1.078125 -0.09375q0.4375 -0.125 0.65625 -0.421875q0.21875 -0.3125 0.21875 -0.765625q0 -0.421875 -0.203125 -0.75q-0.203125 -0.328125 -0.59375 -0.4375q-0.375 -0.125 -1.296875 -0.125l-1.71875 0l0 2.59375zm0 3.96875l2.140625 0q0.546875 0 0.765625 -0.046875q0.40625 -0.0625 0.65625 -0.21875q0.265625 -0.171875 0.4375 -0.484375q0.171875 -0.3125 0.171875 -0.71875q0 -0.484375 -0.25 -0.84375q-0.234375 -0.359375 -0.671875 -0.5q-0.4375 -0.140625 -1.265625 -0.140625l-1.984375 0l0 2.953125z" fill-rule="nonzero"/><path fill="#000000" fill-opacity="0.0" d="m338.6539 205.54198l33.102386 0l0 33.92125l-33.102386 0z" fill-rule="evenodd"/><path fill="#000000" d="m354.7164 223.04634l1.125 0.296875q-0.359375 1.390625 -1.28125 2.125q-0.921875 0.734375 -2.265625 0.734375q-1.390625 0 -2.265625 -0.5625q-0.875 -0.5625 -1.328125 -1.625q-0.453125 -1.078125 -0.453125 -2.3125q0 -1.34375 0.515625 -2.34375q0.515625 -1.0 1.453125 -1.515625q0.953125 -0.515625 2.09375 -0.515625q1.28125 0 2.15625 0.65625q0.890625 0.65625 1.234375 1.84375l-1.125 0.265625q-0.296875 -0.9375 -0.875 -1.359375q-0.5625 -0.4375 -1.421875 -0.4375q-0.984375 0 -1.65625 0.484375q-0.65625 0.46875 -0.9375 1.265625q-0.265625 0.796875 -0.265625 1.65625q0 1.09375 0.3125 1.90625q0.328125 0.8125 1.0 1.21875q0.671875 0.40625 1.46875 0.40625q0.953125 0 1.609375 -0.546875q0.671875 -0.546875 0.90625 -1.640625z" fill-rule="nonzero"/></g></svg>