<svg version="1.1" viewBox="0.0 0.0 640 270" fill="none" stroke="none" stroke-linecap="square" stroke-miterlimit="10" xmlns:xlink="http://www.w3.org/1999/xlink" xmlns="http://www.w3.org/2000/svg"><clipPath id="gf07d312108_0_0.0"><path d="m0 0l960.0 0l0 540.0l-960.0 0l0 -540.0z" clip-rule="nonzero"/></clipPath><g clip-path="url(#gf07d312108_0_0.0)"><path fill="#ffffff" d="m0 0l960.0 0l0 540.0l-960.0 0z" fill-rule="evenodd"/><path fill="#000000" fill-opacity="0.0" d="m41.002625 133.06824l554.7087 0" fill-rule="evenodd"/><path stroke="#595959" stroke-width="1.0" stroke-linejoin="round" stroke-linecap="butt" d="m41.002625 133.06824l554.7087 0" fill-rule="evenodd"/><path fill="#eeeeee" d="m375.9895 188.7664l0 0c0 -15.385696 12.472565 -27.858261 27.858276 -27.858261l0 0c7.3884583 0 14.474335 2.9350586 19.698761 8.159485c5.2244263 5.2244415 8.159485 12.310303 8.159485 19.698776l0 0c0 15.385696 -12.472565 27.858261 -27.858246 27.858261l0 0c-15.385712 0 -27.858276 -12.472565 -27.858276 -27.858261z" fill-rule="evenodd"/><path stroke="#6d9eeb" stroke-width="2.0" stroke-linejoin="round" stroke-linecap="butt" d="m375.9895 188.7664l0 0c0 -15.385696 12.472565 -27.858261 27.858276 -27.858261l0 0c7.3884583 0 14.474335 2.9350586 19.698761 8.159485c5.2244263 5.2244415 8.159485 12.310303 8.159485 19.698776l0 0c0 15.385696 -12.472565 27.858261 -27.858246 27.858261l0 0c-15.385712 0 -27.858276 -12.472565 -27.858276 -27.858261z" fill-rule="evenodd"/><path fill="#000000" fill-opacity="0.0" d="m492.8084 100.75328l99.02362 0l0 64.62993l-99.02362 0z" fill-rule="evenodd"/><path fill="#000000" d="m502.9959 124.84515l16.625 0l0 1.421875l-5.34375 0q1.40625 0.953125 5.046875 1.859375l-0.734375 1.40625q-3.640625 -0.96875 -5.578125 -2.453125l0.890625 -0.8125l-5.109375 0l0.890625 0.890625q0.296875 0.515625 -0.296875 0.359375q-2.234375 1.265625 -5.28125 2.09375l-0.59375 -1.5625q3.5 -0.671875 4.828125 -1.78125l-5.34375 0l0 -1.421875zm0.59375 -11.125l6.90625 0l0 -1.484375l1.484375 0q0.515625 0.140625 0 0.375l0 1.109375l6.90625 0l0 1.40625l-6.90625 0l0 0.96875l4.53125 0l0 7.796875l-10.390625 0l0 -7.796875l4.375 0l0 -0.96875l-6.90625 0l0 -1.40625zm11.4375 7.9375l-7.421875 0l0 1.046875l7.421875 0l0 -1.046875zm0 -1.1875l0 -0.96875l-7.421875 0l0 0.96875l7.421875 0zm0 -2.15625l0 -1.03125l-7.421875 0l0 1.03125l7.421875 0zm11.125 7.421875l8.3125 0l0 -0.890625l-8.3125 0l0 0.890625zm0 -1.78125l8.3125 0l0 -0.8125l-8.3125 0l0 0.8125zm7.28125 2.96875q1.109375 0.59375 4.96875 1.125l-0.671875 1.328125q-3.9375 -0.4375 -5.78125 -1.484375l0.890625 -0.96875l-5.34375 0l0.890625 0.96875q0.296875 0.453125 -0.53125 0.296875q-2.4375 0.828125 -5.046875 1.1875l-0.734375 -1.328125q3.265625 -0.453125 4.59375 -1.125l-2.0 0l0 -6.671875l11.28125 0l0 6.671875l-2.515625 0zm-7.28125 -4.671875l8.3125 0l0 -0.8125l-8.3125 0l0 0.8125zm0.375 -5.34375l2.96875 0l0 -0.734375l-2.96875 0l0 0.734375zm0 1.703125l2.96875 0l0 -0.8125l-2.96875 0l0 0.8125zm4.453125 0l3.046875 0l0 -0.8125l-3.046875 0l0 0.8125zm0 -1.703125l3.046875 0l0 -0.734375l-3.046875 0l0 0.734375zm5.5625 -0.8125l0 -1.640625l-12.546875 0l0 1.640625l-1.484375 0l0 -2.828125l6.828125 0l0 -1.1875l1.640625 0q0.734375 0.15625 0.078125 0.59375l0 0.59375l6.96875 0l0 2.828125l-1.484375 0zm-14.6875 1.703125l0 -0.890625l3.1875 0l0 -1.625l10.46875 0l0 1.625l3.265625 0l0 0.890625l-3.265625 0l0 1.703125l-10.46875 0l0 -0.890625l0 -0.8125l-3.1875 0zm34.953125 8.46875l0 1.625l-11.734375 0l0 1.265625l-1.484375 0l0 -10.3125l-2.734375 0l0 -1.640625l2.734375 0l0 -4.15625l1.421875 0q0.59375 0.078125 0.0625 0.453125l0 3.703125l3.203125 0l0 -4.59375l1.40625 0q0.59375 0.0625 0.078125 0.4375l0 4.15625l3.625 0l0 -4.296875l1.421875 0q0.59375 0.0625 0.0625 0.4375l0 3.859375l2.75 0l0 1.640625l-2.75 0l0 5.5625l-1.484375 0l0 -0.890625l-3.625 0l0 1.265625l-1.484375 0l0 -5.9375l-3.203125 0l0 7.421875l11.734375 0zm-3.421875 -4.15625l0 -3.265625l-3.625 0l0 3.265625l3.625 0zm21.15625 -1.71875l-1.265625 0l0 -0.515625l-3.40625 0q2.296875 2.375 7.125 3.5625l-0.59375 1.640625q-3.046875 -0.828125 -4.671875 -2.015625l0 6.171875l-1.484375 0l0 -6.46875l1.03125 0q-1.328125 -0.734375 -2.890625 -2.515625q-1.109375 1.40625 -2.59375 2.453125l0.953125 0q0.59375 0.0625 0.078125 0.4375l0 2.296875q0 1.640625 -0.890625 2.390625q-1.40625 1.1875 -4.53125 1.546875l-0.65625 -1.484375q2.890625 -0.21875 4.0 -1.109375q0.59375 -0.453125 0.59375 -1.640625l0 -2.078125q-1.921875 1.421875 -5.046875 2.15625l-0.671875 -1.625q5.046875 -1.046875 7.28125 -3.71875l-3.421875 0l0 0.8125l-1.25 0l0 -7.71875l12.3125 0l0 7.421875zm-1.265625 -4.515625l0 -1.71875l-4.296875 0l0 1.71875l4.296875 0zm-5.5625 0l0 -1.71875l-4.234375 0l0 1.71875l4.234375 0zm0 1.1875l-4.234375 0l0 1.625l4.234375 0l0 -1.625zm5.5625 1.625l0 -1.625l-4.296875 0l0 1.625l4.296875 0z" fill-rule="nonzero"/><path fill="#000000" d="m502.6209 140.57327q2.53125 -2.296875 3.5625 -6.015625l1.1875 0.296875q0.59375 0.15625 0.078125 0.453125l-0.140625 0.21875q1.1875 0.671875 3.1875 2.453125l-0.890625 1.40625q-1.640625 -1.78125 -2.75 -2.671875q-0.515625 1.484375 -1.328125 2.59375l3.40625 0l0 1.1875l-1.5625 0l0 1.9375l2.75 0l0 1.1875l-2.75 0l0 5.1875l2.96875 -0.8125l0 1.484375q-3.484375 1.109375 -6.375 1.859375q-0.15625 0.8125 -0.453125 0.078125l-0.59375 -1.5625l3.203125 -0.75l0 -5.484375l-2.75 0l0 -1.1875l2.75 0l0 -1.9375l-1.34375 0q-0.375 0.59375 -1.328125 1.34375l-0.828125 -1.265625zm12.765625 -4.015625l3.5625 0l0 1.1875l-1.484375 0l-0.65625 1.859375l3.109375 0l0 1.1875l-10.015625 0l0 -1.1875l2.59375 0l-0.59375 -1.859375l-1.328125 0l0 -1.1875l3.328125 0l0 -1.921875l1.421875 0q0.59375 0.078125 0.0625 0.4375l0 1.484375zm-7.34375 11.21875q0.375 -2.15625 0.453125 -3.5625l1.1875 0.21875q0.8125 0.140625 0.0625 0.4375q0 1.046875 -0.359375 3.203125l-1.34375 -0.296875zm9.421875 -1.859375l0 -1.109375l-5.1875 0l0 1.109375l5.1875 0zm-2.140625 1.1875l-1.34375 0q0.296875 3.71875 -4.53125 4.90625l-0.4375 -1.640625q3.5625 -0.453125 3.40625 -3.265625l-1.40625 0l0 -5.421875l7.71875 0l0 5.421875l-1.921875 0l0 2.515625q0 0.53125 0.65625 0.53125l0.375 0q0.59375 0 0.671875 -0.453125l0.21875 -1.1875l1.34375 0.453125l-0.296875 1.328125q-0.296875 1.265625 -1.484375 1.265625l-1.5625 0q-1.40625 0 -1.40625 -1.40625l0 -3.046875zm-1.34375 -7.5l1.34375 0l0.515625 -1.859375l-2.453125 0l0.59375 1.859375zm-1.703125 4.3125l5.1875 0l0 -1.046875l-5.1875 0l0 1.046875zm-7.5 0.59375q0.59375 1.328125 0.890625 3.703125l-1.484375 0.375q-0.21875 -2.15625 -0.8125 -3.640625l1.40625 -0.4375zm32.65625 6.671875l-1.484375 0l0 -0.734375l-11.359375 0l0 1.03125l-1.484375 0l0 -11.71875l6.09375 0l0.59375 -2.453125l-7.578125 0l0 -1.40625l16.109375 0l0 1.40625l-6.828125 0l-0.8125 2.453125l6.75 0l0 11.421875zm-10.234375 -2.15625l0 -7.859375l-2.609375 0l0 7.859375l2.609375 0zm4.671875 0l0 -1.84375l-3.1875 0l0 1.84375l3.1875 0zm0 -3.03125l0 -1.71875l-3.1875 0l0 1.71875l3.1875 0zm0 -4.828125l-3.1875 0l0 1.921875l3.1875 0l0 -1.921875zm4.078125 0l-2.59375 0l0 7.859375l2.59375 0l0 -7.859375zm20.859375 7.5l0 1.625l-11.734375 0l0 1.265625l-1.484375 0l0 -10.3125l-2.734375 0l0 -1.640625l2.734375 0l0 -4.15625l1.421875 0q0.59375 0.078125 0.0625 0.453125l0 3.703125l3.203125 0l0 -4.59375l1.40625 0q0.59375 0.0625 0.078125 0.4375l0 4.15625l3.625 0l0 -4.296875l1.421875 0q0.59375 0.0625 0.0625 0.4375l0 3.859375l2.75 0l0 1.640625l-2.75 0l0 5.5625l-1.484375 0l0 -0.890625l-3.625 0l0 1.265625l-1.484375 0l0 -5.9375l-3.203125 0l0 7.421875l11.734375 0zm-3.421875 -4.15625l0 -3.265625l-3.625 0l0 3.265625l3.625 0zm21.15625 -1.71875l-1.265625 0l0 -0.515625l-3.40625 0q2.296875 2.375 7.125 3.5625l-0.59375 1.640625q-3.046875 -0.828125 -4.671875 -2.015625l0 6.171875l-1.484375 0l0 -6.46875l1.03125 0q-1.328125 -0.734375 -2.890625 -2.515625q-1.109375 1.40625 -2.59375 2.453125l0.953125 0q0.59375 0.0625 0.078125 0.4375l0 2.296875q0 1.640625 -0.890625 2.390625q-1.40625 1.1875 -4.53125 1.546875l-0.65625 -1.484375q2.890625 -0.21875 4.0 -1.109375q0.59375 -0.453125 0.59375 -1.640625l0 -2.078125q-1.921875 1.421875 -5.046875 2.15625l-0.671875 -1.625q5.046875 -1.046875 7.28125 -3.71875l-3.421875 0l0 0.8125l-1.25 0l0 -7.71875l12.3125 0l0 7.421875zm-1.265625 -4.515625l0 -1.71875l-4.296875 0l0 1.71875l4.296875 0zm-5.5625 0l0 -1.71875l-4.234375 0l0 1.71875l4.234375 0zm0 1.1875l-4.234375 0l0 1.625l4.234375 0l0 -1.625zm5.5625 1.625l0 -1.625l-4.296875 0l0 1.625l4.296875 0z" fill-rule="nonzero"/><path fill="#eeeeee" d="m375.9895 77.37008l0 0c0 -15.385696 12.472565 -27.858269 27.858276 -27.858269l0 0c7.3884583 0 14.474335 2.9350586 19.698761 8.1595c5.2244263 5.2244377 8.159485 12.310295 8.159485 19.698769l0 0c0 15.385696 -12.472565 27.858269 -27.858246 27.858269l0 0c-15.385712 0 -27.858276 -12.472572 -27.858276 -27.858269z" fill-rule="evenodd"/><path stroke="#1155cc" stroke-width="2.0" stroke-linejoin="round" stroke-linecap="butt" d="m375.9895 77.37008l0 0c0 -15.385696 12.472565 -27.858269 27.858276 -27.858269l0 0c7.3884583 0 14.474335 2.9350586 19.698761 8.1595c5.2244263 5.2244377 8.159485 12.310295 8.159485 19.698769l0 0c0 15.385696 -12.472565 27.858269 -27.858246 27.858269l0 0c-15.385712 0 -27.858276 -12.472572 -27.858276 -27.858269z" fill-rule="evenodd"/><path fill="#eeeeee" d="m132.44725 215.98422l13.133865 22.771652l-7.3700867 4.2519684l-13.133858 -22.771652z" fill-rule="evenodd"/><path stroke="#9e9e9e" stroke-width="2.0" stroke-linejoin="round" stroke-linecap="butt" d="m132.44725 215.98422l13.133865 22.771652l-7.3700867 4.2519684l-13.133858 -22.771652z" fill-rule="evenodd"/><path fill="#000000" fill-opacity="0.0" d="m338.08505 9.2913065l-209.32285 208.8189" fill-rule="evenodd"/><path stroke="#9e9e9e" stroke-width="1.0" stroke-linejoin="round" stroke-linecap="butt" d="m338.08505 9.2913065l-209.32285 208.8189" fill-rule="evenodd"/><path fill="#000000" fill-opacity="0.0" d="m141.89607 240.88185l350.89764 -107.81102" fill-rule="evenodd"/><path stroke="#9e9e9e" stroke-width="1.0" stroke-linejoin="round" stroke-linecap="butt" d="m141.89607 240.88185l350.89764 -107.81102" fill-rule="evenodd"/><path fill="#eeeeee" d="m128.26643 58.13796l13.133865 -22.519688l-7.3700867 -4.2204723l-13.13385 22.519686z" fill-rule="evenodd"/><path stroke="#0097a7" stroke-width="2.0" stroke-linejoin="round" stroke-linecap="butt" d="m128.26643 58.13796l13.133865 -22.519688l-7.3700867 -4.2204723l-13.13385 22.519686z" fill-rule="evenodd"/><path fill="#000000" fill-opacity="0.0" d="m338.84912 242.13795l-214.26773 -186.11023" fill-rule="evenodd"/><path stroke="#0097a7" stroke-width="1.0" stroke-linejoin="round" stroke-linecap="butt" d="m338.84912 242.13795l-214.26773 -186.11023" fill-rule="evenodd"/><path fill="#000000" fill-opacity="0.0" d="m137.71526 33.508038l355.0866 99.55905" fill-rule="evenodd"/><path stroke="#0097a7" stroke-width="1.0" stroke-linejoin="round" stroke-linecap="butt" d="m137.71526 33.508038l355.0866 99.55905" fill-rule="evenodd"/><path fill="#000000" fill-opacity="0.0" d="m403.84778 103.75696l-264.063 132.40945" fill-rule="evenodd"/><path stroke="#9e9e9e" stroke-width="2.0" stroke-linejoin="round" stroke-linecap="butt" d="m397.0719 107.1546l-250.51125 125.61417" fill-rule="evenodd"/><path fill="#9e9e9e" stroke="#9e9e9e" stroke-width="2.0" stroke-linecap="butt" d="m402.95386 104.2052c0.8144531 1.62426 0.1579895 3.6012268 -1.4662781 4.41568c-1.6242676 0.8144531 -3.6012268 0.15797424 -4.41568 -1.4662857c-0.8144531 -1.6242523 -0.1579895 -3.6012192 1.4662781 -4.41568c1.6242676 -0.8144531 3.6012268 -0.15797424 4.41568 1.4662857z" fill-rule="nonzero"/><path fill="#9e9e9e" stroke="#9e9e9e" stroke-width="2.0" stroke-linecap="butt" d="m140.6787 235.71817c-0.8144531 -1.6242676 -0.15797424 -3.6012268 1.4662781 -4.41568c1.6242523 -0.8144531 3.6012268 -0.1579895 4.41568 1.4662781c0.8144531 1.6242523 0.15797424 3.6012268 -1.4662781 4.41568c-1.6242676 0.8144531 -3.6012268 0.15797424 -4.41568 -1.4662781z" fill-rule="nonzero"/><path fill="#000000" fill-opacity="0.0" d="m142.83435 43.64545l206.74014 90.897644" fill-rule="evenodd"/><path stroke="#ff9900" stroke-width="2.0" stroke-linejoin="round" stroke-linecap="butt" d="m149.10884 46.40416l193.52675 85.08807" fill-rule="evenodd"/><path fill="#ff9900" stroke="#ff9900" stroke-width="2.0" stroke-linecap="butt" d="m149.10884 46.40416l2.964203 -1.1536865l-6.5621643 -0.4282341l4.751648 4.5461235z" fill-rule="evenodd"/><path fill="#ff9900" stroke="#ff9900" stroke-width="2.0" stroke-linecap="butt" d="m348.6591 134.1406c-0.73132324 1.6633453 -2.672577 2.4188995 -4.3359375 1.6875763c-1.6633301 -0.73132324 -2.4188843 -2.6725922 -1.687561 -4.3359375c0.73132324 -1.6633453 2.672577 -2.4188995 4.3359375 -1.6875763c1.6633301 0.7313385 2.4188843 2.6725922 1.687561 4.3359375z" fill-rule="nonzero"/><path fill="#000000" fill-opacity="0.0" d="m387.2966 100.07848l33.102356 0l0 33.921257l-33.102356 0z" fill-rule="evenodd"/><path fill="#000000" d="m396.28098 120.59848l3.296875 -8.59375l1.21875 0l3.515625 8.59375l-1.28125 0l-1.015625 -2.609375l-3.578125 0l-0.953125 2.609375l-1.203125 0zm2.484375 -3.53125l2.90625 0l-0.890625 -2.375q-0.421875 -1.078125 -0.609375 -1.78125q-0.171875 0.828125 -0.46875 1.640625l-0.9375 2.515625z" fill-rule="nonzero"/><path fill="#000000" fill-opacity="0.0" d="m173.45485 228.29555l33.10237 0l0 33.92125l-33.10237 0z" fill-rule="evenodd"/><path fill="#000000" d="m183.32985 248.81555l0 -8.59375l3.234375 0q0.984375 0 1.578125 0.265625q0.59375 0.265625 0.921875 0.8125q0.34375 0.53125 0.34375 1.125q0 0.546875 -0.296875 1.03125q-0.296875 0.484375 -0.90625 0.78125q0.78125 0.234375 1.1875 0.796875q0.421875 0.546875 0.421875 1.296875q0 0.59375 -0.25 1.125q-0.25 0.515625 -0.625 0.796875q-0.375 0.28125 -0.953125 0.421875q-0.5625 0.140625 -1.375 0.140625l-3.28125 0zm1.140625 -4.984375l1.859375 0q0.75 0 1.078125 -0.09375q0.4375 -0.125 0.65625 -0.421875q0.21875 -0.3125 0.21875 -0.765625q0 -0.421875 -0.203125 -0.75q-0.203125 -0.328125 -0.59375 -0.4375q-0.375 -0.125 -1.296875 -0.125l-1.71875 0l0 2.59375zm0 3.96875l2.140625 0q0.546875 0 0.765625 -0.046875q0.40625 -0.0625 0.65625 -0.21875q0.265625 -0.171875 0.4375 -0.484375q0.171875 -0.3125 0.171875 -0.71875q0 -0.484375 -0.25 -0.84375q-0.234375 -0.359375 -0.671875 -0.5q-0.4375 -0.140625 -1.265625 -0.140625l-1.984375 0l0 2.953125z" fill-rule="nonzero"/><path fill="#000000" fill-opacity="0.0" d="m180.2441 244.25197l-34.582672 -9.574799" fill-rule="evenodd"/><path stroke="#595959" stroke-width="1.0" stroke-linejoin="round" stroke-linecap="butt" d="m180.2441 244.25197l-31.279846 -8.660355" fill-rule="evenodd"/><path fill="#595959" stroke="#595959" stroke-width="1.0" stroke-linecap="butt" d="m148.96425 235.59161l1.3838806 -0.7837372l-3.2778168 0.2593689l2.6776733 1.9082489z" fill-rule="evenodd"/><path fill="#000000" fill-opacity="0.0" d="m334.38818 126.58452l33.102356 0l0 33.92125l-33.102356 0z" fill-rule="evenodd"/><path fill="#000000" d="m350.45068 144.0889l1.125 0.296875q-0.359375 1.390625 -1.28125 2.125q-0.921875 0.734375 -2.265625 0.734375q-1.390625 0 -2.265625 -0.5625q-0.875 -0.5625 -1.328125 -1.625q-0.453125 -1.078125 -0.453125 -2.3125q0 -1.34375 0.515625 -2.34375q0.515625 -1.0 1.453125 -1.515625q0.953125 -0.515625 2.09375 -0.515625q1.28125 0 2.15625 0.65625q0.890625 0.65625 1.234375 1.84375l-1.125 0.265625q-0.296875 -0.9375 -0.875 -1.359375q-0.5625 -0.4375 -1.421875 -0.4375q-0.984375 0 -1.65625 0.484375q-0.65625 0.46875 -0.9375 1.265625q-0.265625 0.796875 -0.265625 1.65625q0 1.09375 0.3125 1.90625q0.328125 0.8125 1.0 1.21875q0.671875 0.40625 1.46875 0.40625q0.953125 0 1.609375 -0.546875q0.671875 -0.546875 0.90625 -1.640625z" fill-rule="nonzero"/></g></svg>